  0
SECTION
  2
HEADER
  9
$ACADVER
  1
AC1009
  0
ENDSEC
  0
SECTION
  2
TABLES
  0
TABLE
  2
LTYPE
 70
     3
  0
LTYPE
  2
LINETYPE_1
 70
    64
  3
See CAD-STD manual for LINETYPE_1
 72
    65
 73
     0
 40
0.0
  0
LTYPE
  2
LINETYPE_2
 70
    64
  3
See CAD-STD manual for LINETYPE_2
 72
    65
 73
     0
 40
0.0
  0
LTYPE
  2
LINETYPE_3
 70
    64
  3
See CAD-STD manual for LINETYPE_3
 72
    65
 73
     2
 40
0.1562
 49
0.125
 49
-0.0312
  0
LTYPE
  2
LINETYPE_4
 70
    64
  3
See CAD-STD manual for LINETYPE_4
 72
    65
 73
     4
 40
1.0
 49
0.75
 49
-0.0625
 49
0.125
 49
-0.0625
  0
LTYPE
  2
LINETYPE_5
 70
    64
  3
See CAD-STD manual for LINETYPE_5
 72
    65
 73
     2
 40
0.3125
 49
0.25
 49
-0.0625
  0
LTYPE
  2
LINETYPE_6
 70
    64
  3
See CAD-STD manual for LINETYPE_6
 72
    65
 73
     6
 40
1.1875
 49
0.75
 49
-0.0625
 49
0.125
 49
-0.0625
 49
0.125
 49
-0.0625
  0
LTYPE
  2
LINETYPE_7
 70
    64
  3
See CAD-STD manual for LINETYPE_7
 72
    65
 73
     6
 40
1.1875
 49
0.75
 49
-0.0625
 49
0.125
 49
-0.0625
 49
0.125
 49
-0.0625
  0
LTYPE
  2
LINETYPE_8
 70
    64
  3
See CAD-STD manual for LINETYPE_8
 72
    65
 73
     2
 40
0.125
 49
0.0625
 49
-0.0625
  0
LTYPE
  2
LINETYPE_9
 70
    64
  3
See CAD-STD manual for LINETYPE_9
 72
    65
 73
     2
 40
0.0625
 49
0.0001
 49
-0.0624
  0
LTYPE
  2
LINETYPE_10
 70
    64
  3
See CAD-STD manual for LINETYPE_10
 72
    65
 73
     4
 40
0.5625
 49
0.375
 49
-0.0625
 49
0.0625
 49
-0.0625
  0
LTYPE
  2
LINETYPE_11
 70
    64
  3
See CAD-STD manual for LINETYPE_11
 72
    65
 73
     0
 40
0.0
  0
ENDTAB
  0
TABLE
  2
LAYER
 70
    16
  0
LAYER
  2
0
 70
     0
 62
     7
  6
CONTINUOUS
  0
LAYER
  2
1
 70
     0
 62
     2
  6
CONTINUOUS
  0
LAYER
  2
2
 70
     0
 62
     4
  6
CONTINUOUS
  0
LAYER
  2
3
 70
     0
 62
     3
  6
CONTINUOUS
  0
LAYER
  2
4
 70
     0
 62
     9
  6
CONTINUOUS
  0
LAYER
  2
5
 70
     0
 62
     5
  6
CONTINUOUS
  0
LAYER
  2
6
 70
     0
 62
     6
  6
CONTINUOUS
  0
LAYER
  2
7
 70
     0
 62
     1
  6
CONTINUOUS
  0
LAYER
  2
8
 70
     0
 62
    40
  6
CONTINUOUS
  0
LAYER
  2
9
 70
     0
 62
    30
  6
CONTINUOUS
  0
LAYER
  2
10
 70
     0
 62
   134
  6
CONTINUOUS
  0
LAYER
  2
11
 70
     0
 62
    94
  6
CONTINUOUS
  0
LAYER
  2
12
 70
     0
 62
   254
  6
CONTINUOUS
  0
LAYER
  2
13
 70
     0
 62
   174
  6
CONTINUOUS
  0
LAYER
  2
14
 70
     0
 62
   214
  6
CONTINUOUS
  0
LAYER
  2
15
 70
     0
 62
    32
  6
CONTINUOUS
  0
ENDTAB
  0
ENDSEC
  0
SECTION
  2
ENTITIES
  0
POLYLINE
  8
0
  6
LINETYPE_11
 40
0.032
 41
0.032
 66
     1
 10
0.0
 20
0.0
 30
0.0
  0
VERTEX
  8
0
 10
0.5
 20
1.0
 30
0.0
  0
VERTEX
  8
0
 10
5.5
 20
1.0
 30
0.0
  0
SEQEND
  0
TEXT
  8
0
 10
6.0
 20
1.1642
 30
0.0
 40
0.125
  1
SHEET 1 OF 3
 50
0.000000
  0
POLYLINE
  8
0
  6
LINETYPE_11
 40
0.032
 41
0.032
 66
     1
 10
0.0
 20
0.0
 30
0.0
  0
VERTEX
  8
0
 10
5.5
 20
1.0
 30
0.0
  0
VERTEX
  8
0
 10
10.5
 20
1.0
 30
0.0
  0
SEQEND
  0
POLYLINE
  8
0
  6
LINETYPE_11
 40
0.032
 41
0.032
 66
     1
 10
0.0
 20
0.0
 30
0.0
  0
VERTEX
  8
0
 10
8.0
 20
1.5
 30
0.0
  0
VERTEX
  8
0
 10
8.0
 20
1.0
 30
0.0
  0
SEQEND
  0
TEXT
  8
0
 10
1.0024
 20
1.1272
 30
0.0
 40
0.25
  1
ASSEMBLY
 50
0.000000
  0
POLYLINE
  8
0
  6
LINETYPE_11
 40
0.032
 41
0.032
 66
     1
 10
0.0
 20
0.0
 30
0.0
  0
VERTEX
  8
0
 10
5.5
 20
1.5
 30
0.0
  0
VERTEX
  8
0
 10
5.5
 20
0.5
 30
0.0
  0
SEQEND
  0
POLYLINE
  8
0
  6
LINETYPE_1
 66
     1
 10
0.0
 20
0.0
 30
0.0
  0
VERTEX
  8
0
 10
1.6839
 20
3.3041
 30
0.0
  0
VERTEX
  8
0
 10
1.9004
 20
3.1791
 30
0.0
  0
SEQEND
  0
POLYLINE
  8
0
  6
LINETYPE_1
 66
     1
 10
0.0
 20
0.0
 30
0.0
  0
VERTEX
  8
0
 10
7.0966
 20
6.1791
 30
0.0
  0
VERTEX
  8
0
 10
7.0966
 20
7.6791
 30
0.0
  0
SEQEND
  0
POLYLINE
  8
0
  6
LINETYPE_1
 66
     1
 10
0.0
 20
0.0
 30
0.0
  0
VERTEX
  8
0
 10
7.0966
 20
7.6791
 30
0.0
  0
VERTEX
  8
0
 10
6.6636
 20
7.4291
 30
0.0
  0
SEQEND
  0
POLYLINE
  8
0
  6
LINETYPE_1
 66
     1
 10
0.0
 20
0.0
 30
0.0
  0
VERTEX
  8
0
 10
1.9004
 20
3.1791
 30
0.0
  0
VERTEX
  8
0
 10
1.9004
 20
4.1791
 30
0.0
  0
SEQEND
  0
POLYLINE
  8
0
  6
LINETYPE_1
 66
     1
 10
0.0
 20
0.0
 30
0.0
  0
VERTEX
  8
0
 10
1.9004
 20
4.1791
 30
0.0
  0
VERTEX
  8
0
 10
3.1994
 20
4.9291
 30
0.0
  0
SEQEND
  0
POLYLINE
  8
0
  6
LINETYPE_1
 66
     1
 10
0.0
 20
0.0
 30
0.0
  0
VERTEX
  8
0
 10
3.1994
 20
4.9291
 30
0.0
  0
VERTEX
  8
0
 10
3.6324
 20
5.6791
 30
0.0
  0
SEQEND
  0
POLYLINE
  8
0
  6
LINETYPE_1
 66
     1
 10
0.0
 20
0.0
 30
0.0
  0
VERTEX
  8
0
 10
3.6324
 20
5.6791
 30
0.0
  0
VERTEX
  8
0
 10
4.0654
 20
5.9291
 30
0.0
  0
SEQEND
  0
POLYLINE
  8
0
  6
LINETYPE_1
 66
     1
 10
0.0
 20
0.0
 30
0.0
  0
VERTEX
  8
0
 10
6.6636
 20
7.4291
 30
0.0
  0
VERTEX
  8
0
 10
6.2306
 20
6.6791
 30
0.0
  0
SEQEND
  0
POLYLINE
  8
0
  6
LINETYPE_1
 66
     1
 10
0.0
 20
0.0
 30
0.0
  0
VERTEX
  8
0
 10
6.2306
 20
6.6791
 30
0.0
  0
VERTEX
  8
0
 10
4.4985
 20
5.6791
 30
0.0
  0
SEQEND
  0
POLYLINE
  8
0
  6
LINETYPE_1
 66
     1
 10
0.0
 20
0.0
 30
0.0
  0
VERTEX
  8
0
 10
4.4985
 20
5.6791
 30
0.0
  0
VERTEX
  8
0
 10
4.0654
 20
5.9291
 30
0.0
  0
SEQEND
  0
POLYLINE
  8
0
  6
LINETYPE_1
 66
     1
 10
0.0
 20
0.0
 30
0.0
  0
VERTEX
  8
0
 10
1.6839
 20
3.3041
 30
0.0
  0
VERTEX
  8
0
 10
1.6839
 20
4.3041
 30
0.0
  0
SEQEND
  0
POLYLINE
  8
0
  6
LINETYPE_1
 66
     1
 10
0.0
 20
0.0
 30
0.0
  0
VERTEX
  8
0
 10
1.6839
 20
4.3041
 30
0.0
  0
VERTEX
  8
0
 10
2.9829
 20
5.0541
 30
0.0
  0
SEQEND
  0
POLYLINE
  8
0
  6
LINETYPE_1
 66
     1
 10
0.0
 20
0.0
 30
0.0
  0
VERTEX
  8
0
 10
2.9829
 20
5.0541
 30
0.0
  0
VERTEX
  8
0
 10
3.1994
 20
4.9291
 30
0.0
  0
SEQEND
  0
POLYLINE
  8
0
  6
LINETYPE_1
 66
     1
 10
0.0
 20
0.0
 30
0.0
  0
VERTEX
  8
0
 10
1.9004
 20
4.1791
 30
0.0
  0
VERTEX
  8
0
 10
1.6839
 20
4.3041
 30
0.0
  0
SEQEND
  0
POLYLINE
  8
0
  6
LINETYPE_1
 66
     1
 10
0.0
 20
0.0
 30
0.0
  0
VERTEX
  8
0
 10
3.6324
 20
5.6791
 30
0.0
  0
VERTEX
  8
0
 10
3.4159
 20
5.8041
 30
0.0
  0
SEQEND
  0
POLYLINE
  8
0
  6
LINETYPE_1
 66
     1
 10
0.0
 20
0.0
 30
0.0
  0
VERTEX
  8
0
 10
4.0654
 20
5.9291
 30
0.0
  0
VERTEX
  8
0
 10
3.8489
 20
6.0541
 30
0.0
  0
SEQEND
  0
POLYLINE
  8
0
  6
LINETYPE_1
 66
     1
 10
0.0
 20
0.0
 30
0.0
  0
VERTEX
  8
0
 10
6.2306
 20
6.6791
 30
0.0
  0
VERTEX
  8
0
 10
6.0142
 20
6.8041
 30
0.0
  0
SEQEND
  0
POLYLINE
  8
0
  6
LINETYPE_1
 66
     1
 10
0.0
 20
0.0
 30
0.0
  0
VERTEX
  8
0
 10
6.6636
 20
7.4291
 30
0.0
  0
VERTEX
  8
0
 10
6.4472
 20
7.5541
 30
0.0
  0
SEQEND
  0
POLYLINE
  8
0
  6
LINETYPE_1
 66
     1
 10
0.0
 20
0.0
 30
0.0
  0
VERTEX
  8
0
 10
7.0966
 20
7.6791
 30
0.0
  0
VERTEX
  8
0
 10
6.8802
 20
7.8041
 30
0.0
  0
SEQEND
  0
POLYLINE
  8
0
  6
LINETYPE_1
 66
     1
 10
0.0
 20
0.0
 30
0.0
  0
VERTEX
  8
0
 10
6.8802
 20
7.8041
 30
0.0
  0
VERTEX
  8
0
 10
6.4472
 20
7.5541
 30
0.0
  0
SEQEND
  0
POLYLINE
  8
0
  6
LINETYPE_1
 66
     1
 10
0.0
 20
0.0
 30
0.0
  0
VERTEX
  8
0
 10
6.4472
 20
7.5541
 30
0.0
  0
VERTEX
  8
0
 10
6.0142
 20
6.8041
 30
0.0
  0
SEQEND
  0
POLYLINE
  8
0
  6
LINETYPE_1
 66
     1
 10
0.0
 20
0.0
 30
0.0
  0
VERTEX
  8
0
 10
6.0142
 20
6.8041
 30
0.0
  0
VERTEX
  8
0
 10
4.282
 20
5.8041
 30
0.0
  0
SEQEND
  0
POLYLINE
  8
0
  6
LINETYPE_1
 66
     1
 10
0.0
 20
0.0
 30
0.0
  0
VERTEX
  8
0
 10
3.8489
 20
6.0541
 30
0.0
  0
VERTEX
  8
0
 10
3.4159
 20
5.8041
 30
0.0
  0
SEQEND
  0
POLYLINE
  8
0
  6
LINETYPE_1
 66
     1
 10
0.0
 20
0.0
 30
0.0
  0
VERTEX
  8
0
 10
3.4159
 20
5.8041
 30
0.0
  0
VERTEX
  8
0
 10
2.9829
 20
5.0541
 30
0.0
  0
SEQEND
  0
POLYLINE
  8
0
  6
LINETYPE_1
 66
     1
 10
0.0
 20
0.0
 30
0.0
  0
VERTEX
  8
0
 10
2.7664
 20
4.4291
 30
0.0
  0
VERTEX
  8
0
 10
2.7664
 20
4.1791
 30
0.0
  0
SEQEND
  0
POLYLINE
  8
0
  6
LINETYPE_1
 66
     1
 10
0.0
 20
0.0
 30
0.0
  0
VERTEX
  8
0
 10
6.1223
 20
3.4916
 30
0.0
  0
VERTEX
  8
0
 10
7.4213
 20
4.2416
 30
0.0
  0
SEQEND
  0
POLYLINE
  8
0
  6
LINETYPE_1
 66
     1
 10
0.0
 20
0.0
 30
0.0
  0
VERTEX
  8
0
 10
2.2252
 20
7.2416
 30
0.0
  0
VERTEX
  8
0
 10
0.9262
 20
6.4916
 30
0.0
  0
SEQEND
  0
POLYLINE
  8
0
  6
LINETYPE_1
 66
     1
 10
0.0
 20
0.0
 30
0.0
  0
VERTEX
  8
0
 10
3.0912
 20
4.2416
 30
0.0
  0
VERTEX
  8
0
 10
6.1223
 20
3.4916
 30
0.0
  0
SEQEND
  0
POLYLINE
  8
0
  6
LINETYPE_1
 66
     1
 10
0.0
 20
0.0
 30
0.0
  0
VERTEX
  8
0
 10
6.1223
 20
3.4916
 30
0.0
  0
VERTEX
  8
0
 10
6.1223
 20
3.2416
 30
0.0
  0
SEQEND
  0
POLYLINE
  8
0
  6
LINETYPE_1
 66
     1
 10
0.0
 20
0.0
 30
0.0
  0
VERTEX
  8
0
 10
6.1223
 20
3.2416
 30
0.0
  0
VERTEX
  8
0
 10
7.4213
 20
3.9916
 30
0.0
  0
SEQEND
  0
POLYLINE
  8
0
  6
LINETYPE_1
 66
     1
 10
0.0
 20
0.0
 30
0.0
  0
VERTEX
  8
0
 10
7.4213
 20
3.9916
 30
0.0
  0
VERTEX
  8
0
 10
7.4213
 20
4.2416
 30
0.0
  0
SEQEND
  0
POLYLINE
  8
0
  6
LINETYPE_1
 66
     1
 10
0.0
 20
0.0
 30
0.0
  0
VERTEX
  8
0
 10
0.9262
 20
6.4916
 30
0.0
  0
VERTEX
  8
0
 10
0.9262
 20
6.2416
 30
0.0
  0
SEQEND
  0
POLYLINE
  8
0
  6
LINETYPE_1
 66
     1
 10
0.0
 20
0.0
 30
0.0
  0
VERTEX
  8
0
 10
3.0912
 20
3.9916
 30
0.0
  0
VERTEX
  8
0
 10
3.0912
 20
4.2416
 30
0.0
  0
SEQEND
  0
POLYLINE
  8
0
  6
LINETYPE_1
 66
     1
 10
0.0
 20
0.0
 30
0.0
  0
VERTEX
  8
0
 10
6.1223
 20
3.2416
 30
0.0
  0
VERTEX
  8
0
 10
3.0912
 20
3.9916
 30
0.0
  0
SEQEND
  0
POLYLINE
  8
0
  6
LINETYPE_1
 66
     1
 10
0.0
 20
0.0
 30
0.0
  0
VERTEX
  8
0
 10
2.7664
 20
4.4291
 30
0.0
  0
VERTEX
  8
0
 10
4.9315
 20
5.6791
 30
0.0
  0
SEQEND
  0
POLYLINE
  8
0
  6
LINETYPE_1
 66
     1
 10
0.0
 20
0.0
 30
0.0
  0
VERTEX
  8
0
 10
7.4213
 20
4.2416
 30
0.0
  0
VERTEX
  8
0
 10
4.9315
 20
5.6791
 30
0.0
  0
SEQEND
  0
POLYLINE
  8
0
  6
LINETYPE_1
 66
     1
 10
0.0
 20
0.0
 30
0.0
  0
VERTEX
  8
0
 10
7.0966
 20
6.1791
 30
0.0
  0
VERTEX
  8
0
 10
5.581
 20
5.3041
 30
0.0
  0
SEQEND
  0
POLYLINE
  8
0
  6
LINETYPE_1
 66
     1
 10
0.0
 20
0.0
 30
0.0
  0
VERTEX
  8
0
 10
2.7664
 20
4.4291
 30
0.0
  0
VERTEX
  8
0
 10
3.0912
 20
4.2416
 30
0.0
  0
SEQEND
  0
POLYLINE
  8
0
  6
LINETYPE_1
 66
     1
 10
0.0
 20
0.0
 30
0.0
  0
VERTEX
  8
0
 10
2.7664
 20
4.1791
 30
0.0
  0
VERTEX
  8
0
 10
3.0912
 20
3.9916
 30
0.0
  0
SEQEND
  0
POLYLINE
  8
0
  6
LINETYPE_1
 66
     1
 10
0.0
 20
0.0
 30
0.0
  0
VERTEX
  8
0
 10
1.9004
 20
3.1791
 30
0.0
  0
VERTEX
  8
0
 10
3.2426
 20
3.9541
 30
0.0
  0
SEQEND
  0
POLYLINE
  8
0
  6
LINETYPE_1
 66
     1
 10
0.0
 20
0.0
 30
0.0
  0
VERTEX
  8
0
 10
2.2252
 20
7.2416
 30
0.0
  0
VERTEX
  8
0
 10
4.4985
 20
5.9291
 30
0.0
  0
SEQEND
  0
POLYLINE
  8
0
  6
LINETYPE_1
 66
     1
 10
0.0
 20
0.0
 30
0.0
  0
VERTEX
  8
0
 10
0.9262
 20
6.4916
 30
0.0
  0
VERTEX
  8
0
 10
2.2252
 20
4.7416
 30
0.0
  0
SEQEND
  0
POLYLINE
  8
0
  6
LINETYPE_1
 66
     1
 10
0.0
 20
0.0
 30
0.0
  0
VERTEX
  8
0
 10
0.9262
 20
6.2416
 30
0.0
  0
VERTEX
  8
0
 10
2.1602
 20
4.5791
 30
0.0
  0
SEQEND
  0
POLYLINE
  8
0
  6
LINETYPE_1
 66
     1
 10
0.0
 20
0.0
 30
0.0
  0
VERTEX
  8
0
 10
2.2252
 20
4.7416
 30
0.0
  0
VERTEX
  8
0
 10
2.3334
 20
4.6791
 30
0.0
  0
SEQEND
  0
POLYLINE
  8
0
  6
LINETYPE_1
 66
     1
 10
0.0
 20
0.0
 30
0.0
  0
VERTEX
  8
0
 10
2.2252
 20
4.7416
 30
0.0
  0
VERTEX
  8
0
 10
2.2252
 20
4.6166
 30
0.0
  0
SEQEND
  0
TEXT
  8
0
 10
8.5
 20
1.1642
 30
0.0
 40
0.125
  1
SCALE 1" = 1"
 50
0.000000
  0
POLYLINE
  8
0
  6
LINETYPE_11
 40
0.04
 41
0.04
 66
     1
 70
     1
 10
0.0
 20
0.0
 30
0.0
  0
VERTEX
  8
0
 10
0.5
 20
8.0
 30
0.0
  0
VERTEX
  8
0
 10
10.5
 20
8.0
 30
0.0
  0
VERTEX
  8
0
 10
10.5
 20
0.5
 30
0.0
  0
VERTEX
  8
0
 10
0.5
 20
0.5
 30
0.0
  0
SEQEND
  0
POLYLINE
  8
0
  6
LINETYPE_11
 40
0.032
 41
0.032
 66
     1
 10
0.0
 20
0.0
 30
0.0
  0
VERTEX
  8
0
 10
0.5
 20
1.5
 30
0.0
  0
VERTEX
  8
0
 10
10.5
 20
1.5
 30
0.0
  0
SEQEND
  0
TEXT
  8
0
 10
1.0
 20
0.6642
 30
0.0
 40
0.125
  1
PROJECT: BALSA WOOD PLANE
 50
0.000000
  0
POLYLINE
  8
0
  6
LINETYPE_1
 66
     1
 10
0.0
 20
0.0
 30
0.0
  0
VERTEX
  8
0
 10
4.5
 20
1.5
 30
0.0
  0
VERTEX
  8
0
 10
4.5
 20
3.0
 30
0.0
  0
SEQEND
  0
POLYLINE
  8
0
  6
LINETYPE_1
 66
     1
 10
0.0
 20
0.0
 30
0.0
  0
VERTEX
  8
0
 10
4.5
 20
3.0
 30
0.0
  0
VERTEX
  8
0
 10
10.5
 20
3.0
 30
0.0
  0
SEQEND
  0
POLYLINE
  8
0
  6
LINETYPE_1
 66
     1
 10
0.0
 20
0.0
 30
0.0
  0
VERTEX
  8
0
 10
4.5
 20
2.5
 30
0.0
  0
VERTEX
  8
0
 10
10.5
 20
2.5
 30
0.0
  0
SEQEND
  0
POLYLINE
  8
0
  6
LINETYPE_1
 66
     1
 10
0.0
 20
0.0
 30
0.0
  0
VERTEX
  8
0
 10
4.5
 20
2.0
 30
0.0
  0
VERTEX
  8
0
 10
10.5
 20
2.0
 30
0.0
  0
SEQEND
  0
POLYLINE
  8
0
  6
LINETYPE_1
 66
     1
 10
0.0
 20
0.0
 30
0.0
  0
VERTEX
  8
0
 10
6.0
 20
1.5
 30
0.0
  0
VERTEX
  8
0
 10
6.0
 20
3.0
 30
0.0
  0
SEQEND
  0
POLYLINE
  8
0
  6
LINETYPE_1
 66
     1
 10
0.0
 20
0.0
 30
0.0
  0
VERTEX
  8
0
 10
7.5
 20
1.5
 30
0.0
  0
VERTEX
  8
0
 10
7.5
 20
3.0
 30
0.0
  0
SEQEND
  0
POLYLINE
  8
0
  6
LINETYPE_1
 66
     1
 10
0.0
 20
0.0
 30
0.0
  0
VERTEX
  8
0
 10
9.0
 20
1.5
 30
0.0
  0
VERTEX
  8
0
 10
9.0
 20
3.0
 30
0.0
  0
SEQEND
  0
TEXT
  8
0
 10
6.0
 20
0.6642
 30
0.0
 40
0.125
  1
NAME: JASPER ROGERS
 50
0.000000
  0
TEXT
  8
0
 10
4.5825
 20
2.7109
 30
0.0
 40
0.125
  1
ITEM NUMBER
 50
0.000000
  0
TEXT
  8
0
 10
6.1241
 20
2.6558
 30
0.0
 40
0.125
  1
ITEM NUMBER
 50
0.000000
  0
TEXT
  8
0
 10
7.6245
 20
2.6145
 30
0.0
 40
0.125
  1
ITEM NUMBER
 50
0.000000
  0
TEXT
  8
0
 10
9.1386
 20
2.587
 30
0.0
 40
0.125
  1
ITEM NUMBER
 50
0.000000
  0
TEXT
  8
0
 10
4.5825
 20
2.2567
 30
0.0
 40
0.125
  1
1
 50
0.000000
  0
TEXT
  8
0
 10
4.5687
 20
1.6786
 30
0.0
 40
0.125
  1
2
 50
0.000000
  0
TEXT
  8
0
 10
6.0966
 20
2.064
 30
0.0
 40
0.125
  1
BODY
 50
0.000000
  0
TEXT
  8
0
 10
6.0691
 20
1.6648
 30
0.0
 40
0.125
  1
WING
 50
0.000000
  0
TEXT
  8
0
 10
7.6245
 20
2.0777
 30
0.0
 40
0.125
  1
BALSA WOOD
 50
0.000000
  0
TEXT
  8
0
 10
7.6245
 20
1.7611
 30
0.0
 40
0.125
  1
BALSA WOOD
 50
0.000000
  0
TEXT
  8
0
 10
9.1386
 20
2.064
 30
0.0
 40
0.125
  1
1
 50
0.000000
  0
TEXT
  8
0
 10
9.1386
 20
1.7062
 30
0.0
 40
0.125
  1
1
 50
0.000000
  0
ENDSEC
  0
EOF
