  0
SECTION
  2
HEADER
  9
$ACADVER
  1
AC1009
  0
ENDSEC
  0
SECTION
  2
TABLES
  0
TABLE
  2
LTYPE
 70
     3
  0
LTYPE
  2
LINETYPE_1
 70
    64
  3
See CAD-STD manual for LINETYPE_1
 72
    65
 73
     0
 40
0.0
  0
LTYPE
  2
LINETYPE_2
 70
    64
  3
See CAD-STD manual for LINETYPE_2
 72
    65
 73
     0
 40
0.0
  0
LTYPE
  2
LINETYPE_3
 70
    64
  3
See CAD-STD manual for LINETYPE_3
 72
    65
 73
     2
 40
0.1562
 49
0.125
 49
-0.0312
  0
LTYPE
  2
LINETYPE_4
 70
    64
  3
See CAD-STD manual for LINETYPE_4
 72
    65
 73
     4
 40
1.0
 49
0.75
 49
-0.0625
 49
0.125
 49
-0.0625
  0
LTYPE
  2
LINETYPE_5
 70
    64
  3
See CAD-STD manual for LINETYPE_5
 72
    65
 73
     2
 40
0.3125
 49
0.25
 49
-0.0625
  0
LTYPE
  2
LINETYPE_6
 70
    64
  3
See CAD-STD manual for LINETYPE_6
 72
    65
 73
     6
 40
1.1875
 49
0.75
 49
-0.0625
 49
0.125
 49
-0.0625
 49
0.125
 49
-0.0625
  0
LTYPE
  2
LINETYPE_7
 70
    64
  3
See CAD-STD manual for LINETYPE_7
 72
    65
 73
     6
 40
1.1875
 49
0.75
 49
-0.0625
 49
0.125
 49
-0.0625
 49
0.125
 49
-0.0625
  0
LTYPE
  2
LINETYPE_8
 70
    64
  3
See CAD-STD manual for LINETYPE_8
 72
    65
 73
     2
 40
0.125
 49
0.0625
 49
-0.0625
  0
LTYPE
  2
LINETYPE_9
 70
    64
  3
See CAD-STD manual for LINETYPE_9
 72
    65
 73
     2
 40
0.0625
 49
0.0001
 49
-0.0624
  0
LTYPE
  2
LINETYPE_10
 70
    64
  3
See CAD-STD manual for LINETYPE_10
 72
    65
 73
     4
 40
0.5625
 49
0.375
 49
-0.0625
 49
0.0625
 49
-0.0625
  0
LTYPE
  2
LINETYPE_11
 70
    64
  3
See CAD-STD manual for LINETYPE_11
 72
    65
 73
     0
 40
0.0
  0
ENDTAB
  0
TABLE
  2
LAYER
 70
    16
  0
LAYER
  2
0
 70
     0
 62
     7
  6
CONTINUOUS
  0
LAYER
  2
1
 70
     0
 62
     2
  6
CONTINUOUS
  0
LAYER
  2
2
 70
     0
 62
     4
  6
CONTINUOUS
  0
LAYER
  2
3
 70
     0
 62
     3
  6
CONTINUOUS
  0
LAYER
  2
4
 70
     0
 62
     9
  6
CONTINUOUS
  0
LAYER
  2
5
 70
     0
 62
     5
  6
CONTINUOUS
  0
LAYER
  2
6
 70
     0
 62
     6
  6
CONTINUOUS
  0
LAYER
  2
7
 70
     0
 62
     1
  6
CONTINUOUS
  0
LAYER
  2
8
 70
     0
 62
    40
  6
CONTINUOUS
  0
LAYER
  2
9
 70
     0
 62
    30
  6
CONTINUOUS
  0
LAYER
  2
10
 70
     0
 62
   134
  6
CONTINUOUS
  0
LAYER
  2
11
 70
     0
 62
    94
  6
CONTINUOUS
  0
LAYER
  2
12
 70
     0
 62
   254
  6
CONTINUOUS
  0
LAYER
  2
13
 70
     0
 62
   174
  6
CONTINUOUS
  0
LAYER
  2
14
 70
     0
 62
   214
  6
CONTINUOUS
  0
LAYER
  2
15
 70
     0
 62
    32
  6
CONTINUOUS
  0
ENDTAB
  0
ENDSEC
  0
SECTION
  2
ENTITIES
  0
POLYLINE
  8
0
  6
LINETYPE_11
 40
0.04
 41
0.04
 66
     1
 10
0.0
 20
0.0
 30
0.0
  0
VERTEX
  8
0
 10
0.5
 20
8.0
 30
0.0
  0
VERTEX
  8
0
 10
10.5
 20
8.0
 30
0.0
  0
SEQEND
  0
POLYLINE
  8
0
  6
LINETYPE_11
 40
0.04
 41
0.04
 66
     1
 10
0.0
 20
0.0
 30
0.0
  0
VERTEX
  8
0
 10
10.5
 20
8.0
 30
0.0
  0
VERTEX
  8
0
 10
10.5
 20
0.5
 30
0.0
  0
SEQEND
  0
POLYLINE
  8
0
  6
LINETYPE_11
 40
0.04
 41
0.04
 66
     1
 10
0.0
 20
0.0
 30
0.0
  0
VERTEX
  8
0
 10
10.5
 20
0.5
 30
0.0
  0
VERTEX
  8
0
 10
0.5
 20
0.5
 30
0.0
  0
SEQEND
  0
POLYLINE
  8
0
  6
LINETYPE_11
 40
0.04
 41
0.04
 66
     1
 10
0.0
 20
0.0
 30
0.0
  0
VERTEX
  8
0
 10
0.5
 20
0.5
 30
0.0
  0
VERTEX
  8
0
 10
0.5
 20
8.0
 30
0.0
  0
SEQEND
  0
POLYLINE
  8
0
  6
LINETYPE_11
 40
0.032
 41
0.032
 66
     1
 10
0.0
 20
0.0
 30
0.0
  0
VERTEX
  8
0
 10
10.5
 20
2.0
 30
0.0
  0
VERTEX
  8
0
 10
0.5
 20
2.0
 30
0.0
  0
SEQEND
  0
POLYLINE
  8
0
  6
LINETYPE_11
 40
0.032
 41
0.032
 66
     1
 10
0.0
 20
0.0
 30
0.0
  0
VERTEX
  8
0
 10
5.5
 20
2.0
 30
0.0
  0
VERTEX
  8
0
 10
5.5
 20
0.5
 30
0.0
  0
SEQEND
  0
POLYLINE
  8
0
  6
LINETYPE_11
 40
0.032
 41
0.032
 66
     1
 10
0.0
 20
0.0
 30
0.0
  0
VERTEX
  8
0
 10
5.5
 20
1.5
 30
0.0
  0
VERTEX
  8
0
 10
10.5
 20
1.5
 30
0.0
  0
SEQEND
  0
POLYLINE
  8
0
  6
LINETYPE_11
 40
0.032
 41
0.032
 66
     1
 10
0.0
 20
0.0
 30
0.0
  0
VERTEX
  8
0
 10
0.5
 20
1.0
 30
0.0
  0
VERTEX
  8
0
 10
10.5
 20
1.0
 30
0.0
  0
SEQEND
  0
POLYLINE
  8
0
  6
LINETYPE_11
 40
0.032
 41
0.032
 66
     1
 10
0.0
 20
0.0
 30
0.0
  0
VERTEX
  8
0
 10
8.0
 20
2.0
 30
0.0
  0
VERTEX
  8
0
 10
8.0
 20
1.5
 30
0.0
  0
SEQEND
  0
POLYLINE
  8
0
  6
LINETYPE_1
 66
     1
 10
0.0
 20
0.0
 30
0.0
  0
VERTEX
  8
0
 10
1.5
 20
3.0
 30
0.0
  0
VERTEX
  8
0
 10
1.5
 20
4.0
 30
0.0
  0
SEQEND
  0
POLYLINE
  8
0
  6
LINETYPE_1
 66
     1
 10
0.0
 20
0.0
 30
0.0
  0
VERTEX
  8
0
 10
1.5
 20
4.0
 30
0.0
  0
VERTEX
  8
0
 10
3.0
 20
4.0
 30
0.0
  0
SEQEND
  0
POLYLINE
  8
0
  6
LINETYPE_1
 66
     1
 10
0.0
 20
0.0
 30
0.0
  0
VERTEX
  8
0
 10
3.0
 20
4.0
 30
0.0
  0
VERTEX
  8
0
 10
3.5
 20
4.5
 30
0.0
  0
SEQEND
  0
POLYLINE
  8
0
  6
LINETYPE_1
 66
     1
 10
0.0
 20
0.0
 30
0.0
  0
VERTEX
  8
0
 10
3.5
 20
4.5
 30
0.0
  0
VERTEX
  8
0
 10
4.0
 20
4.5
 30
0.0
  0
SEQEND
  0
POLYLINE
  8
0
  6
LINETYPE_1
 66
     1
 10
0.0
 20
0.0
 30
0.0
  0
VERTEX
  8
0
 10
4.0
 20
4.5
 30
0.0
  0
VERTEX
  8
0
 10
4.5
 20
4.0
 30
0.0
  0
SEQEND
  0
POLYLINE
  8
0
  6
LINETYPE_1
 66
     1
 10
0.0
 20
0.0
 30
0.0
  0
VERTEX
  8
0
 10
4.5
 20
4.0
 30
0.0
  0
VERTEX
  8
0
 10
6.5
 20
4.0
 30
0.0
  0
SEQEND
  0
POLYLINE
  8
0
  6
LINETYPE_1
 66
     1
 10
0.0
 20
0.0
 30
0.0
  0
VERTEX
  8
0
 10
6.5
 20
4.0
 30
0.0
  0
VERTEX
  8
0
 10
7.0
 20
4.5
 30
0.0
  0
SEQEND
  0
POLYLINE
  8
0
  6
LINETYPE_1
 66
     1
 10
0.0
 20
0.0
 30
0.0
  0
VERTEX
  8
0
 10
7.0
 20
4.5
 30
0.0
  0
VERTEX
  8
0
 10
7.5
 20
4.5
 30
0.0
  0
SEQEND
  0
POLYLINE
  8
0
  6
LINETYPE_1
 66
     1
 10
0.0
 20
0.0
 30
0.0
  0
VERTEX
  8
0
 10
7.5
 20
4.5
 30
0.0
  0
VERTEX
  8
0
 10
7.5
 20
3.0
 30
0.0
  0
SEQEND
  0
POLYLINE
  8
0
  6
LINETYPE_1
 66
     1
 10
0.0
 20
0.0
 30
0.0
  0
VERTEX
  8
0
 10
7.5
 20
3.0
 30
0.0
  0
VERTEX
  8
0
 10
1.5
 20
3.0
 30
0.0
  0
SEQEND
  0
POLYLINE
  8
0
  6
LINETYPE_1
 66
     1
 10
0.0
 20
0.0
 30
0.0
  0
VERTEX
  8
0
 10
2.5
 20
3.5
 30
0.0
  0
VERTEX
  8
0
 10
5.0
 20
3.5
 30
0.0
  0
SEQEND
  0
POLYLINE
  8
0
  6
LINETYPE_1
 66
     1
 10
0.0
 20
0.0
 30
0.0
  0
VERTEX
  8
0
 10
5.0
 20
3.5
 30
0.0
  0
VERTEX
  8
0
 10
5.0
 20
3.75
 30
0.0
  0
SEQEND
  0
POLYLINE
  8
0
  6
LINETYPE_1
 66
     1
 10
0.0
 20
0.0
 30
0.0
  0
VERTEX
  8
0
 10
5.0
 20
3.75
 30
0.0
  0
VERTEX
  8
0
 10
2.5
 20
3.75
 30
0.0
  0
SEQEND
  0
POLYLINE
  8
0
  6
LINETYPE_1
 66
     1
 10
0.0
 20
0.0
 30
0.0
  0
VERTEX
  8
0
 10
2.5
 20
3.75
 30
0.0
  0
VERTEX
  8
0
 10
2.5
 20
3.5
 30
0.0
  0
SEQEND
  0
POLYLINE
  8
0
  6
LINETYPE_1
 66
     1
 10
0.0
 20
0.0
 30
0.0
  0
VERTEX
  8
0
 10
1.5
 20
7.0
 30
0.0
  0
VERTEX
  8
0
 10
7.5
 20
7.0
 30
0.0
  0
SEQEND
  0
POLYLINE
  8
0
  6
LINETYPE_1
 66
     1
 10
0.0
 20
0.0
 30
0.0
  0
VERTEX
  8
0
 10
7.5
 20
7.0
 30
0.0
  0
VERTEX
  8
0
 10
7.5
 20
7.25
 30
0.0
  0
SEQEND
  0
POLYLINE
  8
0
  6
LINETYPE_1
 66
     1
 10
0.0
 20
0.0
 30
0.0
  0
VERTEX
  8
0
 10
7.5
 20
7.25
 30
0.0
  0
VERTEX
  8
0
 10
1.5
 20
7.25
 30
0.0
  0
SEQEND
  0
POLYLINE
  8
0
  6
LINETYPE_1
 66
     1
 10
0.0
 20
0.0
 30
0.0
  0
VERTEX
  8
0
 10
1.5
 20
7.25
 30
0.0
  0
VERTEX
  8
0
 10
1.5
 20
7.0
 30
0.0
  0
SEQEND
  0
POLYLINE
  8
0
  6
LINETYPE_1
 66
     1
 10
0.0
 20
0.0
 30
0.0
  0
VERTEX
  8
0
 10
3.0
 20
7.25
 30
0.0
  0
VERTEX
  8
0
 10
3.0
 20
7.0
 30
0.0
  0
SEQEND
  0
POLYLINE
  8
0
  6
LINETYPE_1
 66
     1
 10
0.0
 20
0.0
 30
0.0
  0
VERTEX
  8
0
 10
3.5
 20
7.25
 30
0.0
  0
VERTEX
  8
0
 10
3.5
 20
7.0
 30
0.0
  0
SEQEND
  0
POLYLINE
  8
0
  6
LINETYPE_1
 66
     1
 10
0.0
 20
0.0
 30
0.0
  0
VERTEX
  8
0
 10
4.0
 20
7.25
 30
0.0
  0
VERTEX
  8
0
 10
4.0
 20
7.0
 30
0.0
  0
SEQEND
  0
POLYLINE
  8
0
  6
LINETYPE_1
 66
     1
 10
0.0
 20
0.0
 30
0.0
  0
VERTEX
  8
0
 10
4.5
 20
7.25
 30
0.0
  0
VERTEX
  8
0
 10
4.5
 20
7.0
 30
0.0
  0
SEQEND
  0
POLYLINE
  8
0
  6
LINETYPE_1
 66
     1
 10
0.0
 20
0.0
 30
0.0
  0
VERTEX
  8
0
 10
6.5
 20
7.25
 30
0.0
  0
VERTEX
  8
0
 10
6.5
 20
7.0
 30
0.0
  0
SEQEND
  0
POLYLINE
  8
0
  6
LINETYPE_1
 66
     1
 10
0.0
 20
0.0
 30
0.0
  0
VERTEX
  8
0
 10
7.0
 20
7.25
 30
0.0
  0
VERTEX
  8
0
 10
7.0
 20
7.0
 30
0.0
  0
SEQEND
  0
POLYLINE
  8
0
  6
LINETYPE_3
 66
     1
 10
0.0
 20
0.0
 30
0.0
  0
VERTEX
  8
0
 10
2.5
 20
7.25
 30
0.0
  0
VERTEX
  8
0
 10
2.5
 20
7.0
 30
0.0
  0
SEQEND
  0
POLYLINE
  8
0
  6
LINETYPE_3
 66
     1
 10
0.0
 20
0.0
 30
0.0
  0
VERTEX
  8
0
 10
5.0
 20
7.25
 30
0.0
  0
VERTEX
  8
0
 10
5.0
 20
7.0
 30
0.0
  0
SEQEND
  0
POLYLINE
  8
2
  6
LINETYPE_11
 40
0.009
 41
0.009
 66
     1
 10
0.0
 20
0.0
 30
0.0
  0
VERTEX
  8
2
 10
7.562
 20
3.0
 30
0.0
  0
VERTEX
  8
2
 10
8.125
 20
3.0
 30
0.0
  0
SEQEND
  0
POLYLINE
  8
2
  6
LINETYPE_11
 40
0.009
 41
0.009
 66
     1
 10
0.0
 20
0.0
 30
0.0
  0
VERTEX
  8
2
 10
5.062
 20
3.5
 30
0.0
  0
VERTEX
  8
2
 10
8.125
 20
3.5
 30
0.0
  0
SEQEND
  0
POLYLINE
  8
2
  6
LINETYPE_11
 40
0.009
 41
0.009
 66
     1
 10
0.0
 20
0.0
 30
0.0
  0
VERTEX
  8
2
 10
8.0
 20
2.75
 30
0.0
  0
VERTEX
  8
2
 10
8.0
 20
3.0
 30
0.0
  0
SEQEND
  0
POLYLINE
  8
2
  6
LINETYPE_11
 40
0.009
 41
0.009
 66
     1
 10
0.0
 20
0.0
 30
0.0
  0
VERTEX
  8
2
 10
8.0
 20
3.0
 30
0.0
  0
VERTEX
  8
2
 10
7.975
 20
2.875
 30
0.0
  0
SEQEND
  0
POLYLINE
  8
2
  6
LINETYPE_11
 40
0.009
 41
0.009
 66
     1
 10
0.0
 20
0.0
 30
0.0
  0
VERTEX
  8
2
 10
7.975
 20
2.875
 30
0.0
  0
VERTEX
  8
2
 10
8.025
 20
2.875
 30
0.0
  0
SEQEND
  0
POLYLINE
  8
2
  6
LINETYPE_11
 40
0.009
 41
0.009
 66
     1
 10
0.0
 20
0.0
 30
0.0
  0
VERTEX
  8
2
 10
8.025
 20
2.875
 30
0.0
  0
VERTEX
  8
2
 10
8.0
 20
3.0
 30
0.0
  0
SEQEND
  0
POLYLINE
  8
2
  6
LINETYPE_11
 40
0.009
 41
0.009
 66
     1
 10
0.0
 20
0.0
 30
0.0
  0
VERTEX
  8
2
 10
8.0
 20
3.0
 30
0.0
  0
VERTEX
  8
2
 10
8.0
 20
2.98
 30
0.0
  0
SEQEND
  0
POLYLINE
  8
2
  6
LINETYPE_11
 40
0.009
 41
0.009
 66
     1
 10
0.0
 20
0.0
 30
0.0
  0
VERTEX
  8
2
 10
8.0
 20
2.98
 30
0.0
  0
VERTEX
  8
2
 10
7.98
 20
2.88
 30
0.0
  0
SEQEND
  0
POLYLINE
  8
2
  6
LINETYPE_11
 40
0.009
 41
0.009
 66
     1
 10
0.0
 20
0.0
 30
0.0
  0
VERTEX
  8
2
 10
7.98
 20
2.88
 30
0.0
  0
VERTEX
  8
2
 10
8.02
 20
2.88
 30
0.0
  0
SEQEND
  0
POLYLINE
  8
2
  6
LINETYPE_11
 40
0.009
 41
0.009
 66
     1
 10
0.0
 20
0.0
 30
0.0
  0
VERTEX
  8
2
 10
8.02
 20
2.88
 30
0.0
  0
VERTEX
  8
2
 10
8.0
 20
2.98
 30
0.0
  0
SEQEND
  0
POLYLINE
  8
2
  6
LINETYPE_11
 40
0.009
 41
0.009
 66
     1
 10
0.0
 20
0.0
 30
0.0
  0
VERTEX
  8
2
 10
8.0
 20
2.98
 30
0.0
  0
VERTEX
  8
2
 10
8.0
 20
2.96
 30
0.0
  0
SEQEND
  0
POLYLINE
  8
2
  6
LINETYPE_11
 40
0.009
 41
0.009
 66
     1
 10
0.0
 20
0.0
 30
0.0
  0
VERTEX
  8
2
 10
8.0
 20
2.96
 30
0.0
  0
VERTEX
  8
2
 10
7.985
 20
2.885
 30
0.0
  0
SEQEND
  0
POLYLINE
  8
2
  6
LINETYPE_11
 40
0.009
 41
0.009
 66
     1
 10
0.0
 20
0.0
 30
0.0
  0
VERTEX
  8
2
 10
7.985
 20
2.885
 30
0.0
  0
VERTEX
  8
2
 10
8.015
 20
2.885
 30
0.0
  0
SEQEND
  0
POLYLINE
  8
2
  6
LINETYPE_11
 40
0.009
 41
0.009
 66
     1
 10
0.0
 20
0.0
 30
0.0
  0
VERTEX
  8
2
 10
8.015
 20
2.885
 30
0.0
  0
VERTEX
  8
2
 10
8.0
 20
2.955
 30
0.0
  0
SEQEND
  0
POLYLINE
  8
2
  6
LINETYPE_11
 40
0.009
 41
0.009
 66
     1
 10
0.0
 20
0.0
 30
0.0
  0
VERTEX
  8
2
 10
8.0
 20
2.955
 30
0.0
  0
VERTEX
  8
2
 10
8.0
 20
2.94
 30
0.0
  0
SEQEND
  0
POLYLINE
  8
2
  6
LINETYPE_11
 40
0.009
 41
0.009
 66
     1
 10
0.0
 20
0.0
 30
0.0
  0
VERTEX
  8
2
 10
8.0
 20
2.94
 30
0.0
  0
VERTEX
  8
2
 10
7.99
 20
2.89
 30
0.0
  0
SEQEND
  0
POLYLINE
  8
2
  6
LINETYPE_11
 40
0.009
 41
0.009
 66
     1
 10
0.0
 20
0.0
 30
0.0
  0
VERTEX
  8
2
 10
7.99
 20
2.89
 30
0.0
  0
VERTEX
  8
2
 10
8.01
 20
2.89
 30
0.0
  0
SEQEND
  0
POLYLINE
  8
2
  6
LINETYPE_11
 40
0.009
 41
0.009
 66
     1
 10
0.0
 20
0.0
 30
0.0
  0
VERTEX
  8
2
 10
8.01
 20
2.89
 30
0.0
  0
VERTEX
  8
2
 10
8.0
 20
2.935
 30
0.0
  0
SEQEND
  0
POLYLINE
  8
2
  6
LINETYPE_11
 40
0.009
 41
0.009
 66
     1
 10
0.0
 20
0.0
 30
0.0
  0
VERTEX
  8
2
 10
8.0
 20
2.935
 30
0.0
  0
VERTEX
  8
2
 10
8.0
 20
2.915
 30
0.0
  0
SEQEND
  0
POLYLINE
  8
2
  6
LINETYPE_11
 40
0.009
 41
0.009
 66
     1
 10
0.0
 20
0.0
 30
0.0
  0
VERTEX
  8
2
 10
8.0
 20
2.915
 30
0.0
  0
VERTEX
  8
2
 10
7.995
 20
2.895
 30
0.0
  0
SEQEND
  0
POLYLINE
  8
2
  6
LINETYPE_11
 40
0.009
 41
0.009
 66
     1
 10
0.0
 20
0.0
 30
0.0
  0
VERTEX
  8
2
 10
7.995
 20
2.895
 30
0.0
  0
VERTEX
  8
2
 10
8.005
 20
2.895
 30
0.0
  0
SEQEND
  0
POLYLINE
  8
2
  6
LINETYPE_11
 40
0.009
 41
0.009
 66
     1
 10
0.0
 20
0.0
 30
0.0
  0
VERTEX
  8
2
 10
8.005
 20
2.895
 30
0.0
  0
VERTEX
  8
2
 10
8.0
 20
2.915
 30
0.0
  0
SEQEND
  0
POLYLINE
  8
2
  6
LINETYPE_11
 40
0.009
 41
0.009
 66
     1
 10
0.0
 20
0.0
 30
0.0
  0
VERTEX
  8
2
 10
8.0
 20
3.75
 30
0.0
  0
VERTEX
  8
2
 10
8.0
 20
3.5
 30
0.0
  0
SEQEND
  0
POLYLINE
  8
2
  6
LINETYPE_11
 40
0.009
 41
0.009
 66
     1
 10
0.0
 20
0.0
 30
0.0
  0
VERTEX
  8
2
 10
8.0
 20
3.5
 30
0.0
  0
VERTEX
  8
2
 10
8.025
 20
3.625
 30
0.0
  0
SEQEND
  0
POLYLINE
  8
2
  6
LINETYPE_11
 40
0.009
 41
0.009
 66
     1
 10
0.0
 20
0.0
 30
0.0
  0
VERTEX
  8
2
 10
8.025
 20
3.625
 30
0.0
  0
VERTEX
  8
2
 10
7.975
 20
3.625
 30
0.0
  0
SEQEND
  0
POLYLINE
  8
2
  6
LINETYPE_11
 40
0.009
 41
0.009
 66
     1
 10
0.0
 20
0.0
 30
0.0
  0
VERTEX
  8
2
 10
7.975
 20
3.625
 30
0.0
  0
VERTEX
  8
2
 10
8.0
 20
3.5
 30
0.0
  0
SEQEND
  0
POLYLINE
  8
2
  6
LINETYPE_11
 40
0.009
 41
0.009
 66
     1
 10
0.0
 20
0.0
 30
0.0
  0
VERTEX
  8
2
 10
8.0
 20
3.5
 30
0.0
  0
VERTEX
  8
2
 10
8.0
 20
3.52
 30
0.0
  0
SEQEND
  0
POLYLINE
  8
2
  6
LINETYPE_11
 40
0.009
 41
0.009
 66
     1
 10
0.0
 20
0.0
 30
0.0
  0
VERTEX
  8
2
 10
8.0
 20
3.52
 30
0.0
  0
VERTEX
  8
2
 10
8.02
 20
3.62
 30
0.0
  0
SEQEND
  0
POLYLINE
  8
2
  6
LINETYPE_11
 40
0.009
 41
0.009
 66
     1
 10
0.0
 20
0.0
 30
0.0
  0
VERTEX
  8
2
 10
8.02
 20
3.62
 30
0.0
  0
VERTEX
  8
2
 10
7.98
 20
3.62
 30
0.0
  0
SEQEND
  0
POLYLINE
  8
2
  6
LINETYPE_11
 40
0.009
 41
0.009
 66
     1
 10
0.0
 20
0.0
 30
0.0
  0
VERTEX
  8
2
 10
7.98
 20
3.62
 30
0.0
  0
VERTEX
  8
2
 10
8.0
 20
3.52
 30
0.0
  0
SEQEND
  0
POLYLINE
  8
2
  6
LINETYPE_11
 40
0.009
 41
0.009
 66
     1
 10
0.0
 20
0.0
 30
0.0
  0
VERTEX
  8
2
 10
8.0
 20
3.52
 30
0.0
  0
VERTEX
  8
2
 10
8.0
 20
3.54
 30
0.0
  0
SEQEND
  0
POLYLINE
  8
2
  6
LINETYPE_11
 40
0.009
 41
0.009
 66
     1
 10
0.0
 20
0.0
 30
0.0
  0
VERTEX
  8
2
 10
8.0
 20
3.54
 30
0.0
  0
VERTEX
  8
2
 10
8.015
 20
3.615
 30
0.0
  0
SEQEND
  0
POLYLINE
  8
2
  6
LINETYPE_11
 40
0.009
 41
0.009
 66
     1
 10
0.0
 20
0.0
 30
0.0
  0
VERTEX
  8
2
 10
8.015
 20
3.615
 30
0.0
  0
VERTEX
  8
2
 10
7.985
 20
3.615
 30
0.0
  0
SEQEND
  0
POLYLINE
  8
2
  6
LINETYPE_11
 40
0.009
 41
0.009
 66
     1
 10
0.0
 20
0.0
 30
0.0
  0
VERTEX
  8
2
 10
7.985
 20
3.615
 30
0.0
  0
VERTEX
  8
2
 10
8.0
 20
3.545
 30
0.0
  0
SEQEND
  0
POLYLINE
  8
2
  6
LINETYPE_11
 40
0.009
 41
0.009
 66
     1
 10
0.0
 20
0.0
 30
0.0
  0
VERTEX
  8
2
 10
8.0
 20
3.545
 30
0.0
  0
VERTEX
  8
2
 10
8.0
 20
3.56
 30
0.0
  0
SEQEND
  0
POLYLINE
  8
2
  6
LINETYPE_11
 40
0.009
 41
0.009
 66
     1
 10
0.0
 20
0.0
 30
0.0
  0
VERTEX
  8
2
 10
8.0
 20
3.56
 30
0.0
  0
VERTEX
  8
2
 10
8.01
 20
3.61
 30
0.0
  0
SEQEND
  0
POLYLINE
  8
2
  6
LINETYPE_11
 40
0.009
 41
0.009
 66
     1
 10
0.0
 20
0.0
 30
0.0
  0
VERTEX
  8
2
 10
8.01
 20
3.61
 30
0.0
  0
VERTEX
  8
2
 10
7.99
 20
3.61
 30
0.0
  0
SEQEND
  0
POLYLINE
  8
2
  6
LINETYPE_11
 40
0.009
 41
0.009
 66
     1
 10
0.0
 20
0.0
 30
0.0
  0
VERTEX
  8
2
 10
7.99
 20
3.61
 30
0.0
  0
VERTEX
  8
2
 10
8.0
 20
3.565
 30
0.0
  0
SEQEND
  0
POLYLINE
  8
2
  6
LINETYPE_11
 40
0.009
 41
0.009
 66
     1
 10
0.0
 20
0.0
 30
0.0
  0
VERTEX
  8
2
 10
8.0
 20
3.565
 30
0.0
  0
VERTEX
  8
2
 10
8.0
 20
3.585
 30
0.0
  0
SEQEND
  0
POLYLINE
  8
2
  6
LINETYPE_11
 40
0.009
 41
0.009
 66
     1
 10
0.0
 20
0.0
 30
0.0
  0
VERTEX
  8
2
 10
8.0
 20
3.585
 30
0.0
  0
VERTEX
  8
2
 10
8.005
 20
3.605
 30
0.0
  0
SEQEND
  0
POLYLINE
  8
2
  6
LINETYPE_11
 40
0.009
 41
0.009
 66
     1
 10
0.0
 20
0.0
 30
0.0
  0
VERTEX
  8
2
 10
8.005
 20
3.605
 30
0.0
  0
VERTEX
  8
2
 10
7.995
 20
3.605
 30
0.0
  0
SEQEND
  0
POLYLINE
  8
2
  6
LINETYPE_11
 40
0.009
 41
0.009
 66
     1
 10
0.0
 20
0.0
 30
0.0
  0
VERTEX
  8
2
 10
7.995
 20
3.605
 30
0.0
  0
VERTEX
  8
2
 10
8.0
 20
3.585
 30
0.0
  0
SEQEND
  0
TEXT
  8
2
 10
7.8526
 20
2.563
 30
0.0
 40
0.125
  1
.50
 50
0.000000
  0
POLYLINE
  8
2
  6
LINETYPE_11
 40
0.009
 41
0.009
 66
     1
 10
0.0
 20
0.0
 30
0.0
  0
VERTEX
  8
2
 10
7.562
 20
3.0
 30
0.0
  0
VERTEX
  8
2
 10
9.625
 20
3.0
 30
0.0
  0
SEQEND
  0
POLYLINE
  8
2
  6
LINETYPE_11
 40
0.009
 41
0.009
 66
     1
 10
0.0
 20
0.0
 30
0.0
  0
VERTEX
  8
2
 10
7.562
 20
4.5
 30
0.0
  0
VERTEX
  8
2
 10
9.625
 20
4.5
 30
0.0
  0
SEQEND
  0
POLYLINE
  8
2
  6
LINETYPE_11
 40
0.009
 41
0.009
 66
     1
 10
0.0
 20
0.0
 30
0.0
  0
VERTEX
  8
2
 10
9.5
 20
3.8755
 30
0.0
  0
VERTEX
  8
2
 10
9.5
 20
3.0
 30
0.0
  0
SEQEND
  0
POLYLINE
  8
2
  6
LINETYPE_11
 40
0.009
 41
0.009
 66
     1
 10
0.0
 20
0.0
 30
0.0
  0
VERTEX
  8
2
 10
9.5
 20
3.0
 30
0.0
  0
VERTEX
  8
2
 10
9.525
 20
3.125
 30
0.0
  0
SEQEND
  0
POLYLINE
  8
2
  6
LINETYPE_11
 40
0.009
 41
0.009
 66
     1
 10
0.0
 20
0.0
 30
0.0
  0
VERTEX
  8
2
 10
9.525
 20
3.125
 30
0.0
  0
VERTEX
  8
2
 10
9.475
 20
3.125
 30
0.0
  0
SEQEND
  0
POLYLINE
  8
2
  6
LINETYPE_11
 40
0.009
 41
0.009
 66
     1
 10
0.0
 20
0.0
 30
0.0
  0
VERTEX
  8
2
 10
9.475
 20
3.125
 30
0.0
  0
VERTEX
  8
2
 10
9.5
 20
3.0
 30
0.0
  0
SEQEND
  0
POLYLINE
  8
2
  6
LINETYPE_11
 40
0.009
 41
0.009
 66
     1
 10
0.0
 20
0.0
 30
0.0
  0
VERTEX
  8
2
 10
9.5
 20
3.0
 30
0.0
  0
VERTEX
  8
2
 10
9.5
 20
3.02
 30
0.0
  0
SEQEND
  0
POLYLINE
  8
2
  6
LINETYPE_11
 40
0.009
 41
0.009
 66
     1
 10
0.0
 20
0.0
 30
0.0
  0
VERTEX
  8
2
 10
9.5
 20
3.02
 30
0.0
  0
VERTEX
  8
2
 10
9.52
 20
3.12
 30
0.0
  0
SEQEND
  0
POLYLINE
  8
2
  6
LINETYPE_11
 40
0.009
 41
0.009
 66
     1
 10
0.0
 20
0.0
 30
0.0
  0
VERTEX
  8
2
 10
9.52
 20
3.12
 30
0.0
  0
VERTEX
  8
2
 10
9.48
 20
3.12
 30
0.0
  0
SEQEND
  0
POLYLINE
  8
2
  6
LINETYPE_11
 40
0.009
 41
0.009
 66
     1
 10
0.0
 20
0.0
 30
0.0
  0
VERTEX
  8
2
 10
9.48
 20
3.12
 30
0.0
  0
VERTEX
  8
2
 10
9.5
 20
3.02
 30
0.0
  0
SEQEND
  0
POLYLINE
  8
2
  6
LINETYPE_11
 40
0.009
 41
0.009
 66
     1
 10
0.0
 20
0.0
 30
0.0
  0
VERTEX
  8
2
 10
9.5
 20
3.02
 30
0.0
  0
VERTEX
  8
2
 10
9.5
 20
3.04
 30
0.0
  0
SEQEND
  0
POLYLINE
  8
2
  6
LINETYPE_11
 40
0.009
 41
0.009
 66
     1
 10
0.0
 20
0.0
 30
0.0
  0
VERTEX
  8
2
 10
9.5
 20
3.04
 30
0.0
  0
VERTEX
  8
2
 10
9.515
 20
3.115
 30
0.0
  0
SEQEND
  0
POLYLINE
  8
2
  6
LINETYPE_11
 40
0.009
 41
0.009
 66
     1
 10
0.0
 20
0.0
 30
0.0
  0
VERTEX
  8
2
 10
9.515
 20
3.115
 30
0.0
  0
VERTEX
  8
2
 10
9.485
 20
3.115
 30
0.0
  0
SEQEND
  0
POLYLINE
  8
2
  6
LINETYPE_11
 40
0.009
 41
0.009
 66
     1
 10
0.0
 20
0.0
 30
0.0
  0
VERTEX
  8
2
 10
9.485
 20
3.115
 30
0.0
  0
VERTEX
  8
2
 10
9.5
 20
3.045
 30
0.0
  0
SEQEND
  0
POLYLINE
  8
2
  6
LINETYPE_11
 40
0.009
 41
0.009
 66
     1
 10
0.0
 20
0.0
 30
0.0
  0
VERTEX
  8
2
 10
9.5
 20
3.045
 30
0.0
  0
VERTEX
  8
2
 10
9.5
 20
3.06
 30
0.0
  0
SEQEND
  0
POLYLINE
  8
2
  6
LINETYPE_11
 40
0.009
 41
0.009
 66
     1
 10
0.0
 20
0.0
 30
0.0
  0
VERTEX
  8
2
 10
9.5
 20
3.06
 30
0.0
  0
VERTEX
  8
2
 10
9.51
 20
3.11
 30
0.0
  0
SEQEND
  0
POLYLINE
  8
2
  6
LINETYPE_11
 40
0.009
 41
0.009
 66
     1
 10
0.0
 20
0.0
 30
0.0
  0
VERTEX
  8
2
 10
9.51
 20
3.11
 30
0.0
  0
VERTEX
  8
2
 10
9.49
 20
3.11
 30
0.0
  0
SEQEND
  0
POLYLINE
  8
2
  6
LINETYPE_11
 40
0.009
 41
0.009
 66
     1
 10
0.0
 20
0.0
 30
0.0
  0
VERTEX
  8
2
 10
9.49
 20
3.11
 30
0.0
  0
VERTEX
  8
2
 10
9.5
 20
3.065
 30
0.0
  0
SEQEND
  0
POLYLINE
  8
2
  6
LINETYPE_11
 40
0.009
 41
0.009
 66
     1
 10
0.0
 20
0.0
 30
0.0
  0
VERTEX
  8
2
 10
9.5
 20
3.065
 30
0.0
  0
VERTEX
  8
2
 10
9.5
 20
3.085
 30
0.0
  0
SEQEND
  0
POLYLINE
  8
2
  6
LINETYPE_11
 40
0.009
 41
0.009
 66
     1
 10
0.0
 20
0.0
 30
0.0
  0
VERTEX
  8
2
 10
9.5
 20
3.085
 30
0.0
  0
VERTEX
  8
2
 10
9.505
 20
3.105
 30
0.0
  0
SEQEND
  0
POLYLINE
  8
2
  6
LINETYPE_11
 40
0.009
 41
0.009
 66
     1
 10
0.0
 20
0.0
 30
0.0
  0
VERTEX
  8
2
 10
9.505
 20
3.105
 30
0.0
  0
VERTEX
  8
2
 10
9.495
 20
3.105
 30
0.0
  0
SEQEND
  0
POLYLINE
  8
2
  6
LINETYPE_11
 40
0.009
 41
0.009
 66
     1
 10
0.0
 20
0.0
 30
0.0
  0
VERTEX
  8
2
 10
9.495
 20
3.105
 30
0.0
  0
VERTEX
  8
2
 10
9.5
 20
3.085
 30
0.0
  0
SEQEND
  0
POLYLINE
  8
2
  6
LINETYPE_11
 40
0.009
 41
0.009
 66
     1
 10
0.0
 20
0.0
 30
0.0
  0
VERTEX
  8
2
 10
9.5
 20
4.1245
 30
0.0
  0
VERTEX
  8
2
 10
9.5
 20
4.5
 30
0.0
  0
SEQEND
  0
POLYLINE
  8
2
  6
LINETYPE_11
 40
0.009
 41
0.009
 66
     1
 10
0.0
 20
0.0
 30
0.0
  0
VERTEX
  8
2
 10
9.5
 20
4.5
 30
0.0
  0
VERTEX
  8
2
 10
9.475
 20
4.375
 30
0.0
  0
SEQEND
  0
POLYLINE
  8
2
  6
LINETYPE_11
 40
0.009
 41
0.009
 66
     1
 10
0.0
 20
0.0
 30
0.0
  0
VERTEX
  8
2
 10
9.475
 20
4.375
 30
0.0
  0
VERTEX
  8
2
 10
9.525
 20
4.375
 30
0.0
  0
SEQEND
  0
POLYLINE
  8
2
  6
LINETYPE_11
 40
0.009
 41
0.009
 66
     1
 10
0.0
 20
0.0
 30
0.0
  0
VERTEX
  8
2
 10
9.525
 20
4.375
 30
0.0
  0
VERTEX
  8
2
 10
9.5
 20
4.5
 30
0.0
  0
SEQEND
  0
POLYLINE
  8
2
  6
LINETYPE_11
 40
0.009
 41
0.009
 66
     1
 10
0.0
 20
0.0
 30
0.0
  0
VERTEX
  8
2
 10
9.5
 20
4.5
 30
0.0
  0
VERTEX
  8
2
 10
9.5
 20
4.48
 30
0.0
  0
SEQEND
  0
POLYLINE
  8
2
  6
LINETYPE_11
 40
0.009
 41
0.009
 66
     1
 10
0.0
 20
0.0
 30
0.0
  0
VERTEX
  8
2
 10
9.5
 20
4.48
 30
0.0
  0
VERTEX
  8
2
 10
9.48
 20
4.38
 30
0.0
  0
SEQEND
  0
POLYLINE
  8
2
  6
LINETYPE_11
 40
0.009
 41
0.009
 66
     1
 10
0.0
 20
0.0
 30
0.0
  0
VERTEX
  8
2
 10
9.48
 20
4.38
 30
0.0
  0
VERTEX
  8
2
 10
9.52
 20
4.38
 30
0.0
  0
SEQEND
  0
POLYLINE
  8
2
  6
LINETYPE_11
 40
0.009
 41
0.009
 66
     1
 10
0.0
 20
0.0
 30
0.0
  0
VERTEX
  8
2
 10
9.52
 20
4.38
 30
0.0
  0
VERTEX
  8
2
 10
9.5
 20
4.48
 30
0.0
  0
SEQEND
  0
POLYLINE
  8
2
  6
LINETYPE_11
 40
0.009
 41
0.009
 66
     1
 10
0.0
 20
0.0
 30
0.0
  0
VERTEX
  8
2
 10
9.5
 20
4.48
 30
0.0
  0
VERTEX
  8
2
 10
9.5
 20
4.46
 30
0.0
  0
SEQEND
  0
POLYLINE
  8
2
  6
LINETYPE_11
 40
0.009
 41
0.009
 66
     1
 10
0.0
 20
0.0
 30
0.0
  0
VERTEX
  8
2
 10
9.5
 20
4.46
 30
0.0
  0
VERTEX
  8
2
 10
9.485
 20
4.385
 30
0.0
  0
SEQEND
  0
POLYLINE
  8
2
  6
LINETYPE_11
 40
0.009
 41
0.009
 66
     1
 10
0.0
 20
0.0
 30
0.0
  0
VERTEX
  8
2
 10
9.485
 20
4.385
 30
0.0
  0
VERTEX
  8
2
 10
9.515
 20
4.385
 30
0.0
  0
SEQEND
  0
POLYLINE
  8
2
  6
LINETYPE_11
 40
0.009
 41
0.009
 66
     1
 10
0.0
 20
0.0
 30
0.0
  0
VERTEX
  8
2
 10
9.515
 20
4.385
 30
0.0
  0
VERTEX
  8
2
 10
9.5
 20
4.455
 30
0.0
  0
SEQEND
  0
POLYLINE
  8
2
  6
LINETYPE_11
 40
0.009
 41
0.009
 66
     1
 10
0.0
 20
0.0
 30
0.0
  0
VERTEX
  8
2
 10
9.5
 20
4.455
 30
0.0
  0
VERTEX
  8
2
 10
9.5
 20
4.44
 30
0.0
  0
SEQEND
  0
POLYLINE
  8
2
  6
LINETYPE_11
 40
0.009
 41
0.009
 66
     1
 10
0.0
 20
0.0
 30
0.0
  0
VERTEX
  8
2
 10
9.5
 20
4.44
 30
0.0
  0
VERTEX
  8
2
 10
9.49
 20
4.39
 30
0.0
  0
SEQEND
  0
POLYLINE
  8
2
  6
LINETYPE_11
 40
0.009
 41
0.009
 66
     1
 10
0.0
 20
0.0
 30
0.0
  0
VERTEX
  8
2
 10
9.49
 20
4.39
 30
0.0
  0
VERTEX
  8
2
 10
9.51
 20
4.39
 30
0.0
  0
SEQEND
  0
POLYLINE
  8
2
  6
LINETYPE_11
 40
0.009
 41
0.009
 66
     1
 10
0.0
 20
0.0
 30
0.0
  0
VERTEX
  8
2
 10
9.51
 20
4.39
 30
0.0
  0
VERTEX
  8
2
 10
9.5
 20
4.435
 30
0.0
  0
SEQEND
  0
POLYLINE
  8
2
  6
LINETYPE_11
 40
0.009
 41
0.009
 66
     1
 10
0.0
 20
0.0
 30
0.0
  0
VERTEX
  8
2
 10
9.5
 20
4.435
 30
0.0
  0
VERTEX
  8
2
 10
9.5
 20
4.415
 30
0.0
  0
SEQEND
  0
POLYLINE
  8
2
  6
LINETYPE_11
 40
0.009
 41
0.009
 66
     1
 10
0.0
 20
0.0
 30
0.0
  0
VERTEX
  8
2
 10
9.5
 20
4.415
 30
0.0
  0
VERTEX
  8
2
 10
9.495
 20
4.395
 30
0.0
  0
SEQEND
  0
POLYLINE
  8
2
  6
LINETYPE_11
 40
0.009
 41
0.009
 66
     1
 10
0.0
 20
0.0
 30
0.0
  0
VERTEX
  8
2
 10
9.495
 20
4.395
 30
0.0
  0
VERTEX
  8
2
 10
9.505
 20
4.395
 30
0.0
  0
SEQEND
  0
POLYLINE
  8
2
  6
LINETYPE_11
 40
0.009
 41
0.009
 66
     1
 10
0.0
 20
0.0
 30
0.0
  0
VERTEX
  8
2
 10
9.505
 20
4.395
 30
0.0
  0
VERTEX
  8
2
 10
9.5
 20
4.415
 30
0.0
  0
SEQEND
  0
TEXT
  8
2
 10
9.2901
 20
3.9375
 30
0.0
 40
0.125
  1
1.50
 50
0.000000
  0
POLYLINE
  8
2
  6
LINETYPE_11
 40
0.009
 41
0.009
 66
     1
 10
0.0
 20
0.0
 30
0.0
  0
VERTEX
  8
2
 10
1.5
 20
4.062
 30
0.0
  0
VERTEX
  8
2
 10
1.5
 20
5.3942
 30
0.0
  0
SEQEND
  0
POLYLINE
  8
2
  6
LINETYPE_11
 40
0.009
 41
0.009
 66
     1
 10
0.0
 20
0.0
 30
0.0
  0
VERTEX
  8
2
 10
4.0
 20
4.562
 30
0.0
  0
VERTEX
  8
2
 10
4.0
 20
5.3942
 30
0.0
  0
SEQEND
  0
POLYLINE
  8
2
  6
LINETYPE_11
 40
0.009
 41
0.009
 66
     1
 10
0.0
 20
0.0
 30
0.0
  0
VERTEX
  8
2
 10
2.5513
 20
5.2692
 30
0.0
  0
VERTEX
  8
2
 10
1.5
 20
5.2692
 30
0.0
  0
SEQEND
  0
POLYLINE
  8
2
  6
LINETYPE_11
 40
0.009
 41
0.009
 66
     1
 10
0.0
 20
0.0
 30
0.0
  0
VERTEX
  8
2
 10
1.5
 20
5.2692
 30
0.0
  0
VERTEX
  8
2
 10
1.625
 20
5.2442
 30
0.0
  0
SEQEND
  0
POLYLINE
  8
2
  6
LINETYPE_11
 40
0.009
 41
0.009
 66
     1
 10
0.0
 20
0.0
 30
0.0
  0
VERTEX
  8
2
 10
1.625
 20
5.2442
 30
0.0
  0
VERTEX
  8
2
 10
1.625
 20
5.2942
 30
0.0
  0
SEQEND
  0
POLYLINE
  8
2
  6
LINETYPE_11
 40
0.009
 41
0.009
 66
     1
 10
0.0
 20
0.0
 30
0.0
  0
VERTEX
  8
2
 10
1.625
 20
5.2942
 30
0.0
  0
VERTEX
  8
2
 10
1.5
 20
5.2692
 30
0.0
  0
SEQEND
  0
POLYLINE
  8
2
  6
LINETYPE_11
 40
0.009
 41
0.009
 66
     1
 10
0.0
 20
0.0
 30
0.0
  0
VERTEX
  8
2
 10
1.5
 20
5.2692
 30
0.0
  0
VERTEX
  8
2
 10
1.52
 20
5.2692
 30
0.0
  0
SEQEND
  0
POLYLINE
  8
2
  6
LINETYPE_11
 40
0.009
 41
0.009
 66
     1
 10
0.0
 20
0.0
 30
0.0
  0
VERTEX
  8
2
 10
1.52
 20
5.2692
 30
0.0
  0
VERTEX
  8
2
 10
1.62
 20
5.2492
 30
0.0
  0
SEQEND
  0
POLYLINE
  8
2
  6
LINETYPE_11
 40
0.009
 41
0.009
 66
     1
 10
0.0
 20
0.0
 30
0.0
  0
VERTEX
  8
2
 10
1.62
 20
5.2492
 30
0.0
  0
VERTEX
  8
2
 10
1.62
 20
5.2892
 30
0.0
  0
SEQEND
  0
POLYLINE
  8
2
  6
LINETYPE_11
 40
0.009
 41
0.009
 66
     1
 10
0.0
 20
0.0
 30
0.0
  0
VERTEX
  8
2
 10
1.62
 20
5.2892
 30
0.0
  0
VERTEX
  8
2
 10
1.52
 20
5.2692
 30
0.0
  0
SEQEND
  0
POLYLINE
  8
2
  6
LINETYPE_11
 40
0.009
 41
0.009
 66
     1
 10
0.0
 20
0.0
 30
0.0
  0
VERTEX
  8
2
 10
1.52
 20
5.2692
 30
0.0
  0
VERTEX
  8
2
 10
1.54
 20
5.2692
 30
0.0
  0
SEQEND
  0
POLYLINE
  8
2
  6
LINETYPE_11
 40
0.009
 41
0.009
 66
     1
 10
0.0
 20
0.0
 30
0.0
  0
VERTEX
  8
2
 10
1.54
 20
5.2692
 30
0.0
  0
VERTEX
  8
2
 10
1.615
 20
5.2542
 30
0.0
  0
SEQEND
  0
POLYLINE
  8
2
  6
LINETYPE_11
 40
0.009
 41
0.009
 66
     1
 10
0.0
 20
0.0
 30
0.0
  0
VERTEX
  8
2
 10
1.615
 20
5.2542
 30
0.0
  0
VERTEX
  8
2
 10
1.615
 20
5.2842
 30
0.0
  0
SEQEND
  0
POLYLINE
  8
2
  6
LINETYPE_11
 40
0.009
 41
0.009
 66
     1
 10
0.0
 20
0.0
 30
0.0
  0
VERTEX
  8
2
 10
1.615
 20
5.2842
 30
0.0
  0
VERTEX
  8
2
 10
1.545
 20
5.2692
 30
0.0
  0
SEQEND
  0
POLYLINE
  8
2
  6
LINETYPE_11
 40
0.009
 41
0.009
 66
     1
 10
0.0
 20
0.0
 30
0.0
  0
VERTEX
  8
2
 10
1.545
 20
5.2692
 30
0.0
  0
VERTEX
  8
2
 10
1.56
 20
5.2692
 30
0.0
  0
SEQEND
  0
POLYLINE
  8
2
  6
LINETYPE_11
 40
0.009
 41
0.009
 66
     1
 10
0.0
 20
0.0
 30
0.0
  0
VERTEX
  8
2
 10
1.56
 20
5.2692
 30
0.0
  0
VERTEX
  8
2
 10
1.61
 20
5.2592
 30
0.0
  0
SEQEND
  0
POLYLINE
  8
2
  6
LINETYPE_11
 40
0.009
 41
0.009
 66
     1
 10
0.0
 20
0.0
 30
0.0
  0
VERTEX
  8
2
 10
1.61
 20
5.2592
 30
0.0
  0
VERTEX
  8
2
 10
1.61
 20
5.2792
 30
0.0
  0
SEQEND
  0
POLYLINE
  8
2
  6
LINETYPE_11
 40
0.009
 41
0.009
 66
     1
 10
0.0
 20
0.0
 30
0.0
  0
VERTEX
  8
2
 10
1.61
 20
5.2792
 30
0.0
  0
VERTEX
  8
2
 10
1.565
 20
5.2692
 30
0.0
  0
SEQEND
  0
POLYLINE
  8
2
  6
LINETYPE_11
 40
0.009
 41
0.009
 66
     1
 10
0.0
 20
0.0
 30
0.0
  0
VERTEX
  8
2
 10
1.565
 20
5.2692
 30
0.0
  0
VERTEX
  8
2
 10
1.585
 20
5.2692
 30
0.0
  0
SEQEND
  0
POLYLINE
  8
2
  6
LINETYPE_11
 40
0.009
 41
0.009
 66
     1
 10
0.0
 20
0.0
 30
0.0
  0
VERTEX
  8
2
 10
1.585
 20
5.2692
 30
0.0
  0
VERTEX
  8
2
 10
1.605
 20
5.2642
 30
0.0
  0
SEQEND
  0
POLYLINE
  8
2
  6
LINETYPE_11
 40
0.009
 41
0.009
 66
     1
 10
0.0
 20
0.0
 30
0.0
  0
VERTEX
  8
2
 10
1.605
 20
5.2642
 30
0.0
  0
VERTEX
  8
2
 10
1.605
 20
5.2742
 30
0.0
  0
SEQEND
  0
POLYLINE
  8
2
  6
LINETYPE_11
 40
0.009
 41
0.009
 66
     1
 10
0.0
 20
0.0
 30
0.0
  0
VERTEX
  8
2
 10
1.605
 20
5.2742
 30
0.0
  0
VERTEX
  8
2
 10
1.585
 20
5.2692
 30
0.0
  0
SEQEND
  0
POLYLINE
  8
2
  6
LINETYPE_11
 40
0.009
 41
0.009
 66
     1
 10
0.0
 20
0.0
 30
0.0
  0
VERTEX
  8
2
 10
3.0951
 20
5.2692
 30
0.0
  0
VERTEX
  8
2
 10
4.0
 20
5.2692
 30
0.0
  0
SEQEND
  0
POLYLINE
  8
2
  6
LINETYPE_11
 40
0.009
 41
0.009
 66
     1
 10
0.0
 20
0.0
 30
0.0
  0
VERTEX
  8
2
 10
4.0
 20
5.2692
 30
0.0
  0
VERTEX
  8
2
 10
3.875
 20
5.2942
 30
0.0
  0
SEQEND
  0
POLYLINE
  8
2
  6
LINETYPE_11
 40
0.009
 41
0.009
 66
     1
 10
0.0
 20
0.0
 30
0.0
  0
VERTEX
  8
2
 10
3.875
 20
5.2942
 30
0.0
  0
VERTEX
  8
2
 10
3.875
 20
5.2442
 30
0.0
  0
SEQEND
  0
POLYLINE
  8
2
  6
LINETYPE_11
 40
0.009
 41
0.009
 66
     1
 10
0.0
 20
0.0
 30
0.0
  0
VERTEX
  8
2
 10
3.875
 20
5.2442
 30
0.0
  0
VERTEX
  8
2
 10
4.0
 20
5.2692
 30
0.0
  0
SEQEND
  0
POLYLINE
  8
2
  6
LINETYPE_11
 40
0.009
 41
0.009
 66
     1
 10
0.0
 20
0.0
 30
0.0
  0
VERTEX
  8
2
 10
4.0
 20
5.2692
 30
0.0
  0
VERTEX
  8
2
 10
3.98
 20
5.2692
 30
0.0
  0
SEQEND
  0
POLYLINE
  8
2
  6
LINETYPE_11
 40
0.009
 41
0.009
 66
     1
 10
0.0
 20
0.0
 30
0.0
  0
VERTEX
  8
2
 10
3.98
 20
5.2692
 30
0.0
  0
VERTEX
  8
2
 10
3.88
 20
5.2892
 30
0.0
  0
SEQEND
  0
POLYLINE
  8
2
  6
LINETYPE_11
 40
0.009
 41
0.009
 66
     1
 10
0.0
 20
0.0
 30
0.0
  0
VERTEX
  8
2
 10
3.88
 20
5.2892
 30
0.0
  0
VERTEX
  8
2
 10
3.88
 20
5.2492
 30
0.0
  0
SEQEND
  0
POLYLINE
  8
2
  6
LINETYPE_11
 40
0.009
 41
0.009
 66
     1
 10
0.0
 20
0.0
 30
0.0
  0
VERTEX
  8
2
 10
3.88
 20
5.2492
 30
0.0
  0
VERTEX
  8
2
 10
3.98
 20
5.2692
 30
0.0
  0
SEQEND
  0
POLYLINE
  8
2
  6
LINETYPE_11
 40
0.009
 41
0.009
 66
     1
 10
0.0
 20
0.0
 30
0.0
  0
VERTEX
  8
2
 10
3.98
 20
5.2692
 30
0.0
  0
VERTEX
  8
2
 10
3.96
 20
5.2692
 30
0.0
  0
SEQEND
  0
POLYLINE
  8
2
  6
LINETYPE_11
 40
0.009
 41
0.009
 66
     1
 10
0.0
 20
0.0
 30
0.0
  0
VERTEX
  8
2
 10
3.96
 20
5.2692
 30
0.0
  0
VERTEX
  8
2
 10
3.885
 20
5.2842
 30
0.0
  0
SEQEND
  0
POLYLINE
  8
2
  6
LINETYPE_11
 40
0.009
 41
0.009
 66
     1
 10
0.0
 20
0.0
 30
0.0
  0
VERTEX
  8
2
 10
3.885
 20
5.2842
 30
0.0
  0
VERTEX
  8
2
 10
3.885
 20
5.2542
 30
0.0
  0
SEQEND
  0
POLYLINE
  8
2
  6
LINETYPE_11
 40
0.009
 41
0.009
 66
     1
 10
0.0
 20
0.0
 30
0.0
  0
VERTEX
  8
2
 10
3.885
 20
5.2542
 30
0.0
  0
VERTEX
  8
2
 10
3.955
 20
5.2692
 30
0.0
  0
SEQEND
  0
POLYLINE
  8
2
  6
LINETYPE_11
 40
0.009
 41
0.009
 66
     1
 10
0.0
 20
0.0
 30
0.0
  0
VERTEX
  8
2
 10
3.955
 20
5.2692
 30
0.0
  0
VERTEX
  8
2
 10
3.94
 20
5.2692
 30
0.0
  0
SEQEND
  0
POLYLINE
  8
2
  6
LINETYPE_11
 40
0.009
 41
0.009
 66
     1
 10
0.0
 20
0.0
 30
0.0
  0
VERTEX
  8
2
 10
3.94
 20
5.2692
 30
0.0
  0
VERTEX
  8
2
 10
3.89
 20
5.2792
 30
0.0
  0
SEQEND
  0
POLYLINE
  8
2
  6
LINETYPE_11
 40
0.009
 41
0.009
 66
     1
 10
0.0
 20
0.0
 30
0.0
  0
VERTEX
  8
2
 10
3.89
 20
5.2792
 30
0.0
  0
VERTEX
  8
2
 10
3.89
 20
5.2592
 30
0.0
  0
SEQEND
  0
POLYLINE
  8
2
  6
LINETYPE_11
 40
0.009
 41
0.009
 66
     1
 10
0.0
 20
0.0
 30
0.0
  0
VERTEX
  8
2
 10
3.89
 20
5.2592
 30
0.0
  0
VERTEX
  8
2
 10
3.935
 20
5.2692
 30
0.0
  0
SEQEND
  0
POLYLINE
  8
2
  6
LINETYPE_11
 40
0.009
 41
0.009
 66
     1
 10
0.0
 20
0.0
 30
0.0
  0
VERTEX
  8
2
 10
3.935
 20
5.2692
 30
0.0
  0
VERTEX
  8
2
 10
3.915
 20
5.2692
 30
0.0
  0
SEQEND
  0
POLYLINE
  8
2
  6
LINETYPE_11
 40
0.009
 41
0.009
 66
     1
 10
0.0
 20
0.0
 30
0.0
  0
VERTEX
  8
2
 10
3.915
 20
5.2692
 30
0.0
  0
VERTEX
  8
2
 10
3.895
 20
5.2742
 30
0.0
  0
SEQEND
  0
POLYLINE
  8
2
  6
LINETYPE_11
 40
0.009
 41
0.009
 66
     1
 10
0.0
 20
0.0
 30
0.0
  0
VERTEX
  8
2
 10
3.895
 20
5.2742
 30
0.0
  0
VERTEX
  8
2
 10
3.895
 20
5.2642
 30
0.0
  0
SEQEND
  0
POLYLINE
  8
2
  6
LINETYPE_11
 40
0.009
 41
0.009
 66
     1
 10
0.0
 20
0.0
 30
0.0
  0
VERTEX
  8
2
 10
3.895
 20
5.2642
 30
0.0
  0
VERTEX
  8
2
 10
3.915
 20
5.2692
 30
0.0
  0
SEQEND
  0
TEXT
  8
2
 10
2.6133
 20
5.2067
 30
0.0
 40
0.125
  1
2.50
 50
0.000000
  0
POLYLINE
  8
2
  6
LINETYPE_11
 40
0.009
 41
0.009
 66
     1
 10
0.0
 20
0.0
 30
0.0
  0
VERTEX
  8
2
 10
1.5
 20
4.062
 30
0.0
  0
VERTEX
  8
2
 10
1.5
 20
5.7638
 30
0.0
  0
SEQEND
  0
POLYLINE
  8
2
  6
LINETYPE_11
 40
0.009
 41
0.009
 66
     1
 10
0.0
 20
0.0
 30
0.0
  0
VERTEX
  8
2
 10
4.5
 20
4.062
 30
0.0
  0
VERTEX
  8
2
 10
4.5
 20
5.7638
 30
0.0
  0
SEQEND
  0
POLYLINE
  8
2
  6
LINETYPE_11
 40
0.009
 41
0.009
 66
     1
 10
0.0
 20
0.0
 30
0.0
  0
VERTEX
  8
2
 10
2.9545
 20
5.6388
 30
0.0
  0
VERTEX
  8
2
 10
1.5
 20
5.6388
 30
0.0
  0
SEQEND
  0
POLYLINE
  8
2
  6
LINETYPE_11
 40
0.009
 41
0.009
 66
     1
 10
0.0
 20
0.0
 30
0.0
  0
VERTEX
  8
2
 10
1.5
 20
5.6388
 30
0.0
  0
VERTEX
  8
2
 10
1.625
 20
5.6138
 30
0.0
  0
SEQEND
  0
POLYLINE
  8
2
  6
LINETYPE_11
 40
0.009
 41
0.009
 66
     1
 10
0.0
 20
0.0
 30
0.0
  0
VERTEX
  8
2
 10
1.625
 20
5.6138
 30
0.0
  0
VERTEX
  8
2
 10
1.625
 20
5.6638
 30
0.0
  0
SEQEND
  0
POLYLINE
  8
2
  6
LINETYPE_11
 40
0.009
 41
0.009
 66
     1
 10
0.0
 20
0.0
 30
0.0
  0
VERTEX
  8
2
 10
1.625
 20
5.6638
 30
0.0
  0
VERTEX
  8
2
 10
1.5
 20
5.6388
 30
0.0
  0
SEQEND
  0
POLYLINE
  8
2
  6
LINETYPE_11
 40
0.009
 41
0.009
 66
     1
 10
0.0
 20
0.0
 30
0.0
  0
VERTEX
  8
2
 10
1.5
 20
5.6388
 30
0.0
  0
VERTEX
  8
2
 10
1.52
 20
5.6388
 30
0.0
  0
SEQEND
  0
POLYLINE
  8
2
  6
LINETYPE_11
 40
0.009
 41
0.009
 66
     1
 10
0.0
 20
0.0
 30
0.0
  0
VERTEX
  8
2
 10
1.52
 20
5.6388
 30
0.0
  0
VERTEX
  8
2
 10
1.62
 20
5.6188
 30
0.0
  0
SEQEND
  0
POLYLINE
  8
2
  6
LINETYPE_11
 40
0.009
 41
0.009
 66
     1
 10
0.0
 20
0.0
 30
0.0
  0
VERTEX
  8
2
 10
1.62
 20
5.6188
 30
0.0
  0
VERTEX
  8
2
 10
1.62
 20
5.6588
 30
0.0
  0
SEQEND
  0
POLYLINE
  8
2
  6
LINETYPE_11
 40
0.009
 41
0.009
 66
     1
 10
0.0
 20
0.0
 30
0.0
  0
VERTEX
  8
2
 10
1.62
 20
5.6588
 30
0.0
  0
VERTEX
  8
2
 10
1.52
 20
5.6388
 30
0.0
  0
SEQEND
  0
POLYLINE
  8
2
  6
LINETYPE_11
 40
0.009
 41
0.009
 66
     1
 10
0.0
 20
0.0
 30
0.0
  0
VERTEX
  8
2
 10
1.52
 20
5.6388
 30
0.0
  0
VERTEX
  8
2
 10
1.54
 20
5.6388
 30
0.0
  0
SEQEND
  0
POLYLINE
  8
2
  6
LINETYPE_11
 40
0.009
 41
0.009
 66
     1
 10
0.0
 20
0.0
 30
0.0
  0
VERTEX
  8
2
 10
1.54
 20
5.6388
 30
0.0
  0
VERTEX
  8
2
 10
1.615
 20
5.6238
 30
0.0
  0
SEQEND
  0
POLYLINE
  8
2
  6
LINETYPE_11
 40
0.009
 41
0.009
 66
     1
 10
0.0
 20
0.0
 30
0.0
  0
VERTEX
  8
2
 10
1.615
 20
5.6238
 30
0.0
  0
VERTEX
  8
2
 10
1.615
 20
5.6538
 30
0.0
  0
SEQEND
  0
POLYLINE
  8
2
  6
LINETYPE_11
 40
0.009
 41
0.009
 66
     1
 10
0.0
 20
0.0
 30
0.0
  0
VERTEX
  8
2
 10
1.615
 20
5.6538
 30
0.0
  0
VERTEX
  8
2
 10
1.545
 20
5.6388
 30
0.0
  0
SEQEND
  0
POLYLINE
  8
2
  6
LINETYPE_11
 40
0.009
 41
0.009
 66
     1
 10
0.0
 20
0.0
 30
0.0
  0
VERTEX
  8
2
 10
1.545
 20
5.6388
 30
0.0
  0
VERTEX
  8
2
 10
1.56
 20
5.6388
 30
0.0
  0
SEQEND
  0
POLYLINE
  8
2
  6
LINETYPE_11
 40
0.009
 41
0.009
 66
     1
 10
0.0
 20
0.0
 30
0.0
  0
VERTEX
  8
2
 10
1.56
 20
5.6388
 30
0.0
  0
VERTEX
  8
2
 10
1.61
 20
5.6288
 30
0.0
  0
SEQEND
  0
POLYLINE
  8
2
  6
LINETYPE_11
 40
0.009
 41
0.009
 66
     1
 10
0.0
 20
0.0
 30
0.0
  0
VERTEX
  8
2
 10
1.61
 20
5.6288
 30
0.0
  0
VERTEX
  8
2
 10
1.61
 20
5.6488
 30
0.0
  0
SEQEND
  0
POLYLINE
  8
2
  6
LINETYPE_11
 40
0.009
 41
0.009
 66
     1
 10
0.0
 20
0.0
 30
0.0
  0
VERTEX
  8
2
 10
1.61
 20
5.6488
 30
0.0
  0
VERTEX
  8
2
 10
1.565
 20
5.6388
 30
0.0
  0
SEQEND
  0
POLYLINE
  8
2
  6
LINETYPE_11
 40
0.009
 41
0.009
 66
     1
 10
0.0
 20
0.0
 30
0.0
  0
VERTEX
  8
2
 10
1.565
 20
5.6388
 30
0.0
  0
VERTEX
  8
2
 10
1.585
 20
5.6388
 30
0.0
  0
SEQEND
  0
POLYLINE
  8
2
  6
LINETYPE_11
 40
0.009
 41
0.009
 66
     1
 10
0.0
 20
0.0
 30
0.0
  0
VERTEX
  8
2
 10
1.585
 20
5.6388
 30
0.0
  0
VERTEX
  8
2
 10
1.605
 20
5.6338
 30
0.0
  0
SEQEND
  0
POLYLINE
  8
2
  6
LINETYPE_11
 40
0.009
 41
0.009
 66
     1
 10
0.0
 20
0.0
 30
0.0
  0
VERTEX
  8
2
 10
1.605
 20
5.6338
 30
0.0
  0
VERTEX
  8
2
 10
1.605
 20
5.6438
 30
0.0
  0
SEQEND
  0
POLYLINE
  8
2
  6
LINETYPE_11
 40
0.009
 41
0.009
 66
     1
 10
0.0
 20
0.0
 30
0.0
  0
VERTEX
  8
2
 10
1.605
 20
5.6438
 30
0.0
  0
VERTEX
  8
2
 10
1.585
 20
5.6388
 30
0.0
  0
SEQEND
  0
POLYLINE
  8
2
  6
LINETYPE_11
 40
0.009
 41
0.009
 66
     1
 10
0.0
 20
0.0
 30
0.0
  0
VERTEX
  8
2
 10
3.4983
 20
5.6388
 30
0.0
  0
VERTEX
  8
2
 10
4.5
 20
5.6388
 30
0.0
  0
SEQEND
  0
POLYLINE
  8
2
  6
LINETYPE_11
 40
0.009
 41
0.009
 66
     1
 10
0.0
 20
0.0
 30
0.0
  0
VERTEX
  8
2
 10
4.5
 20
5.6388
 30
0.0
  0
VERTEX
  8
2
 10
4.375
 20
5.6638
 30
0.0
  0
SEQEND
  0
POLYLINE
  8
2
  6
LINETYPE_11
 40
0.009
 41
0.009
 66
     1
 10
0.0
 20
0.0
 30
0.0
  0
VERTEX
  8
2
 10
4.375
 20
5.6638
 30
0.0
  0
VERTEX
  8
2
 10
4.375
 20
5.6138
 30
0.0
  0
SEQEND
  0
POLYLINE
  8
2
  6
LINETYPE_11
 40
0.009
 41
0.009
 66
     1
 10
0.0
 20
0.0
 30
0.0
  0
VERTEX
  8
2
 10
4.375
 20
5.6138
 30
0.0
  0
VERTEX
  8
2
 10
4.5
 20
5.6388
 30
0.0
  0
SEQEND
  0
POLYLINE
  8
2
  6
LINETYPE_11
 40
0.009
 41
0.009
 66
     1
 10
0.0
 20
0.0
 30
0.0
  0
VERTEX
  8
2
 10
4.5
 20
5.6388
 30
0.0
  0
VERTEX
  8
2
 10
4.48
 20
5.6388
 30
0.0
  0
SEQEND
  0
POLYLINE
  8
2
  6
LINETYPE_11
 40
0.009
 41
0.009
 66
     1
 10
0.0
 20
0.0
 30
0.0
  0
VERTEX
  8
2
 10
4.48
 20
5.6388
 30
0.0
  0
VERTEX
  8
2
 10
4.38
 20
5.6588
 30
0.0
  0
SEQEND
  0
POLYLINE
  8
2
  6
LINETYPE_11
 40
0.009
 41
0.009
 66
     1
 10
0.0
 20
0.0
 30
0.0
  0
VERTEX
  8
2
 10
4.38
 20
5.6588
 30
0.0
  0
VERTEX
  8
2
 10
4.38
 20
5.6188
 30
0.0
  0
SEQEND
  0
POLYLINE
  8
2
  6
LINETYPE_11
 40
0.009
 41
0.009
 66
     1
 10
0.0
 20
0.0
 30
0.0
  0
VERTEX
  8
2
 10
4.38
 20
5.6188
 30
0.0
  0
VERTEX
  8
2
 10
4.48
 20
5.6388
 30
0.0
  0
SEQEND
  0
POLYLINE
  8
2
  6
LINETYPE_11
 40
0.009
 41
0.009
 66
     1
 10
0.0
 20
0.0
 30
0.0
  0
VERTEX
  8
2
 10
4.48
 20
5.6388
 30
0.0
  0
VERTEX
  8
2
 10
4.46
 20
5.6388
 30
0.0
  0
SEQEND
  0
POLYLINE
  8
2
  6
LINETYPE_11
 40
0.009
 41
0.009
 66
     1
 10
0.0
 20
0.0
 30
0.0
  0
VERTEX
  8
2
 10
4.46
 20
5.6388
 30
0.0
  0
VERTEX
  8
2
 10
4.385
 20
5.6538
 30
0.0
  0
SEQEND
  0
POLYLINE
  8
2
  6
LINETYPE_11
 40
0.009
 41
0.009
 66
     1
 10
0.0
 20
0.0
 30
0.0
  0
VERTEX
  8
2
 10
4.385
 20
5.6538
 30
0.0
  0
VERTEX
  8
2
 10
4.385
 20
5.6238
 30
0.0
  0
SEQEND
  0
POLYLINE
  8
2
  6
LINETYPE_11
 40
0.009
 41
0.009
 66
     1
 10
0.0
 20
0.0
 30
0.0
  0
VERTEX
  8
2
 10
4.385
 20
5.6238
 30
0.0
  0
VERTEX
  8
2
 10
4.455
 20
5.6388
 30
0.0
  0
SEQEND
  0
POLYLINE
  8
2
  6
LINETYPE_11
 40
0.009
 41
0.009
 66
     1
 10
0.0
 20
0.0
 30
0.0
  0
VERTEX
  8
2
 10
4.455
 20
5.6388
 30
0.0
  0
VERTEX
  8
2
 10
4.44
 20
5.6388
 30
0.0
  0
SEQEND
  0
POLYLINE
  8
2
  6
LINETYPE_11
 40
0.009
 41
0.009
 66
     1
 10
0.0
 20
0.0
 30
0.0
  0
VERTEX
  8
2
 10
4.44
 20
5.6388
 30
0.0
  0
VERTEX
  8
2
 10
4.39
 20
5.6488
 30
0.0
  0
SEQEND
  0
POLYLINE
  8
2
  6
LINETYPE_11
 40
0.009
 41
0.009
 66
     1
 10
0.0
 20
0.0
 30
0.0
  0
VERTEX
  8
2
 10
4.39
 20
5.6488
 30
0.0
  0
VERTEX
  8
2
 10
4.39
 20
5.6288
 30
0.0
  0
SEQEND
  0
POLYLINE
  8
2
  6
LINETYPE_11
 40
0.009
 41
0.009
 66
     1
 10
0.0
 20
0.0
 30
0.0
  0
VERTEX
  8
2
 10
4.39
 20
5.6288
 30
0.0
  0
VERTEX
  8
2
 10
4.435
 20
5.6388
 30
0.0
  0
SEQEND
  0
POLYLINE
  8
2
  6
LINETYPE_11
 40
0.009
 41
0.009
 66
     1
 10
0.0
 20
0.0
 30
0.0
  0
VERTEX
  8
2
 10
4.435
 20
5.6388
 30
0.0
  0
VERTEX
  8
2
 10
4.415
 20
5.6388
 30
0.0
  0
SEQEND
  0
POLYLINE
  8
2
  6
LINETYPE_11
 40
0.009
 41
0.009
 66
     1
 10
0.0
 20
0.0
 30
0.0
  0
VERTEX
  8
2
 10
4.415
 20
5.6388
 30
0.0
  0
VERTEX
  8
2
 10
4.395
 20
5.6438
 30
0.0
  0
SEQEND
  0
POLYLINE
  8
2
  6
LINETYPE_11
 40
0.009
 41
0.009
 66
     1
 10
0.0
 20
0.0
 30
0.0
  0
VERTEX
  8
2
 10
4.395
 20
5.6438
 30
0.0
  0
VERTEX
  8
2
 10
4.395
 20
5.6338
 30
0.0
  0
SEQEND
  0
POLYLINE
  8
2
  6
LINETYPE_11
 40
0.009
 41
0.009
 66
     1
 10
0.0
 20
0.0
 30
0.0
  0
VERTEX
  8
2
 10
4.395
 20
5.6338
 30
0.0
  0
VERTEX
  8
2
 10
4.415
 20
5.6388
 30
0.0
  0
SEQEND
  0
TEXT
  8
2
 10
3.0165
 20
5.5763
 30
0.0
 40
0.125
  1
3.00
 50
0.000000
  0
POLYLINE
  8
2
  6
LINETYPE_11
 40
0.009
 41
0.009
 66
     1
 10
0.0
 20
0.0
 30
0.0
  0
VERTEX
  8
2
 10
1.5
 20
4.062
 30
0.0
  0
VERTEX
  8
2
 10
1.5
 20
6.1446
 30
0.0
  0
SEQEND
  0
POLYLINE
  8
2
  6
LINETYPE_11
 40
0.009
 41
0.009
 66
     1
 10
0.0
 20
0.0
 30
0.0
  0
VERTEX
  8
2
 10
6.5
 20
4.062
 30
0.0
  0
VERTEX
  8
2
 10
6.5
 20
6.1446
 30
0.0
  0
SEQEND
  0
POLYLINE
  8
2
  6
LINETYPE_11
 40
0.009
 41
0.009
 66
     1
 10
0.0
 20
0.0
 30
0.0
  0
VERTEX
  8
2
 10
3.6489
 20
6.0196
 30
0.0
  0
VERTEX
  8
2
 10
1.5
 20
6.0196
 30
0.0
  0
SEQEND
  0
POLYLINE
  8
2
  6
LINETYPE_11
 40
0.009
 41
0.009
 66
     1
 10
0.0
 20
0.0
 30
0.0
  0
VERTEX
  8
2
 10
1.5
 20
6.0196
 30
0.0
  0
VERTEX
  8
2
 10
1.625
 20
5.9946
 30
0.0
  0
SEQEND
  0
POLYLINE
  8
2
  6
LINETYPE_11
 40
0.009
 41
0.009
 66
     1
 10
0.0
 20
0.0
 30
0.0
  0
VERTEX
  8
2
 10
1.625
 20
5.9946
 30
0.0
  0
VERTEX
  8
2
 10
1.625
 20
6.0446
 30
0.0
  0
SEQEND
  0
POLYLINE
  8
2
  6
LINETYPE_11
 40
0.009
 41
0.009
 66
     1
 10
0.0
 20
0.0
 30
0.0
  0
VERTEX
  8
2
 10
1.625
 20
6.0446
 30
0.0
  0
VERTEX
  8
2
 10
1.5
 20
6.0196
 30
0.0
  0
SEQEND
  0
POLYLINE
  8
2
  6
LINETYPE_11
 40
0.009
 41
0.009
 66
     1
 10
0.0
 20
0.0
 30
0.0
  0
VERTEX
  8
2
 10
1.5
 20
6.0196
 30
0.0
  0
VERTEX
  8
2
 10
1.52
 20
6.0196
 30
0.0
  0
SEQEND
  0
POLYLINE
  8
2
  6
LINETYPE_11
 40
0.009
 41
0.009
 66
     1
 10
0.0
 20
0.0
 30
0.0
  0
VERTEX
  8
2
 10
1.52
 20
6.0196
 30
0.0
  0
VERTEX
  8
2
 10
1.62
 20
5.9996
 30
0.0
  0
SEQEND
  0
POLYLINE
  8
2
  6
LINETYPE_11
 40
0.009
 41
0.009
 66
     1
 10
0.0
 20
0.0
 30
0.0
  0
VERTEX
  8
2
 10
1.62
 20
5.9996
 30
0.0
  0
VERTEX
  8
2
 10
1.62
 20
6.0396
 30
0.0
  0
SEQEND
  0
POLYLINE
  8
2
  6
LINETYPE_11
 40
0.009
 41
0.009
 66
     1
 10
0.0
 20
0.0
 30
0.0
  0
VERTEX
  8
2
 10
1.62
 20
6.0396
 30
0.0
  0
VERTEX
  8
2
 10
1.52
 20
6.0196
 30
0.0
  0
SEQEND
  0
POLYLINE
  8
2
  6
LINETYPE_11
 40
0.009
 41
0.009
 66
     1
 10
0.0
 20
0.0
 30
0.0
  0
VERTEX
  8
2
 10
1.52
 20
6.0196
 30
0.0
  0
VERTEX
  8
2
 10
1.54
 20
6.0196
 30
0.0
  0
SEQEND
  0
POLYLINE
  8
2
  6
LINETYPE_11
 40
0.009
 41
0.009
 66
     1
 10
0.0
 20
0.0
 30
0.0
  0
VERTEX
  8
2
 10
1.54
 20
6.0196
 30
0.0
  0
VERTEX
  8
2
 10
1.615
 20
6.0046
 30
0.0
  0
SEQEND
  0
POLYLINE
  8
2
  6
LINETYPE_11
 40
0.009
 41
0.009
 66
     1
 10
0.0
 20
0.0
 30
0.0
  0
VERTEX
  8
2
 10
1.615
 20
6.0046
 30
0.0
  0
VERTEX
  8
2
 10
1.615
 20
6.0346
 30
0.0
  0
SEQEND
  0
POLYLINE
  8
2
  6
LINETYPE_11
 40
0.009
 41
0.009
 66
     1
 10
0.0
 20
0.0
 30
0.0
  0
VERTEX
  8
2
 10
1.615
 20
6.0346
 30
0.0
  0
VERTEX
  8
2
 10
1.545
 20
6.0196
 30
0.0
  0
SEQEND
  0
POLYLINE
  8
2
  6
LINETYPE_11
 40
0.009
 41
0.009
 66
     1
 10
0.0
 20
0.0
 30
0.0
  0
VERTEX
  8
2
 10
1.545
 20
6.0196
 30
0.0
  0
VERTEX
  8
2
 10
1.56
 20
6.0196
 30
0.0
  0
SEQEND
  0
POLYLINE
  8
2
  6
LINETYPE_11
 40
0.009
 41
0.009
 66
     1
 10
0.0
 20
0.0
 30
0.0
  0
VERTEX
  8
2
 10
1.56
 20
6.0196
 30
0.0
  0
VERTEX
  8
2
 10
1.61
 20
6.0096
 30
0.0
  0
SEQEND
  0
POLYLINE
  8
2
  6
LINETYPE_11
 40
0.009
 41
0.009
 66
     1
 10
0.0
 20
0.0
 30
0.0
  0
VERTEX
  8
2
 10
1.61
 20
6.0096
 30
0.0
  0
VERTEX
  8
2
 10
1.61
 20
6.0296
 30
0.0
  0
SEQEND
  0
POLYLINE
  8
2
  6
LINETYPE_11
 40
0.009
 41
0.009
 66
     1
 10
0.0
 20
0.0
 30
0.0
  0
VERTEX
  8
2
 10
1.61
 20
6.0296
 30
0.0
  0
VERTEX
  8
2
 10
1.565
 20
6.0196
 30
0.0
  0
SEQEND
  0
POLYLINE
  8
2
  6
LINETYPE_11
 40
0.009
 41
0.009
 66
     1
 10
0.0
 20
0.0
 30
0.0
  0
VERTEX
  8
2
 10
1.565
 20
6.0196
 30
0.0
  0
VERTEX
  8
2
 10
1.585
 20
6.0196
 30
0.0
  0
SEQEND
  0
POLYLINE
  8
2
  6
LINETYPE_11
 40
0.009
 41
0.009
 66
     1
 10
0.0
 20
0.0
 30
0.0
  0
VERTEX
  8
2
 10
1.585
 20
6.0196
 30
0.0
  0
VERTEX
  8
2
 10
1.605
 20
6.0146
 30
0.0
  0
SEQEND
  0
POLYLINE
  8
2
  6
LINETYPE_11
 40
0.009
 41
0.009
 66
     1
 10
0.0
 20
0.0
 30
0.0
  0
VERTEX
  8
2
 10
1.605
 20
6.0146
 30
0.0
  0
VERTEX
  8
2
 10
1.605
 20
6.0246
 30
0.0
  0
SEQEND
  0
POLYLINE
  8
2
  6
LINETYPE_11
 40
0.009
 41
0.009
 66
     1
 10
0.0
 20
0.0
 30
0.0
  0
VERTEX
  8
2
 10
1.605
 20
6.0246
 30
0.0
  0
VERTEX
  8
2
 10
1.585
 20
6.0196
 30
0.0
  0
SEQEND
  0
POLYLINE
  8
2
  6
LINETYPE_11
 40
0.009
 41
0.009
 66
     1
 10
0.0
 20
0.0
 30
0.0
  0
VERTEX
  8
2
 10
4.1927
 20
6.0196
 30
0.0
  0
VERTEX
  8
2
 10
6.5
 20
6.0196
 30
0.0
  0
SEQEND
  0
POLYLINE
  8
2
  6
LINETYPE_11
 40
0.009
 41
0.009
 66
     1
 10
0.0
 20
0.0
 30
0.0
  0
VERTEX
  8
2
 10
6.5
 20
6.0196
 30
0.0
  0
VERTEX
  8
2
 10
6.375
 20
6.0446
 30
0.0
  0
SEQEND
  0
POLYLINE
  8
2
  6
LINETYPE_11
 40
0.009
 41
0.009
 66
     1
 10
0.0
 20
0.0
 30
0.0
  0
VERTEX
  8
2
 10
6.375
 20
6.0446
 30
0.0
  0
VERTEX
  8
2
 10
6.375
 20
5.9946
 30
0.0
  0
SEQEND
  0
POLYLINE
  8
2
  6
LINETYPE_11
 40
0.009
 41
0.009
 66
     1
 10
0.0
 20
0.0
 30
0.0
  0
VERTEX
  8
2
 10
6.375
 20
5.9946
 30
0.0
  0
VERTEX
  8
2
 10
6.5
 20
6.0196
 30
0.0
  0
SEQEND
  0
POLYLINE
  8
2
  6
LINETYPE_11
 40
0.009
 41
0.009
 66
     1
 10
0.0
 20
0.0
 30
0.0
  0
VERTEX
  8
2
 10
6.5
 20
6.0196
 30
0.0
  0
VERTEX
  8
2
 10
6.48
 20
6.0196
 30
0.0
  0
SEQEND
  0
POLYLINE
  8
2
  6
LINETYPE_11
 40
0.009
 41
0.009
 66
     1
 10
0.0
 20
0.0
 30
0.0
  0
VERTEX
  8
2
 10
6.48
 20
6.0196
 30
0.0
  0
VERTEX
  8
2
 10
6.38
 20
6.0396
 30
0.0
  0
SEQEND
  0
POLYLINE
  8
2
  6
LINETYPE_11
 40
0.009
 41
0.009
 66
     1
 10
0.0
 20
0.0
 30
0.0
  0
VERTEX
  8
2
 10
6.38
 20
6.0396
 30
0.0
  0
VERTEX
  8
2
 10
6.38
 20
5.9996
 30
0.0
  0
SEQEND
  0
POLYLINE
  8
2
  6
LINETYPE_11
 40
0.009
 41
0.009
 66
     1
 10
0.0
 20
0.0
 30
0.0
  0
VERTEX
  8
2
 10
6.38
 20
5.9996
 30
0.0
  0
VERTEX
  8
2
 10
6.48
 20
6.0196
 30
0.0
  0
SEQEND
  0
POLYLINE
  8
2
  6
LINETYPE_11
 40
0.009
 41
0.009
 66
     1
 10
0.0
 20
0.0
 30
0.0
  0
VERTEX
  8
2
 10
6.48
 20
6.0196
 30
0.0
  0
VERTEX
  8
2
 10
6.46
 20
6.0196
 30
0.0
  0
SEQEND
  0
POLYLINE
  8
2
  6
LINETYPE_11
 40
0.009
 41
0.009
 66
     1
 10
0.0
 20
0.0
 30
0.0
  0
VERTEX
  8
2
 10
6.46
 20
6.0196
 30
0.0
  0
VERTEX
  8
2
 10
6.385
 20
6.0346
 30
0.0
  0
SEQEND
  0
POLYLINE
  8
2
  6
LINETYPE_11
 40
0.009
 41
0.009
 66
     1
 10
0.0
 20
0.0
 30
0.0
  0
VERTEX
  8
2
 10
6.385
 20
6.0346
 30
0.0
  0
VERTEX
  8
2
 10
6.385
 20
6.0046
 30
0.0
  0
SEQEND
  0
POLYLINE
  8
2
  6
LINETYPE_11
 40
0.009
 41
0.009
 66
     1
 10
0.0
 20
0.0
 30
0.0
  0
VERTEX
  8
2
 10
6.385
 20
6.0046
 30
0.0
  0
VERTEX
  8
2
 10
6.455
 20
6.0196
 30
0.0
  0
SEQEND
  0
POLYLINE
  8
2
  6
LINETYPE_11
 40
0.009
 41
0.009
 66
     1
 10
0.0
 20
0.0
 30
0.0
  0
VERTEX
  8
2
 10
6.455
 20
6.0196
 30
0.0
  0
VERTEX
  8
2
 10
6.44
 20
6.0196
 30
0.0
  0
SEQEND
  0
POLYLINE
  8
2
  6
LINETYPE_11
 40
0.009
 41
0.009
 66
     1
 10
0.0
 20
0.0
 30
0.0
  0
VERTEX
  8
2
 10
6.44
 20
6.0196
 30
0.0
  0
VERTEX
  8
2
 10
6.39
 20
6.0296
 30
0.0
  0
SEQEND
  0
POLYLINE
  8
2
  6
LINETYPE_11
 40
0.009
 41
0.009
 66
     1
 10
0.0
 20
0.0
 30
0.0
  0
VERTEX
  8
2
 10
6.39
 20
6.0296
 30
0.0
  0
VERTEX
  8
2
 10
6.39
 20
6.0096
 30
0.0
  0
SEQEND
  0
POLYLINE
  8
2
  6
LINETYPE_11
 40
0.009
 41
0.009
 66
     1
 10
0.0
 20
0.0
 30
0.0
  0
VERTEX
  8
2
 10
6.39
 20
6.0096
 30
0.0
  0
VERTEX
  8
2
 10
6.435
 20
6.0196
 30
0.0
  0
SEQEND
  0
POLYLINE
  8
2
  6
LINETYPE_11
 40
0.009
 41
0.009
 66
     1
 10
0.0
 20
0.0
 30
0.0
  0
VERTEX
  8
2
 10
6.435
 20
6.0196
 30
0.0
  0
VERTEX
  8
2
 10
6.415
 20
6.0196
 30
0.0
  0
SEQEND
  0
POLYLINE
  8
2
  6
LINETYPE_11
 40
0.009
 41
0.009
 66
     1
 10
0.0
 20
0.0
 30
0.0
  0
VERTEX
  8
2
 10
6.415
 20
6.0196
 30
0.0
  0
VERTEX
  8
2
 10
6.395
 20
6.0246
 30
0.0
  0
SEQEND
  0
POLYLINE
  8
2
  6
LINETYPE_11
 40
0.009
 41
0.009
 66
     1
 10
0.0
 20
0.0
 30
0.0
  0
VERTEX
  8
2
 10
6.395
 20
6.0246
 30
0.0
  0
VERTEX
  8
2
 10
6.395
 20
6.0146
 30
0.0
  0
SEQEND
  0
POLYLINE
  8
2
  6
LINETYPE_11
 40
0.009
 41
0.009
 66
     1
 10
0.0
 20
0.0
 30
0.0
  0
VERTEX
  8
2
 10
6.395
 20
6.0146
 30
0.0
  0
VERTEX
  8
2
 10
6.415
 20
6.0196
 30
0.0
  0
SEQEND
  0
TEXT
  8
2
 10
3.7109
 20
5.9571
 30
0.0
 40
0.125
  1
5.00
 50
0.000000
  0
POLYLINE
  8
2
  6
LINETYPE_11
 40
0.009
 41
0.009
 66
     1
 10
0.0
 20
0.0
 30
0.0
  0
VERTEX
  8
2
 10
1.5
 20
4.062
 30
0.0
  0
VERTEX
  8
2
 10
1.5
 20
6.5366
 30
0.0
  0
SEQEND
  0
POLYLINE
  8
2
  6
LINETYPE_11
 40
0.009
 41
0.009
 66
     1
 10
0.0
 20
0.0
 30
0.0
  0
VERTEX
  8
2
 10
7.0
 20
4.562
 30
0.0
  0
VERTEX
  8
2
 10
7.0
 20
6.5366
 30
0.0
  0
SEQEND
  0
POLYLINE
  8
2
  6
LINETYPE_11
 40
0.009
 41
0.009
 66
     1
 10
0.0
 20
0.0
 30
0.0
  0
VERTEX
  8
2
 10
4.1641
 20
6.4116
 30
0.0
  0
VERTEX
  8
2
 10
1.5
 20
6.4116
 30
0.0
  0
SEQEND
  0
POLYLINE
  8
2
  6
LINETYPE_11
 40
0.009
 41
0.009
 66
     1
 10
0.0
 20
0.0
 30
0.0
  0
VERTEX
  8
2
 10
1.5
 20
6.4116
 30
0.0
  0
VERTEX
  8
2
 10
1.625
 20
6.3866
 30
0.0
  0
SEQEND
  0
POLYLINE
  8
2
  6
LINETYPE_11
 40
0.009
 41
0.009
 66
     1
 10
0.0
 20
0.0
 30
0.0
  0
VERTEX
  8
2
 10
1.625
 20
6.3866
 30
0.0
  0
VERTEX
  8
2
 10
1.625
 20
6.4366
 30
0.0
  0
SEQEND
  0
POLYLINE
  8
2
  6
LINETYPE_11
 40
0.009
 41
0.009
 66
     1
 10
0.0
 20
0.0
 30
0.0
  0
VERTEX
  8
2
 10
1.625
 20
6.4366
 30
0.0
  0
VERTEX
  8
2
 10
1.5
 20
6.4116
 30
0.0
  0
SEQEND
  0
POLYLINE
  8
2
  6
LINETYPE_11
 40
0.009
 41
0.009
 66
     1
 10
0.0
 20
0.0
 30
0.0
  0
VERTEX
  8
2
 10
1.5
 20
6.4116
 30
0.0
  0
VERTEX
  8
2
 10
1.52
 20
6.4116
 30
0.0
  0
SEQEND
  0
POLYLINE
  8
2
  6
LINETYPE_11
 40
0.009
 41
0.009
 66
     1
 10
0.0
 20
0.0
 30
0.0
  0
VERTEX
  8
2
 10
1.52
 20
6.4116
 30
0.0
  0
VERTEX
  8
2
 10
1.62
 20
6.3916
 30
0.0
  0
SEQEND
  0
POLYLINE
  8
2
  6
LINETYPE_11
 40
0.009
 41
0.009
 66
     1
 10
0.0
 20
0.0
 30
0.0
  0
VERTEX
  8
2
 10
1.62
 20
6.3916
 30
0.0
  0
VERTEX
  8
2
 10
1.62
 20
6.4316
 30
0.0
  0
SEQEND
  0
POLYLINE
  8
2
  6
LINETYPE_11
 40
0.009
 41
0.009
 66
     1
 10
0.0
 20
0.0
 30
0.0
  0
VERTEX
  8
2
 10
1.62
 20
6.4316
 30
0.0
  0
VERTEX
  8
2
 10
1.52
 20
6.4116
 30
0.0
  0
SEQEND
  0
POLYLINE
  8
2
  6
LINETYPE_11
 40
0.009
 41
0.009
 66
     1
 10
0.0
 20
0.0
 30
0.0
  0
VERTEX
  8
2
 10
1.52
 20
6.4116
 30
0.0
  0
VERTEX
  8
2
 10
1.54
 20
6.4116
 30
0.0
  0
SEQEND
  0
POLYLINE
  8
2
  6
LINETYPE_11
 40
0.009
 41
0.009
 66
     1
 10
0.0
 20
0.0
 30
0.0
  0
VERTEX
  8
2
 10
1.54
 20
6.4116
 30
0.0
  0
VERTEX
  8
2
 10
1.615
 20
6.3966
 30
0.0
  0
SEQEND
  0
POLYLINE
  8
2
  6
LINETYPE_11
 40
0.009
 41
0.009
 66
     1
 10
0.0
 20
0.0
 30
0.0
  0
VERTEX
  8
2
 10
1.615
 20
6.3966
 30
0.0
  0
VERTEX
  8
2
 10
1.615
 20
6.4266
 30
0.0
  0
SEQEND
  0
POLYLINE
  8
2
  6
LINETYPE_11
 40
0.009
 41
0.009
 66
     1
 10
0.0
 20
0.0
 30
0.0
  0
VERTEX
  8
2
 10
1.615
 20
6.4266
 30
0.0
  0
VERTEX
  8
2
 10
1.545
 20
6.4116
 30
0.0
  0
SEQEND
  0
POLYLINE
  8
2
  6
LINETYPE_11
 40
0.009
 41
0.009
 66
     1
 10
0.0
 20
0.0
 30
0.0
  0
VERTEX
  8
2
 10
1.545
 20
6.4116
 30
0.0
  0
VERTEX
  8
2
 10
1.56
 20
6.4116
 30
0.0
  0
SEQEND
  0
POLYLINE
  8
2
  6
LINETYPE_11
 40
0.009
 41
0.009
 66
     1
 10
0.0
 20
0.0
 30
0.0
  0
VERTEX
  8
2
 10
1.56
 20
6.4116
 30
0.0
  0
VERTEX
  8
2
 10
1.61
 20
6.4016
 30
0.0
  0
SEQEND
  0
POLYLINE
  8
2
  6
LINETYPE_11
 40
0.009
 41
0.009
 66
     1
 10
0.0
 20
0.0
 30
0.0
  0
VERTEX
  8
2
 10
1.61
 20
6.4016
 30
0.0
  0
VERTEX
  8
2
 10
1.61
 20
6.4216
 30
0.0
  0
SEQEND
  0
POLYLINE
  8
2
  6
LINETYPE_11
 40
0.009
 41
0.009
 66
     1
 10
0.0
 20
0.0
 30
0.0
  0
VERTEX
  8
2
 10
1.61
 20
6.4216
 30
0.0
  0
VERTEX
  8
2
 10
1.565
 20
6.4116
 30
0.0
  0
SEQEND
  0
POLYLINE
  8
2
  6
LINETYPE_11
 40
0.009
 41
0.009
 66
     1
 10
0.0
 20
0.0
 30
0.0
  0
VERTEX
  8
2
 10
1.565
 20
6.4116
 30
0.0
  0
VERTEX
  8
2
 10
1.585
 20
6.4116
 30
0.0
  0
SEQEND
  0
POLYLINE
  8
2
  6
LINETYPE_11
 40
0.009
 41
0.009
 66
     1
 10
0.0
 20
0.0
 30
0.0
  0
VERTEX
  8
2
 10
1.585
 20
6.4116
 30
0.0
  0
VERTEX
  8
2
 10
1.605
 20
6.4066
 30
0.0
  0
SEQEND
  0
POLYLINE
  8
2
  6
LINETYPE_11
 40
0.009
 41
0.009
 66
     1
 10
0.0
 20
0.0
 30
0.0
  0
VERTEX
  8
2
 10
1.605
 20
6.4066
 30
0.0
  0
VERTEX
  8
2
 10
1.605
 20
6.4166
 30
0.0
  0
SEQEND
  0
POLYLINE
  8
2
  6
LINETYPE_11
 40
0.009
 41
0.009
 66
     1
 10
0.0
 20
0.0
 30
0.0
  0
VERTEX
  8
2
 10
1.605
 20
6.4166
 30
0.0
  0
VERTEX
  8
2
 10
1.585
 20
6.4116
 30
0.0
  0
SEQEND
  0
POLYLINE
  8
2
  6
LINETYPE_11
 40
0.009
 41
0.009
 66
     1
 10
0.0
 20
0.0
 30
0.0
  0
VERTEX
  8
2
 10
4.7079
 20
6.4116
 30
0.0
  0
VERTEX
  8
2
 10
7.0
 20
6.4116
 30
0.0
  0
SEQEND
  0
POLYLINE
  8
2
  6
LINETYPE_11
 40
0.009
 41
0.009
 66
     1
 10
0.0
 20
0.0
 30
0.0
  0
VERTEX
  8
2
 10
7.0
 20
6.4116
 30
0.0
  0
VERTEX
  8
2
 10
6.875
 20
6.4366
 30
0.0
  0
SEQEND
  0
POLYLINE
  8
2
  6
LINETYPE_11
 40
0.009
 41
0.009
 66
     1
 10
0.0
 20
0.0
 30
0.0
  0
VERTEX
  8
2
 10
6.875
 20
6.4366
 30
0.0
  0
VERTEX
  8
2
 10
6.875
 20
6.3866
 30
0.0
  0
SEQEND
  0
POLYLINE
  8
2
  6
LINETYPE_11
 40
0.009
 41
0.009
 66
     1
 10
0.0
 20
0.0
 30
0.0
  0
VERTEX
  8
2
 10
6.875
 20
6.3866
 30
0.0
  0
VERTEX
  8
2
 10
7.0
 20
6.4116
 30
0.0
  0
SEQEND
  0
POLYLINE
  8
2
  6
LINETYPE_11
 40
0.009
 41
0.009
 66
     1
 10
0.0
 20
0.0
 30
0.0
  0
VERTEX
  8
2
 10
7.0
 20
6.4116
 30
0.0
  0
VERTEX
  8
2
 10
6.98
 20
6.4116
 30
0.0
  0
SEQEND
  0
POLYLINE
  8
2
  6
LINETYPE_11
 40
0.009
 41
0.009
 66
     1
 10
0.0
 20
0.0
 30
0.0
  0
VERTEX
  8
2
 10
6.98
 20
6.4116
 30
0.0
  0
VERTEX
  8
2
 10
6.88
 20
6.4316
 30
0.0
  0
SEQEND
  0
POLYLINE
  8
2
  6
LINETYPE_11
 40
0.009
 41
0.009
 66
     1
 10
0.0
 20
0.0
 30
0.0
  0
VERTEX
  8
2
 10
6.88
 20
6.4316
 30
0.0
  0
VERTEX
  8
2
 10
6.88
 20
6.3916
 30
0.0
  0
SEQEND
  0
POLYLINE
  8
2
  6
LINETYPE_11
 40
0.009
 41
0.009
 66
     1
 10
0.0
 20
0.0
 30
0.0
  0
VERTEX
  8
2
 10
6.88
 20
6.3916
 30
0.0
  0
VERTEX
  8
2
 10
6.98
 20
6.4116
 30
0.0
  0
SEQEND
  0
POLYLINE
  8
2
  6
LINETYPE_11
 40
0.009
 41
0.009
 66
     1
 10
0.0
 20
0.0
 30
0.0
  0
VERTEX
  8
2
 10
6.98
 20
6.4116
 30
0.0
  0
VERTEX
  8
2
 10
6.96
 20
6.4116
 30
0.0
  0
SEQEND
  0
POLYLINE
  8
2
  6
LINETYPE_11
 40
0.009
 41
0.009
 66
     1
 10
0.0
 20
0.0
 30
0.0
  0
VERTEX
  8
2
 10
6.96
 20
6.4116
 30
0.0
  0
VERTEX
  8
2
 10
6.885
 20
6.4266
 30
0.0
  0
SEQEND
  0
POLYLINE
  8
2
  6
LINETYPE_11
 40
0.009
 41
0.009
 66
     1
 10
0.0
 20
0.0
 30
0.0
  0
VERTEX
  8
2
 10
6.885
 20
6.4266
 30
0.0
  0
VERTEX
  8
2
 10
6.885
 20
6.3966
 30
0.0
  0
SEQEND
  0
POLYLINE
  8
2
  6
LINETYPE_11
 40
0.009
 41
0.009
 66
     1
 10
0.0
 20
0.0
 30
0.0
  0
VERTEX
  8
2
 10
6.885
 20
6.3966
 30
0.0
  0
VERTEX
  8
2
 10
6.955
 20
6.4116
 30
0.0
  0
SEQEND
  0
POLYLINE
  8
2
  6
LINETYPE_11
 40
0.009
 41
0.009
 66
     1
 10
0.0
 20
0.0
 30
0.0
  0
VERTEX
  8
2
 10
6.955
 20
6.4116
 30
0.0
  0
VERTEX
  8
2
 10
6.94
 20
6.4116
 30
0.0
  0
SEQEND
  0
POLYLINE
  8
2
  6
LINETYPE_11
 40
0.009
 41
0.009
 66
     1
 10
0.0
 20
0.0
 30
0.0
  0
VERTEX
  8
2
 10
6.94
 20
6.4116
 30
0.0
  0
VERTEX
  8
2
 10
6.89
 20
6.4216
 30
0.0
  0
SEQEND
  0
POLYLINE
  8
2
  6
LINETYPE_11
 40
0.009
 41
0.009
 66
     1
 10
0.0
 20
0.0
 30
0.0
  0
VERTEX
  8
2
 10
6.89
 20
6.4216
 30
0.0
  0
VERTEX
  8
2
 10
6.89
 20
6.4016
 30
0.0
  0
SEQEND
  0
POLYLINE
  8
2
  6
LINETYPE_11
 40
0.009
 41
0.009
 66
     1
 10
0.0
 20
0.0
 30
0.0
  0
VERTEX
  8
2
 10
6.89
 20
6.4016
 30
0.0
  0
VERTEX
  8
2
 10
6.935
 20
6.4116
 30
0.0
  0
SEQEND
  0
POLYLINE
  8
2
  6
LINETYPE_11
 40
0.009
 41
0.009
 66
     1
 10
0.0
 20
0.0
 30
0.0
  0
VERTEX
  8
2
 10
6.935
 20
6.4116
 30
0.0
  0
VERTEX
  8
2
 10
6.915
 20
6.4116
 30
0.0
  0
SEQEND
  0
POLYLINE
  8
2
  6
LINETYPE_11
 40
0.009
 41
0.009
 66
     1
 10
0.0
 20
0.0
 30
0.0
  0
VERTEX
  8
2
 10
6.915
 20
6.4116
 30
0.0
  0
VERTEX
  8
2
 10
6.895
 20
6.4166
 30
0.0
  0
SEQEND
  0
POLYLINE
  8
2
  6
LINETYPE_11
 40
0.009
 41
0.009
 66
     1
 10
0.0
 20
0.0
 30
0.0
  0
VERTEX
  8
2
 10
6.895
 20
6.4166
 30
0.0
  0
VERTEX
  8
2
 10
6.895
 20
6.4066
 30
0.0
  0
SEQEND
  0
POLYLINE
  8
2
  6
LINETYPE_11
 40
0.009
 41
0.009
 66
     1
 10
0.0
 20
0.0
 30
0.0
  0
VERTEX
  8
2
 10
6.895
 20
6.4066
 30
0.0
  0
VERTEX
  8
2
 10
6.915
 20
6.4116
 30
0.0
  0
SEQEND
  0
TEXT
  8
2
 10
4.2261
 20
6.3491
 30
0.0
 40
0.125
  1
5.50
 50
0.000000
  0
POLYLINE
  8
2
  6
LINETYPE_11
 40
0.009
 41
0.009
 66
     1
 10
0.0
 20
0.0
 30
0.0
  0
VERTEX
  8
2
 10
1.5
 20
4.062
 30
0.0
  0
VERTEX
  8
2
 10
1.5
 20
6.9061
 30
0.0
  0
SEQEND
  0
POLYLINE
  8
2
  6
LINETYPE_11
 40
0.009
 41
0.009
 66
     1
 10
0.0
 20
0.0
 30
0.0
  0
VERTEX
  8
2
 10
7.5
 20
4.562
 30
0.0
  0
VERTEX
  8
2
 10
7.5
 20
6.9061
 30
0.0
  0
SEQEND
  0
POLYLINE
  8
2
  6
LINETYPE_11
 40
0.009
 41
0.009
 66
     1
 10
0.0
 20
0.0
 30
0.0
  0
VERTEX
  8
2
 10
4.6009
 20
6.7811
 30
0.0
  0
VERTEX
  8
2
 10
1.5
 20
6.7811
 30
0.0
  0
SEQEND
  0
POLYLINE
  8
2
  6
LINETYPE_11
 40
0.009
 41
0.009
 66
     1
 10
0.0
 20
0.0
 30
0.0
  0
VERTEX
  8
2
 10
1.5
 20
6.7811
 30
0.0
  0
VERTEX
  8
2
 10
1.625
 20
6.7561
 30
0.0
  0
SEQEND
  0
POLYLINE
  8
2
  6
LINETYPE_11
 40
0.009
 41
0.009
 66
     1
 10
0.0
 20
0.0
 30
0.0
  0
VERTEX
  8
2
 10
1.625
 20
6.7561
 30
0.0
  0
VERTEX
  8
2
 10
1.625
 20
6.8061
 30
0.0
  0
SEQEND
  0
POLYLINE
  8
2
  6
LINETYPE_11
 40
0.009
 41
0.009
 66
     1
 10
0.0
 20
0.0
 30
0.0
  0
VERTEX
  8
2
 10
1.625
 20
6.8061
 30
0.0
  0
VERTEX
  8
2
 10
1.5
 20
6.7811
 30
0.0
  0
SEQEND
  0
POLYLINE
  8
2
  6
LINETYPE_11
 40
0.009
 41
0.009
 66
     1
 10
0.0
 20
0.0
 30
0.0
  0
VERTEX
  8
2
 10
1.5
 20
6.7811
 30
0.0
  0
VERTEX
  8
2
 10
1.52
 20
6.7811
 30
0.0
  0
SEQEND
  0
POLYLINE
  8
2
  6
LINETYPE_11
 40
0.009
 41
0.009
 66
     1
 10
0.0
 20
0.0
 30
0.0
  0
VERTEX
  8
2
 10
1.52
 20
6.7811
 30
0.0
  0
VERTEX
  8
2
 10
1.62
 20
6.7611
 30
0.0
  0
SEQEND
  0
POLYLINE
  8
2
  6
LINETYPE_11
 40
0.009
 41
0.009
 66
     1
 10
0.0
 20
0.0
 30
0.0
  0
VERTEX
  8
2
 10
1.62
 20
6.7611
 30
0.0
  0
VERTEX
  8
2
 10
1.62
 20
6.8011
 30
0.0
  0
SEQEND
  0
POLYLINE
  8
2
  6
LINETYPE_11
 40
0.009
 41
0.009
 66
     1
 10
0.0
 20
0.0
 30
0.0
  0
VERTEX
  8
2
 10
1.62
 20
6.8011
 30
0.0
  0
VERTEX
  8
2
 10
1.52
 20
6.7811
 30
0.0
  0
SEQEND
  0
POLYLINE
  8
2
  6
LINETYPE_11
 40
0.009
 41
0.009
 66
     1
 10
0.0
 20
0.0
 30
0.0
  0
VERTEX
  8
2
 10
1.52
 20
6.7811
 30
0.0
  0
VERTEX
  8
2
 10
1.54
 20
6.7811
 30
0.0
  0
SEQEND
  0
POLYLINE
  8
2
  6
LINETYPE_11
 40
0.009
 41
0.009
 66
     1
 10
0.0
 20
0.0
 30
0.0
  0
VERTEX
  8
2
 10
1.54
 20
6.7811
 30
0.0
  0
VERTEX
  8
2
 10
1.615
 20
6.7661
 30
0.0
  0
SEQEND
  0
POLYLINE
  8
2
  6
LINETYPE_11
 40
0.009
 41
0.009
 66
     1
 10
0.0
 20
0.0
 30
0.0
  0
VERTEX
  8
2
 10
1.615
 20
6.7661
 30
0.0
  0
VERTEX
  8
2
 10
1.615
 20
6.7961
 30
0.0
  0
SEQEND
  0
POLYLINE
  8
2
  6
LINETYPE_11
 40
0.009
 41
0.009
 66
     1
 10
0.0
 20
0.0
 30
0.0
  0
VERTEX
  8
2
 10
1.615
 20
6.7961
 30
0.0
  0
VERTEX
  8
2
 10
1.545
 20
6.7811
 30
0.0
  0
SEQEND
  0
POLYLINE
  8
2
  6
LINETYPE_11
 40
0.009
 41
0.009
 66
     1
 10
0.0
 20
0.0
 30
0.0
  0
VERTEX
  8
2
 10
1.545
 20
6.7811
 30
0.0
  0
VERTEX
  8
2
 10
1.56
 20
6.7811
 30
0.0
  0
SEQEND
  0
POLYLINE
  8
2
  6
LINETYPE_11
 40
0.009
 41
0.009
 66
     1
 10
0.0
 20
0.0
 30
0.0
  0
VERTEX
  8
2
 10
1.56
 20
6.7811
 30
0.0
  0
VERTEX
  8
2
 10
1.61
 20
6.7711
 30
0.0
  0
SEQEND
  0
POLYLINE
  8
2
  6
LINETYPE_11
 40
0.009
 41
0.009
 66
     1
 10
0.0
 20
0.0
 30
0.0
  0
VERTEX
  8
2
 10
1.61
 20
6.7711
 30
0.0
  0
VERTEX
  8
2
 10
1.61
 20
6.7911
 30
0.0
  0
SEQEND
  0
POLYLINE
  8
2
  6
LINETYPE_11
 40
0.009
 41
0.009
 66
     1
 10
0.0
 20
0.0
 30
0.0
  0
VERTEX
  8
2
 10
1.61
 20
6.7911
 30
0.0
  0
VERTEX
  8
2
 10
1.565
 20
6.7811
 30
0.0
  0
SEQEND
  0
POLYLINE
  8
2
  6
LINETYPE_11
 40
0.009
 41
0.009
 66
     1
 10
0.0
 20
0.0
 30
0.0
  0
VERTEX
  8
2
 10
1.565
 20
6.7811
 30
0.0
  0
VERTEX
  8
2
 10
1.585
 20
6.7811
 30
0.0
  0
SEQEND
  0
POLYLINE
  8
2
  6
LINETYPE_11
 40
0.009
 41
0.009
 66
     1
 10
0.0
 20
0.0
 30
0.0
  0
VERTEX
  8
2
 10
1.585
 20
6.7811
 30
0.0
  0
VERTEX
  8
2
 10
1.605
 20
6.7761
 30
0.0
  0
SEQEND
  0
POLYLINE
  8
2
  6
LINETYPE_11
 40
0.009
 41
0.009
 66
     1
 10
0.0
 20
0.0
 30
0.0
  0
VERTEX
  8
2
 10
1.605
 20
6.7761
 30
0.0
  0
VERTEX
  8
2
 10
1.605
 20
6.7861
 30
0.0
  0
SEQEND
  0
POLYLINE
  8
2
  6
LINETYPE_11
 40
0.009
 41
0.009
 66
     1
 10
0.0
 20
0.0
 30
0.0
  0
VERTEX
  8
2
 10
1.605
 20
6.7861
 30
0.0
  0
VERTEX
  8
2
 10
1.585
 20
6.7811
 30
0.0
  0
SEQEND
  0
POLYLINE
  8
2
  6
LINETYPE_11
 40
0.009
 41
0.009
 66
     1
 10
0.0
 20
0.0
 30
0.0
  0
VERTEX
  8
2
 10
5.1447
 20
6.7811
 30
0.0
  0
VERTEX
  8
2
 10
7.5
 20
6.7811
 30
0.0
  0
SEQEND
  0
POLYLINE
  8
2
  6
LINETYPE_11
 40
0.009
 41
0.009
 66
     1
 10
0.0
 20
0.0
 30
0.0
  0
VERTEX
  8
2
 10
7.5
 20
6.7811
 30
0.0
  0
VERTEX
  8
2
 10
7.375
 20
6.8061
 30
0.0
  0
SEQEND
  0
POLYLINE
  8
2
  6
LINETYPE_11
 40
0.009
 41
0.009
 66
     1
 10
0.0
 20
0.0
 30
0.0
  0
VERTEX
  8
2
 10
7.375
 20
6.8061
 30
0.0
  0
VERTEX
  8
2
 10
7.375
 20
6.7561
 30
0.0
  0
SEQEND
  0
POLYLINE
  8
2
  6
LINETYPE_11
 40
0.009
 41
0.009
 66
     1
 10
0.0
 20
0.0
 30
0.0
  0
VERTEX
  8
2
 10
7.375
 20
6.7561
 30
0.0
  0
VERTEX
  8
2
 10
7.5
 20
6.7811
 30
0.0
  0
SEQEND
  0
POLYLINE
  8
2
  6
LINETYPE_11
 40
0.009
 41
0.009
 66
     1
 10
0.0
 20
0.0
 30
0.0
  0
VERTEX
  8
2
 10
7.5
 20
6.7811
 30
0.0
  0
VERTEX
  8
2
 10
7.48
 20
6.7811
 30
0.0
  0
SEQEND
  0
POLYLINE
  8
2
  6
LINETYPE_11
 40
0.009
 41
0.009
 66
     1
 10
0.0
 20
0.0
 30
0.0
  0
VERTEX
  8
2
 10
7.48
 20
6.7811
 30
0.0
  0
VERTEX
  8
2
 10
7.38
 20
6.8011
 30
0.0
  0
SEQEND
  0
POLYLINE
  8
2
  6
LINETYPE_11
 40
0.009
 41
0.009
 66
     1
 10
0.0
 20
0.0
 30
0.0
  0
VERTEX
  8
2
 10
7.38
 20
6.8011
 30
0.0
  0
VERTEX
  8
2
 10
7.38
 20
6.7611
 30
0.0
  0
SEQEND
  0
POLYLINE
  8
2
  6
LINETYPE_11
 40
0.009
 41
0.009
 66
     1
 10
0.0
 20
0.0
 30
0.0
  0
VERTEX
  8
2
 10
7.38
 20
6.7611
 30
0.0
  0
VERTEX
  8
2
 10
7.48
 20
6.7811
 30
0.0
  0
SEQEND
  0
POLYLINE
  8
2
  6
LINETYPE_11
 40
0.009
 41
0.009
 66
     1
 10
0.0
 20
0.0
 30
0.0
  0
VERTEX
  8
2
 10
7.48
 20
6.7811
 30
0.0
  0
VERTEX
  8
2
 10
7.46
 20
6.7811
 30
0.0
  0
SEQEND
  0
POLYLINE
  8
2
  6
LINETYPE_11
 40
0.009
 41
0.009
 66
     1
 10
0.0
 20
0.0
 30
0.0
  0
VERTEX
  8
2
 10
7.46
 20
6.7811
 30
0.0
  0
VERTEX
  8
2
 10
7.385
 20
6.7961
 30
0.0
  0
SEQEND
  0
POLYLINE
  8
2
  6
LINETYPE_11
 40
0.009
 41
0.009
 66
     1
 10
0.0
 20
0.0
 30
0.0
  0
VERTEX
  8
2
 10
7.385
 20
6.7961
 30
0.0
  0
VERTEX
  8
2
 10
7.385
 20
6.7661
 30
0.0
  0
SEQEND
  0
POLYLINE
  8
2
  6
LINETYPE_11
 40
0.009
 41
0.009
 66
     1
 10
0.0
 20
0.0
 30
0.0
  0
VERTEX
  8
2
 10
7.385
 20
6.7661
 30
0.0
  0
VERTEX
  8
2
 10
7.455
 20
6.7811
 30
0.0
  0
SEQEND
  0
POLYLINE
  8
2
  6
LINETYPE_11
 40
0.009
 41
0.009
 66
     1
 10
0.0
 20
0.0
 30
0.0
  0
VERTEX
  8
2
 10
7.455
 20
6.7811
 30
0.0
  0
VERTEX
  8
2
 10
7.44
 20
6.7811
 30
0.0
  0
SEQEND
  0
POLYLINE
  8
2
  6
LINETYPE_11
 40
0.009
 41
0.009
 66
     1
 10
0.0
 20
0.0
 30
0.0
  0
VERTEX
  8
2
 10
7.44
 20
6.7811
 30
0.0
  0
VERTEX
  8
2
 10
7.39
 20
6.7911
 30
0.0
  0
SEQEND
  0
POLYLINE
  8
2
  6
LINETYPE_11
 40
0.009
 41
0.009
 66
     1
 10
0.0
 20
0.0
 30
0.0
  0
VERTEX
  8
2
 10
7.39
 20
6.7911
 30
0.0
  0
VERTEX
  8
2
 10
7.39
 20
6.7711
 30
0.0
  0
SEQEND
  0
POLYLINE
  8
2
  6
LINETYPE_11
 40
0.009
 41
0.009
 66
     1
 10
0.0
 20
0.0
 30
0.0
  0
VERTEX
  8
2
 10
7.39
 20
6.7711
 30
0.0
  0
VERTEX
  8
2
 10
7.435
 20
6.7811
 30
0.0
  0
SEQEND
  0
POLYLINE
  8
2
  6
LINETYPE_11
 40
0.009
 41
0.009
 66
     1
 10
0.0
 20
0.0
 30
0.0
  0
VERTEX
  8
2
 10
7.435
 20
6.7811
 30
0.0
  0
VERTEX
  8
2
 10
7.415
 20
6.7811
 30
0.0
  0
SEQEND
  0
POLYLINE
  8
2
  6
LINETYPE_11
 40
0.009
 41
0.009
 66
     1
 10
0.0
 20
0.0
 30
0.0
  0
VERTEX
  8
2
 10
7.415
 20
6.7811
 30
0.0
  0
VERTEX
  8
2
 10
7.395
 20
6.7861
 30
0.0
  0
SEQEND
  0
POLYLINE
  8
2
  6
LINETYPE_11
 40
0.009
 41
0.009
 66
     1
 10
0.0
 20
0.0
 30
0.0
  0
VERTEX
  8
2
 10
7.395
 20
6.7861
 30
0.0
  0
VERTEX
  8
2
 10
7.395
 20
6.7761
 30
0.0
  0
SEQEND
  0
POLYLINE
  8
2
  6
LINETYPE_11
 40
0.009
 41
0.009
 66
     1
 10
0.0
 20
0.0
 30
0.0
  0
VERTEX
  8
2
 10
7.395
 20
6.7761
 30
0.0
  0
VERTEX
  8
2
 10
7.415
 20
6.7811
 30
0.0
  0
SEQEND
  0
TEXT
  8
2
 10
4.6629
 20
6.7186
 30
0.0
 40
0.125
  1
6.00
 50
0.000000
  0
POLYLINE
  8
2
  6
LINETYPE_11
 40
0.009
 41
0.009
 66
     1
 10
0.0
 20
0.0
 30
0.0
  0
VERTEX
  8
2
 10
7.562
 20
7.0
 30
0.0
  0
VERTEX
  8
2
 10
8.1226
 20
7.0
 30
0.0
  0
SEQEND
  0
POLYLINE
  8
2
  6
LINETYPE_11
 40
0.009
 41
0.009
 66
     1
 10
0.0
 20
0.0
 30
0.0
  0
VERTEX
  8
2
 10
7.562
 20
7.25
 30
0.0
  0
VERTEX
  8
2
 10
8.1226
 20
7.25
 30
0.0
  0
SEQEND
  0
POLYLINE
  8
2
  6
LINETYPE_11
 40
0.009
 41
0.009
 66
     1
 10
0.0
 20
0.0
 30
0.0
  0
VERTEX
  8
2
 10
7.9976
 20
6.75
 30
0.0
  0
VERTEX
  8
2
 10
7.9976
 20
7.0
 30
0.0
  0
SEQEND
  0
POLYLINE
  8
2
  6
LINETYPE_11
 40
0.009
 41
0.009
 66
     1
 10
0.0
 20
0.0
 30
0.0
  0
VERTEX
  8
2
 10
7.9976
 20
7.0
 30
0.0
  0
VERTEX
  8
2
 10
7.9726
 20
6.875
 30
0.0
  0
SEQEND
  0
POLYLINE
  8
2
  6
LINETYPE_11
 40
0.009
 41
0.009
 66
     1
 10
0.0
 20
0.0
 30
0.0
  0
VERTEX
  8
2
 10
7.9726
 20
6.875
 30
0.0
  0
VERTEX
  8
2
 10
8.0226
 20
6.875
 30
0.0
  0
SEQEND
  0
POLYLINE
  8
2
  6
LINETYPE_11
 40
0.009
 41
0.009
 66
     1
 10
0.0
 20
0.0
 30
0.0
  0
VERTEX
  8
2
 10
8.0226
 20
6.875
 30
0.0
  0
VERTEX
  8
2
 10
7.9976
 20
7.0
 30
0.0
  0
SEQEND
  0
POLYLINE
  8
2
  6
LINETYPE_11
 40
0.009
 41
0.009
 66
     1
 10
0.0
 20
0.0
 30
0.0
  0
VERTEX
  8
2
 10
7.9976
 20
7.0
 30
0.0
  0
VERTEX
  8
2
 10
7.9976
 20
6.98
 30
0.0
  0
SEQEND
  0
POLYLINE
  8
2
  6
LINETYPE_11
 40
0.009
 41
0.009
 66
     1
 10
0.0
 20
0.0
 30
0.0
  0
VERTEX
  8
2
 10
7.9976
 20
6.98
 30
0.0
  0
VERTEX
  8
2
 10
7.9776
 20
6.88
 30
0.0
  0
SEQEND
  0
POLYLINE
  8
2
  6
LINETYPE_11
 40
0.009
 41
0.009
 66
     1
 10
0.0
 20
0.0
 30
0.0
  0
VERTEX
  8
2
 10
7.9776
 20
6.88
 30
0.0
  0
VERTEX
  8
2
 10
8.0176
 20
6.88
 30
0.0
  0
SEQEND
  0
POLYLINE
  8
2
  6
LINETYPE_11
 40
0.009
 41
0.009
 66
     1
 10
0.0
 20
0.0
 30
0.0
  0
VERTEX
  8
2
 10
8.0176
 20
6.88
 30
0.0
  0
VERTEX
  8
2
 10
7.9976
 20
6.98
 30
0.0
  0
SEQEND
  0
POLYLINE
  8
2
  6
LINETYPE_11
 40
0.009
 41
0.009
 66
     1
 10
0.0
 20
0.0
 30
0.0
  0
VERTEX
  8
2
 10
7.9976
 20
6.98
 30
0.0
  0
VERTEX
  8
2
 10
7.9976
 20
6.96
 30
0.0
  0
SEQEND
  0
POLYLINE
  8
2
  6
LINETYPE_11
 40
0.009
 41
0.009
 66
     1
 10
0.0
 20
0.0
 30
0.0
  0
VERTEX
  8
2
 10
7.9976
 20
6.96
 30
0.0
  0
VERTEX
  8
2
 10
7.9826
 20
6.885
 30
0.0
  0
SEQEND
  0
POLYLINE
  8
2
  6
LINETYPE_11
 40
0.009
 41
0.009
 66
     1
 10
0.0
 20
0.0
 30
0.0
  0
VERTEX
  8
2
 10
7.9826
 20
6.885
 30
0.0
  0
VERTEX
  8
2
 10
8.0126
 20
6.885
 30
0.0
  0
SEQEND
  0
POLYLINE
  8
2
  6
LINETYPE_11
 40
0.009
 41
0.009
 66
     1
 10
0.0
 20
0.0
 30
0.0
  0
VERTEX
  8
2
 10
8.0126
 20
6.885
 30
0.0
  0
VERTEX
  8
2
 10
7.9976
 20
6.955
 30
0.0
  0
SEQEND
  0
POLYLINE
  8
2
  6
LINETYPE_11
 40
0.009
 41
0.009
 66
     1
 10
0.0
 20
0.0
 30
0.0
  0
VERTEX
  8
2
 10
7.9976
 20
6.955
 30
0.0
  0
VERTEX
  8
2
 10
7.9976
 20
6.94
 30
0.0
  0
SEQEND
  0
POLYLINE
  8
2
  6
LINETYPE_11
 40
0.009
 41
0.009
 66
     1
 10
0.0
 20
0.0
 30
0.0
  0
VERTEX
  8
2
 10
7.9976
 20
6.94
 30
0.0
  0
VERTEX
  8
2
 10
7.9876
 20
6.89
 30
0.0
  0
SEQEND
  0
POLYLINE
  8
2
  6
LINETYPE_11
 40
0.009
 41
0.009
 66
     1
 10
0.0
 20
0.0
 30
0.0
  0
VERTEX
  8
2
 10
7.9876
 20
6.89
 30
0.0
  0
VERTEX
  8
2
 10
8.0076
 20
6.89
 30
0.0
  0
SEQEND
  0
POLYLINE
  8
2
  6
LINETYPE_11
 40
0.009
 41
0.009
 66
     1
 10
0.0
 20
0.0
 30
0.0
  0
VERTEX
  8
2
 10
8.0076
 20
6.89
 30
0.0
  0
VERTEX
  8
2
 10
7.9976
 20
6.935
 30
0.0
  0
SEQEND
  0
POLYLINE
  8
2
  6
LINETYPE_11
 40
0.009
 41
0.009
 66
     1
 10
0.0
 20
0.0
 30
0.0
  0
VERTEX
  8
2
 10
7.9976
 20
6.935
 30
0.0
  0
VERTEX
  8
2
 10
7.9976
 20
6.915
 30
0.0
  0
SEQEND
  0
POLYLINE
  8
2
  6
LINETYPE_11
 40
0.009
 41
0.009
 66
     1
 10
0.0
 20
0.0
 30
0.0
  0
VERTEX
  8
2
 10
7.9976
 20
6.915
 30
0.0
  0
VERTEX
  8
2
 10
7.9926
 20
6.895
 30
0.0
  0
SEQEND
  0
POLYLINE
  8
2
  6
LINETYPE_11
 40
0.009
 41
0.009
 66
     1
 10
0.0
 20
0.0
 30
0.0
  0
VERTEX
  8
2
 10
7.9926
 20
6.895
 30
0.0
  0
VERTEX
  8
2
 10
8.0026
 20
6.895
 30
0.0
  0
SEQEND
  0
POLYLINE
  8
2
  6
LINETYPE_11
 40
0.009
 41
0.009
 66
     1
 10
0.0
 20
0.0
 30
0.0
  0
VERTEX
  8
2
 10
8.0026
 20
6.895
 30
0.0
  0
VERTEX
  8
2
 10
7.9976
 20
6.915
 30
0.0
  0
SEQEND
  0
POLYLINE
  8
2
  6
LINETYPE_11
 40
0.009
 41
0.009
 66
     1
 10
0.0
 20
0.0
 30
0.0
  0
VERTEX
  8
2
 10
7.9976
 20
7.5
 30
0.0
  0
VERTEX
  8
2
 10
7.9976
 20
7.25
 30
0.0
  0
SEQEND
  0
POLYLINE
  8
2
  6
LINETYPE_11
 40
0.009
 41
0.009
 66
     1
 10
0.0
 20
0.0
 30
0.0
  0
VERTEX
  8
2
 10
7.9976
 20
7.25
 30
0.0
  0
VERTEX
  8
2
 10
8.0226
 20
7.375
 30
0.0
  0
SEQEND
  0
POLYLINE
  8
2
  6
LINETYPE_11
 40
0.009
 41
0.009
 66
     1
 10
0.0
 20
0.0
 30
0.0
  0
VERTEX
  8
2
 10
8.0226
 20
7.375
 30
0.0
  0
VERTEX
  8
2
 10
7.9726
 20
7.375
 30
0.0
  0
SEQEND
  0
POLYLINE
  8
2
  6
LINETYPE_11
 40
0.009
 41
0.009
 66
     1
 10
0.0
 20
0.0
 30
0.0
  0
VERTEX
  8
2
 10
7.9726
 20
7.375
 30
0.0
  0
VERTEX
  8
2
 10
7.9976
 20
7.25
 30
0.0
  0
SEQEND
  0
POLYLINE
  8
2
  6
LINETYPE_11
 40
0.009
 41
0.009
 66
     1
 10
0.0
 20
0.0
 30
0.0
  0
VERTEX
  8
2
 10
7.9976
 20
7.25
 30
0.0
  0
VERTEX
  8
2
 10
7.9976
 20
7.27
 30
0.0
  0
SEQEND
  0
POLYLINE
  8
2
  6
LINETYPE_11
 40
0.009
 41
0.009
 66
     1
 10
0.0
 20
0.0
 30
0.0
  0
VERTEX
  8
2
 10
7.9976
 20
7.27
 30
0.0
  0
VERTEX
  8
2
 10
8.0176
 20
7.37
 30
0.0
  0
SEQEND
  0
POLYLINE
  8
2
  6
LINETYPE_11
 40
0.009
 41
0.009
 66
     1
 10
0.0
 20
0.0
 30
0.0
  0
VERTEX
  8
2
 10
8.0176
 20
7.37
 30
0.0
  0
VERTEX
  8
2
 10
7.9776
 20
7.37
 30
0.0
  0
SEQEND
  0
POLYLINE
  8
2
  6
LINETYPE_11
 40
0.009
 41
0.009
 66
     1
 10
0.0
 20
0.0
 30
0.0
  0
VERTEX
  8
2
 10
7.9776
 20
7.37
 30
0.0
  0
VERTEX
  8
2
 10
7.9976
 20
7.27
 30
0.0
  0
SEQEND
  0
POLYLINE
  8
2
  6
LINETYPE_11
 40
0.009
 41
0.009
 66
     1
 10
0.0
 20
0.0
 30
0.0
  0
VERTEX
  8
2
 10
7.9976
 20
7.27
 30
0.0
  0
VERTEX
  8
2
 10
7.9976
 20
7.29
 30
0.0
  0
SEQEND
  0
POLYLINE
  8
2
  6
LINETYPE_11
 40
0.009
 41
0.009
 66
     1
 10
0.0
 20
0.0
 30
0.0
  0
VERTEX
  8
2
 10
7.9976
 20
7.29
 30
0.0
  0
VERTEX
  8
2
 10
8.0126
 20
7.365
 30
0.0
  0
SEQEND
  0
POLYLINE
  8
2
  6
LINETYPE_11
 40
0.009
 41
0.009
 66
     1
 10
0.0
 20
0.0
 30
0.0
  0
VERTEX
  8
2
 10
8.0126
 20
7.365
 30
0.0
  0
VERTEX
  8
2
 10
7.9826
 20
7.365
 30
0.0
  0
SEQEND
  0
POLYLINE
  8
2
  6
LINETYPE_11
 40
0.009
 41
0.009
 66
     1
 10
0.0
 20
0.0
 30
0.0
  0
VERTEX
  8
2
 10
7.9826
 20
7.365
 30
0.0
  0
VERTEX
  8
2
 10
7.9976
 20
7.295
 30
0.0
  0
SEQEND
  0
POLYLINE
  8
2
  6
LINETYPE_11
 40
0.009
 41
0.009
 66
     1
 10
0.0
 20
0.0
 30
0.0
  0
VERTEX
  8
2
 10
7.9976
 20
7.295
 30
0.0
  0
VERTEX
  8
2
 10
7.9976
 20
7.31
 30
0.0
  0
SEQEND
  0
POLYLINE
  8
2
  6
LINETYPE_11
 40
0.009
 41
0.009
 66
     1
 10
0.0
 20
0.0
 30
0.0
  0
VERTEX
  8
2
 10
7.9976
 20
7.31
 30
0.0
  0
VERTEX
  8
2
 10
8.0076
 20
7.36
 30
0.0
  0
SEQEND
  0
POLYLINE
  8
2
  6
LINETYPE_11
 40
0.009
 41
0.009
 66
     1
 10
0.0
 20
0.0
 30
0.0
  0
VERTEX
  8
2
 10
8.0076
 20
7.36
 30
0.0
  0
VERTEX
  8
2
 10
7.9876
 20
7.36
 30
0.0
  0
SEQEND
  0
POLYLINE
  8
2
  6
LINETYPE_11
 40
0.009
 41
0.009
 66
     1
 10
0.0
 20
0.0
 30
0.0
  0
VERTEX
  8
2
 10
7.9876
 20
7.36
 30
0.0
  0
VERTEX
  8
2
 10
7.9976
 20
7.315
 30
0.0
  0
SEQEND
  0
POLYLINE
  8
2
  6
LINETYPE_11
 40
0.009
 41
0.009
 66
     1
 10
0.0
 20
0.0
 30
0.0
  0
VERTEX
  8
2
 10
7.9976
 20
7.315
 30
0.0
  0
VERTEX
  8
2
 10
7.9976
 20
7.335
 30
0.0
  0
SEQEND
  0
POLYLINE
  8
2
  6
LINETYPE_11
 40
0.009
 41
0.009
 66
     1
 10
0.0
 20
0.0
 30
0.0
  0
VERTEX
  8
2
 10
7.9976
 20
7.335
 30
0.0
  0
VERTEX
  8
2
 10
8.0026
 20
7.355
 30
0.0
  0
SEQEND
  0
POLYLINE
  8
2
  6
LINETYPE_11
 40
0.009
 41
0.009
 66
     1
 10
0.0
 20
0.0
 30
0.0
  0
VERTEX
  8
2
 10
8.0026
 20
7.355
 30
0.0
  0
VERTEX
  8
2
 10
7.9926
 20
7.355
 30
0.0
  0
SEQEND
  0
POLYLINE
  8
2
  6
LINETYPE_11
 40
0.009
 41
0.009
 66
     1
 10
0.0
 20
0.0
 30
0.0
  0
VERTEX
  8
2
 10
7.9926
 20
7.355
 30
0.0
  0
VERTEX
  8
2
 10
7.9976
 20
7.335
 30
0.0
  0
SEQEND
  0
TEXT
  8
2
 10
7.8502
 20
6.563
 30
0.0
 40
0.125
  1
.25
 50
0.000000
  0
POLYLINE
  8
2
  6
LINETYPE_11
 40
0.009
 41
0.009
 66
     1
 10
0.0
 20
0.0
 30
0.0
  0
VERTEX
  8
2
 10
7.562
 20
3.0
 30
0.0
  0
VERTEX
  8
2
 10
8.6153
 20
3.0
 30
0.0
  0
SEQEND
  0
POLYLINE
  8
2
  6
LINETYPE_11
 40
0.009
 41
0.009
 66
     1
 10
0.0
 20
0.0
 30
0.0
  0
VERTEX
  8
2
 10
5.062
 20
3.75
 30
0.0
  0
VERTEX
  8
2
 10
8.6153
 20
3.75
 30
0.0
  0
SEQEND
  0
POLYLINE
  8
2
  6
LINETYPE_11
 40
0.009
 41
0.009
 66
     1
 10
0.0
 20
0.0
 30
0.0
  0
VERTEX
  8
2
 10
8.4903
 20
2.75
 30
0.0
  0
VERTEX
  8
2
 10
8.4903
 20
3.0
 30
0.0
  0
SEQEND
  0
POLYLINE
  8
2
  6
LINETYPE_11
 40
0.009
 41
0.009
 66
     1
 10
0.0
 20
0.0
 30
0.0
  0
VERTEX
  8
2
 10
8.4903
 20
3.0
 30
0.0
  0
VERTEX
  8
2
 10
8.4653
 20
2.875
 30
0.0
  0
SEQEND
  0
POLYLINE
  8
2
  6
LINETYPE_11
 40
0.009
 41
0.009
 66
     1
 10
0.0
 20
0.0
 30
0.0
  0
VERTEX
  8
2
 10
8.4653
 20
2.875
 30
0.0
  0
VERTEX
  8
2
 10
8.5153
 20
2.875
 30
0.0
  0
SEQEND
  0
POLYLINE
  8
2
  6
LINETYPE_11
 40
0.009
 41
0.009
 66
     1
 10
0.0
 20
0.0
 30
0.0
  0
VERTEX
  8
2
 10
8.5153
 20
2.875
 30
0.0
  0
VERTEX
  8
2
 10
8.4903
 20
3.0
 30
0.0
  0
SEQEND
  0
POLYLINE
  8
2
  6
LINETYPE_11
 40
0.009
 41
0.009
 66
     1
 10
0.0
 20
0.0
 30
0.0
  0
VERTEX
  8
2
 10
8.4903
 20
3.0
 30
0.0
  0
VERTEX
  8
2
 10
8.4903
 20
2.98
 30
0.0
  0
SEQEND
  0
POLYLINE
  8
2
  6
LINETYPE_11
 40
0.009
 41
0.009
 66
     1
 10
0.0
 20
0.0
 30
0.0
  0
VERTEX
  8
2
 10
8.4903
 20
2.98
 30
0.0
  0
VERTEX
  8
2
 10
8.4703
 20
2.88
 30
0.0
  0
SEQEND
  0
POLYLINE
  8
2
  6
LINETYPE_11
 40
0.009
 41
0.009
 66
     1
 10
0.0
 20
0.0
 30
0.0
  0
VERTEX
  8
2
 10
8.4703
 20
2.88
 30
0.0
  0
VERTEX
  8
2
 10
8.5103
 20
2.88
 30
0.0
  0
SEQEND
  0
POLYLINE
  8
2
  6
LINETYPE_11
 40
0.009
 41
0.009
 66
     1
 10
0.0
 20
0.0
 30
0.0
  0
VERTEX
  8
2
 10
8.5103
 20
2.88
 30
0.0
  0
VERTEX
  8
2
 10
8.4903
 20
2.98
 30
0.0
  0
SEQEND
  0
POLYLINE
  8
2
  6
LINETYPE_11
 40
0.009
 41
0.009
 66
     1
 10
0.0
 20
0.0
 30
0.0
  0
VERTEX
  8
2
 10
8.4903
 20
2.98
 30
0.0
  0
VERTEX
  8
2
 10
8.4903
 20
2.96
 30
0.0
  0
SEQEND
  0
POLYLINE
  8
2
  6
LINETYPE_11
 40
0.009
 41
0.009
 66
     1
 10
0.0
 20
0.0
 30
0.0
  0
VERTEX
  8
2
 10
8.4903
 20
2.96
 30
0.0
  0
VERTEX
  8
2
 10
8.4753
 20
2.885
 30
0.0
  0
SEQEND
  0
POLYLINE
  8
2
  6
LINETYPE_11
 40
0.009
 41
0.009
 66
     1
 10
0.0
 20
0.0
 30
0.0
  0
VERTEX
  8
2
 10
8.4753
 20
2.885
 30
0.0
  0
VERTEX
  8
2
 10
8.5053
 20
2.885
 30
0.0
  0
SEQEND
  0
POLYLINE
  8
2
  6
LINETYPE_11
 40
0.009
 41
0.009
 66
     1
 10
0.0
 20
0.0
 30
0.0
  0
VERTEX
  8
2
 10
8.5053
 20
2.885
 30
0.0
  0
VERTEX
  8
2
 10
8.4903
 20
2.955
 30
0.0
  0
SEQEND
  0
POLYLINE
  8
2
  6
LINETYPE_11
 40
0.009
 41
0.009
 66
     1
 10
0.0
 20
0.0
 30
0.0
  0
VERTEX
  8
2
 10
8.4903
 20
2.955
 30
0.0
  0
VERTEX
  8
2
 10
8.4903
 20
2.94
 30
0.0
  0
SEQEND
  0
POLYLINE
  8
2
  6
LINETYPE_11
 40
0.009
 41
0.009
 66
     1
 10
0.0
 20
0.0
 30
0.0
  0
VERTEX
  8
2
 10
8.4903
 20
2.94
 30
0.0
  0
VERTEX
  8
2
 10
8.4803
 20
2.89
 30
0.0
  0
SEQEND
  0
POLYLINE
  8
2
  6
LINETYPE_11
 40
0.009
 41
0.009
 66
     1
 10
0.0
 20
0.0
 30
0.0
  0
VERTEX
  8
2
 10
8.4803
 20
2.89
 30
0.0
  0
VERTEX
  8
2
 10
8.5003
 20
2.89
 30
0.0
  0
SEQEND
  0
POLYLINE
  8
2
  6
LINETYPE_11
 40
0.009
 41
0.009
 66
     1
 10
0.0
 20
0.0
 30
0.0
  0
VERTEX
  8
2
 10
8.5003
 20
2.89
 30
0.0
  0
VERTEX
  8
2
 10
8.4903
 20
2.935
 30
0.0
  0
SEQEND
  0
POLYLINE
  8
2
  6
LINETYPE_11
 40
0.009
 41
0.009
 66
     1
 10
0.0
 20
0.0
 30
0.0
  0
VERTEX
  8
2
 10
8.4903
 20
2.935
 30
0.0
  0
VERTEX
  8
2
 10
8.4903
 20
2.915
 30
0.0
  0
SEQEND
  0
POLYLINE
  8
2
  6
LINETYPE_11
 40
0.009
 41
0.009
 66
     1
 10
0.0
 20
0.0
 30
0.0
  0
VERTEX
  8
2
 10
8.4903
 20
2.915
 30
0.0
  0
VERTEX
  8
2
 10
8.4853
 20
2.895
 30
0.0
  0
SEQEND
  0
POLYLINE
  8
2
  6
LINETYPE_11
 40
0.009
 41
0.009
 66
     1
 10
0.0
 20
0.0
 30
0.0
  0
VERTEX
  8
2
 10
8.4853
 20
2.895
 30
0.0
  0
VERTEX
  8
2
 10
8.4953
 20
2.895
 30
0.0
  0
SEQEND
  0
POLYLINE
  8
2
  6
LINETYPE_11
 40
0.009
 41
0.009
 66
     1
 10
0.0
 20
0.0
 30
0.0
  0
VERTEX
  8
2
 10
8.4953
 20
2.895
 30
0.0
  0
VERTEX
  8
2
 10
8.4903
 20
2.915
 30
0.0
  0
SEQEND
  0
POLYLINE
  8
2
  6
LINETYPE_11
 40
0.009
 41
0.009
 66
     1
 10
0.0
 20
0.0
 30
0.0
  0
VERTEX
  8
2
 10
8.4903
 20
4.0
 30
0.0
  0
VERTEX
  8
2
 10
8.4903
 20
3.75
 30
0.0
  0
SEQEND
  0
POLYLINE
  8
2
  6
LINETYPE_11
 40
0.009
 41
0.009
 66
     1
 10
0.0
 20
0.0
 30
0.0
  0
VERTEX
  8
2
 10
8.4903
 20
3.75
 30
0.0
  0
VERTEX
  8
2
 10
8.5153
 20
3.875
 30
0.0
  0
SEQEND
  0
POLYLINE
  8
2
  6
LINETYPE_11
 40
0.009
 41
0.009
 66
     1
 10
0.0
 20
0.0
 30
0.0
  0
VERTEX
  8
2
 10
8.5153
 20
3.875
 30
0.0
  0
VERTEX
  8
2
 10
8.4653
 20
3.875
 30
0.0
  0
SEQEND
  0
POLYLINE
  8
2
  6
LINETYPE_11
 40
0.009
 41
0.009
 66
     1
 10
0.0
 20
0.0
 30
0.0
  0
VERTEX
  8
2
 10
8.4653
 20
3.875
 30
0.0
  0
VERTEX
  8
2
 10
8.4903
 20
3.75
 30
0.0
  0
SEQEND
  0
POLYLINE
  8
2
  6
LINETYPE_11
 40
0.009
 41
0.009
 66
     1
 10
0.0
 20
0.0
 30
0.0
  0
VERTEX
  8
2
 10
8.4903
 20
3.75
 30
0.0
  0
VERTEX
  8
2
 10
8.4903
 20
3.77
 30
0.0
  0
SEQEND
  0
POLYLINE
  8
2
  6
LINETYPE_11
 40
0.009
 41
0.009
 66
     1
 10
0.0
 20
0.0
 30
0.0
  0
VERTEX
  8
2
 10
8.4903
 20
3.77
 30
0.0
  0
VERTEX
  8
2
 10
8.5103
 20
3.87
 30
0.0
  0
SEQEND
  0
POLYLINE
  8
2
  6
LINETYPE_11
 40
0.009
 41
0.009
 66
     1
 10
0.0
 20
0.0
 30
0.0
  0
VERTEX
  8
2
 10
8.5103
 20
3.87
 30
0.0
  0
VERTEX
  8
2
 10
8.4703
 20
3.87
 30
0.0
  0
SEQEND
  0
POLYLINE
  8
2
  6
LINETYPE_11
 40
0.009
 41
0.009
 66
     1
 10
0.0
 20
0.0
 30
0.0
  0
VERTEX
  8
2
 10
8.4703
 20
3.87
 30
0.0
  0
VERTEX
  8
2
 10
8.4903
 20
3.77
 30
0.0
  0
SEQEND
  0
POLYLINE
  8
2
  6
LINETYPE_11
 40
0.009
 41
0.009
 66
     1
 10
0.0
 20
0.0
 30
0.0
  0
VERTEX
  8
2
 10
8.4903
 20
3.77
 30
0.0
  0
VERTEX
  8
2
 10
8.4903
 20
3.79
 30
0.0
  0
SEQEND
  0
POLYLINE
  8
2
  6
LINETYPE_11
 40
0.009
 41
0.009
 66
     1
 10
0.0
 20
0.0
 30
0.0
  0
VERTEX
  8
2
 10
8.4903
 20
3.79
 30
0.0
  0
VERTEX
  8
2
 10
8.5053
 20
3.865
 30
0.0
  0
SEQEND
  0
POLYLINE
  8
2
  6
LINETYPE_11
 40
0.009
 41
0.009
 66
     1
 10
0.0
 20
0.0
 30
0.0
  0
VERTEX
  8
2
 10
8.5053
 20
3.865
 30
0.0
  0
VERTEX
  8
2
 10
8.4753
 20
3.865
 30
0.0
  0
SEQEND
  0
POLYLINE
  8
2
  6
LINETYPE_11
 40
0.009
 41
0.009
 66
     1
 10
0.0
 20
0.0
 30
0.0
  0
VERTEX
  8
2
 10
8.4753
 20
3.865
 30
0.0
  0
VERTEX
  8
2
 10
8.4903
 20
3.795
 30
0.0
  0
SEQEND
  0
POLYLINE
  8
2
  6
LINETYPE_11
 40
0.009
 41
0.009
 66
     1
 10
0.0
 20
0.0
 30
0.0
  0
VERTEX
  8
2
 10
8.4903
 20
3.795
 30
0.0
  0
VERTEX
  8
2
 10
8.4903
 20
3.81
 30
0.0
  0
SEQEND
  0
POLYLINE
  8
2
  6
LINETYPE_11
 40
0.009
 41
0.009
 66
     1
 10
0.0
 20
0.0
 30
0.0
  0
VERTEX
  8
2
 10
8.4903
 20
3.81
 30
0.0
  0
VERTEX
  8
2
 10
8.5003
 20
3.86
 30
0.0
  0
SEQEND
  0
POLYLINE
  8
2
  6
LINETYPE_11
 40
0.009
 41
0.009
 66
     1
 10
0.0
 20
0.0
 30
0.0
  0
VERTEX
  8
2
 10
8.5003
 20
3.86
 30
0.0
  0
VERTEX
  8
2
 10
8.4803
 20
3.86
 30
0.0
  0
SEQEND
  0
POLYLINE
  8
2
  6
LINETYPE_11
 40
0.009
 41
0.009
 66
     1
 10
0.0
 20
0.0
 30
0.0
  0
VERTEX
  8
2
 10
8.4803
 20
3.86
 30
0.0
  0
VERTEX
  8
2
 10
8.4903
 20
3.815
 30
0.0
  0
SEQEND
  0
POLYLINE
  8
2
  6
LINETYPE_11
 40
0.009
 41
0.009
 66
     1
 10
0.0
 20
0.0
 30
0.0
  0
VERTEX
  8
2
 10
8.4903
 20
3.815
 30
0.0
  0
VERTEX
  8
2
 10
8.4903
 20
3.835
 30
0.0
  0
SEQEND
  0
POLYLINE
  8
2
  6
LINETYPE_11
 40
0.009
 41
0.009
 66
     1
 10
0.0
 20
0.0
 30
0.0
  0
VERTEX
  8
2
 10
8.4903
 20
3.835
 30
0.0
  0
VERTEX
  8
2
 10
8.4953
 20
3.855
 30
0.0
  0
SEQEND
  0
POLYLINE
  8
2
  6
LINETYPE_11
 40
0.009
 41
0.009
 66
     1
 10
0.0
 20
0.0
 30
0.0
  0
VERTEX
  8
2
 10
8.4953
 20
3.855
 30
0.0
  0
VERTEX
  8
2
 10
8.4853
 20
3.855
 30
0.0
  0
SEQEND
  0
POLYLINE
  8
2
  6
LINETYPE_11
 40
0.009
 41
0.009
 66
     1
 10
0.0
 20
0.0
 30
0.0
  0
VERTEX
  8
2
 10
8.4853
 20
3.855
 30
0.0
  0
VERTEX
  8
2
 10
8.4903
 20
3.835
 30
0.0
  0
SEQEND
  0
TEXT
  8
2
 10
8.3429
 20
3.2915
 30
0.0
 40
0.125
  1
.75
 50
0.000000
  0
POLYLINE
  8
2
  6
LINETYPE_11
 40
0.009
 41
0.009
 66
     1
 10
0.0
 20
0.0
 30
0.0
  0
VERTEX
  8
2
 10
7.562
 20
3.0
 30
0.0
  0
VERTEX
  8
2
 10
9.1305
 20
3.0
 30
0.0
  0
SEQEND
  0
POLYLINE
  8
2
  6
LINETYPE_11
 40
0.009
 41
0.009
 66
     1
 10
0.0
 20
0.0
 30
0.0
  0
VERTEX
  8
2
 10
6.562
 20
4.0
 30
0.0
  0
VERTEX
  8
2
 10
9.1305
 20
4.0
 30
0.0
  0
SEQEND
  0
POLYLINE
  8
2
  6
LINETYPE_11
 40
0.009
 41
0.009
 66
     1
 10
0.0
 20
0.0
 30
0.0
  0
VERTEX
  8
2
 10
9.0055
 20
3.4759
 30
0.0
  0
VERTEX
  8
2
 10
9.0055
 20
3.0
 30
0.0
  0
SEQEND
  0
POLYLINE
  8
2
  6
LINETYPE_11
 40
0.009
 41
0.009
 66
     1
 10
0.0
 20
0.0
 30
0.0
  0
VERTEX
  8
2
 10
9.0055
 20
3.0
 30
0.0
  0
VERTEX
  8
2
 10
9.0305
 20
3.125
 30
0.0
  0
SEQEND
  0
POLYLINE
  8
2
  6
LINETYPE_11
 40
0.009
 41
0.009
 66
     1
 10
0.0
 20
0.0
 30
0.0
  0
VERTEX
  8
2
 10
9.0305
 20
3.125
 30
0.0
  0
VERTEX
  8
2
 10
8.9805
 20
3.125
 30
0.0
  0
SEQEND
  0
POLYLINE
  8
2
  6
LINETYPE_11
 40
0.009
 41
0.009
 66
     1
 10
0.0
 20
0.0
 30
0.0
  0
VERTEX
  8
2
 10
8.9805
 20
3.125
 30
0.0
  0
VERTEX
  8
2
 10
9.0055
 20
3.0
 30
0.0
  0
SEQEND
  0
POLYLINE
  8
2
  6
LINETYPE_11
 40
0.009
 41
0.009
 66
     1
 10
0.0
 20
0.0
 30
0.0
  0
VERTEX
  8
2
 10
9.0055
 20
3.0
 30
0.0
  0
VERTEX
  8
2
 10
9.0055
 20
3.02
 30
0.0
  0
SEQEND
  0
POLYLINE
  8
2
  6
LINETYPE_11
 40
0.009
 41
0.009
 66
     1
 10
0.0
 20
0.0
 30
0.0
  0
VERTEX
  8
2
 10
9.0055
 20
3.02
 30
0.0
  0
VERTEX
  8
2
 10
9.0255
 20
3.12
 30
0.0
  0
SEQEND
  0
POLYLINE
  8
2
  6
LINETYPE_11
 40
0.009
 41
0.009
 66
     1
 10
0.0
 20
0.0
 30
0.0
  0
VERTEX
  8
2
 10
9.0255
 20
3.12
 30
0.0
  0
VERTEX
  8
2
 10
8.9855
 20
3.12
 30
0.0
  0
SEQEND
  0
POLYLINE
  8
2
  6
LINETYPE_11
 40
0.009
 41
0.009
 66
     1
 10
0.0
 20
0.0
 30
0.0
  0
VERTEX
  8
2
 10
8.9855
 20
3.12
 30
0.0
  0
VERTEX
  8
2
 10
9.0055
 20
3.02
 30
0.0
  0
SEQEND
  0
POLYLINE
  8
2
  6
LINETYPE_11
 40
0.009
 41
0.009
 66
     1
 10
0.0
 20
0.0
 30
0.0
  0
VERTEX
  8
2
 10
9.0055
 20
3.02
 30
0.0
  0
VERTEX
  8
2
 10
9.0055
 20
3.04
 30
0.0
  0
SEQEND
  0
POLYLINE
  8
2
  6
LINETYPE_11
 40
0.009
 41
0.009
 66
     1
 10
0.0
 20
0.0
 30
0.0
  0
VERTEX
  8
2
 10
9.0055
 20
3.04
 30
0.0
  0
VERTEX
  8
2
 10
9.0205
 20
3.115
 30
0.0
  0
SEQEND
  0
POLYLINE
  8
2
  6
LINETYPE_11
 40
0.009
 41
0.009
 66
     1
 10
0.0
 20
0.0
 30
0.0
  0
VERTEX
  8
2
 10
9.0205
 20
3.115
 30
0.0
  0
VERTEX
  8
2
 10
8.9905
 20
3.115
 30
0.0
  0
SEQEND
  0
POLYLINE
  8
2
  6
LINETYPE_11
 40
0.009
 41
0.009
 66
     1
 10
0.0
 20
0.0
 30
0.0
  0
VERTEX
  8
2
 10
8.9905
 20
3.115
 30
0.0
  0
VERTEX
  8
2
 10
9.0055
 20
3.045
 30
0.0
  0
SEQEND
  0
POLYLINE
  8
2
  6
LINETYPE_11
 40
0.009
 41
0.009
 66
     1
 10
0.0
 20
0.0
 30
0.0
  0
VERTEX
  8
2
 10
9.0055
 20
3.045
 30
0.0
  0
VERTEX
  8
2
 10
9.0055
 20
3.06
 30
0.0
  0
SEQEND
  0
POLYLINE
  8
2
  6
LINETYPE_11
 40
0.009
 41
0.009
 66
     1
 10
0.0
 20
0.0
 30
0.0
  0
VERTEX
  8
2
 10
9.0055
 20
3.06
 30
0.0
  0
VERTEX
  8
2
 10
9.0155
 20
3.11
 30
0.0
  0
SEQEND
  0
POLYLINE
  8
2
  6
LINETYPE_11
 40
0.009
 41
0.009
 66
     1
 10
0.0
 20
0.0
 30
0.0
  0
VERTEX
  8
2
 10
9.0155
 20
3.11
 30
0.0
  0
VERTEX
  8
2
 10
8.9955
 20
3.11
 30
0.0
  0
SEQEND
  0
POLYLINE
  8
2
  6
LINETYPE_11
 40
0.009
 41
0.009
 66
     1
 10
0.0
 20
0.0
 30
0.0
  0
VERTEX
  8
2
 10
8.9955
 20
3.11
 30
0.0
  0
VERTEX
  8
2
 10
9.0055
 20
3.065
 30
0.0
  0
SEQEND
  0
POLYLINE
  8
2
  6
LINETYPE_11
 40
0.009
 41
0.009
 66
     1
 10
0.0
 20
0.0
 30
0.0
  0
VERTEX
  8
2
 10
9.0055
 20
3.065
 30
0.0
  0
VERTEX
  8
2
 10
9.0055
 20
3.085
 30
0.0
  0
SEQEND
  0
POLYLINE
  8
2
  6
LINETYPE_11
 40
0.009
 41
0.009
 66
     1
 10
0.0
 20
0.0
 30
0.0
  0
VERTEX
  8
2
 10
9.0055
 20
3.085
 30
0.0
  0
VERTEX
  8
2
 10
9.0105
 20
3.105
 30
0.0
  0
SEQEND
  0
POLYLINE
  8
2
  6
LINETYPE_11
 40
0.009
 41
0.009
 66
     1
 10
0.0
 20
0.0
 30
0.0
  0
VERTEX
  8
2
 10
9.0105
 20
3.105
 30
0.0
  0
VERTEX
  8
2
 10
9.0005
 20
3.105
 30
0.0
  0
SEQEND
  0
POLYLINE
  8
2
  6
LINETYPE_11
 40
0.009
 41
0.009
 66
     1
 10
0.0
 20
0.0
 30
0.0
  0
VERTEX
  8
2
 10
9.0005
 20
3.105
 30
0.0
  0
VERTEX
  8
2
 10
9.0055
 20
3.085
 30
0.0
  0
SEQEND
  0
POLYLINE
  8
2
  6
LINETYPE_11
 40
0.009
 41
0.009
 66
     1
 10
0.0
 20
0.0
 30
0.0
  0
VERTEX
  8
2
 10
9.0055
 20
3.7249
 30
0.0
  0
VERTEX
  8
2
 10
9.0055
 20
4.0
 30
0.0
  0
SEQEND
  0
POLYLINE
  8
2
  6
LINETYPE_11
 40
0.009
 41
0.009
 66
     1
 10
0.0
 20
0.0
 30
0.0
  0
VERTEX
  8
2
 10
9.0055
 20
4.0
 30
0.0
  0
VERTEX
  8
2
 10
8.9805
 20
3.875
 30
0.0
  0
SEQEND
  0
POLYLINE
  8
2
  6
LINETYPE_11
 40
0.009
 41
0.009
 66
     1
 10
0.0
 20
0.0
 30
0.0
  0
VERTEX
  8
2
 10
8.9805
 20
3.875
 30
0.0
  0
VERTEX
  8
2
 10
9.0305
 20
3.875
 30
0.0
  0
SEQEND
  0
POLYLINE
  8
2
  6
LINETYPE_11
 40
0.009
 41
0.009
 66
     1
 10
0.0
 20
0.0
 30
0.0
  0
VERTEX
  8
2
 10
9.0305
 20
3.875
 30
0.0
  0
VERTEX
  8
2
 10
9.0055
 20
4.0
 30
0.0
  0
SEQEND
  0
POLYLINE
  8
2
  6
LINETYPE_11
 40
0.009
 41
0.009
 66
     1
 10
0.0
 20
0.0
 30
0.0
  0
VERTEX
  8
2
 10
9.0055
 20
4.0
 30
0.0
  0
VERTEX
  8
2
 10
9.0055
 20
3.98
 30
0.0
  0
SEQEND
  0
POLYLINE
  8
2
  6
LINETYPE_11
 40
0.009
 41
0.009
 66
     1
 10
0.0
 20
0.0
 30
0.0
  0
VERTEX
  8
2
 10
9.0055
 20
3.98
 30
0.0
  0
VERTEX
  8
2
 10
8.9855
 20
3.88
 30
0.0
  0
SEQEND
  0
POLYLINE
  8
2
  6
LINETYPE_11
 40
0.009
 41
0.009
 66
     1
 10
0.0
 20
0.0
 30
0.0
  0
VERTEX
  8
2
 10
8.9855
 20
3.88
 30
0.0
  0
VERTEX
  8
2
 10
9.0255
 20
3.88
 30
0.0
  0
SEQEND
  0
POLYLINE
  8
2
  6
LINETYPE_11
 40
0.009
 41
0.009
 66
     1
 10
0.0
 20
0.0
 30
0.0
  0
VERTEX
  8
2
 10
9.0255
 20
3.88
 30
0.0
  0
VERTEX
  8
2
 10
9.0055
 20
3.98
 30
0.0
  0
SEQEND
  0
POLYLINE
  8
2
  6
LINETYPE_11
 40
0.009
 41
0.009
 66
     1
 10
0.0
 20
0.0
 30
0.0
  0
VERTEX
  8
2
 10
9.0055
 20
3.98
 30
0.0
  0
VERTEX
  8
2
 10
9.0055
 20
3.96
 30
0.0
  0
SEQEND
  0
POLYLINE
  8
2
  6
LINETYPE_11
 40
0.009
 41
0.009
 66
     1
 10
0.0
 20
0.0
 30
0.0
  0
VERTEX
  8
2
 10
9.0055
 20
3.96
 30
0.0
  0
VERTEX
  8
2
 10
8.9905
 20
3.885
 30
0.0
  0
SEQEND
  0
POLYLINE
  8
2
  6
LINETYPE_11
 40
0.009
 41
0.009
 66
     1
 10
0.0
 20
0.0
 30
0.0
  0
VERTEX
  8
2
 10
8.9905
 20
3.885
 30
0.0
  0
VERTEX
  8
2
 10
9.0205
 20
3.885
 30
0.0
  0
SEQEND
  0
POLYLINE
  8
2
  6
LINETYPE_11
 40
0.009
 41
0.009
 66
     1
 10
0.0
 20
0.0
 30
0.0
  0
VERTEX
  8
2
 10
9.0205
 20
3.885
 30
0.0
  0
VERTEX
  8
2
 10
9.0055
 20
3.955
 30
0.0
  0
SEQEND
  0
POLYLINE
  8
2
  6
LINETYPE_11
 40
0.009
 41
0.009
 66
     1
 10
0.0
 20
0.0
 30
0.0
  0
VERTEX
  8
2
 10
9.0055
 20
3.955
 30
0.0
  0
VERTEX
  8
2
 10
9.0055
 20
3.94
 30
0.0
  0
SEQEND
  0
POLYLINE
  8
2
  6
LINETYPE_11
 40
0.009
 41
0.009
 66
     1
 10
0.0
 20
0.0
 30
0.0
  0
VERTEX
  8
2
 10
9.0055
 20
3.94
 30
0.0
  0
VERTEX
  8
2
 10
8.9955
 20
3.89
 30
0.0
  0
SEQEND
  0
POLYLINE
  8
2
  6
LINETYPE_11
 40
0.009
 41
0.009
 66
     1
 10
0.0
 20
0.0
 30
0.0
  0
VERTEX
  8
2
 10
8.9955
 20
3.89
 30
0.0
  0
VERTEX
  8
2
 10
9.0155
 20
3.89
 30
0.0
  0
SEQEND
  0
POLYLINE
  8
2
  6
LINETYPE_11
 40
0.009
 41
0.009
 66
     1
 10
0.0
 20
0.0
 30
0.0
  0
VERTEX
  8
2
 10
9.0155
 20
3.89
 30
0.0
  0
VERTEX
  8
2
 10
9.0055
 20
3.935
 30
0.0
  0
SEQEND
  0
POLYLINE
  8
2
  6
LINETYPE_11
 40
0.009
 41
0.009
 66
     1
 10
0.0
 20
0.0
 30
0.0
  0
VERTEX
  8
2
 10
9.0055
 20
3.935
 30
0.0
  0
VERTEX
  8
2
 10
9.0055
 20
3.915
 30
0.0
  0
SEQEND
  0
POLYLINE
  8
2
  6
LINETYPE_11
 40
0.009
 41
0.009
 66
     1
 10
0.0
 20
0.0
 30
0.0
  0
VERTEX
  8
2
 10
9.0055
 20
3.915
 30
0.0
  0
VERTEX
  8
2
 10
9.0005
 20
3.895
 30
0.0
  0
SEQEND
  0
POLYLINE
  8
2
  6
LINETYPE_11
 40
0.009
 41
0.009
 66
     1
 10
0.0
 20
0.0
 30
0.0
  0
VERTEX
  8
2
 10
9.0005
 20
3.895
 30
0.0
  0
VERTEX
  8
2
 10
9.0105
 20
3.895
 30
0.0
  0
SEQEND
  0
POLYLINE
  8
2
  6
LINETYPE_11
 40
0.009
 41
0.009
 66
     1
 10
0.0
 20
0.0
 30
0.0
  0
VERTEX
  8
2
 10
9.0105
 20
3.895
 30
0.0
  0
VERTEX
  8
2
 10
9.0055
 20
3.915
 30
0.0
  0
SEQEND
  0
TEXT
  8
2
 10
8.7956
 20
3.5379
 30
0.0
 40
0.125
  1
1.00
 50
0.000000
  0
POLYLINE
  8
2
  6
LINETYPE_11
 40
0.009
 41
0.009
 66
     1
 10
0.0
 20
0.0
 30
0.0
  0
VERTEX
  8
2
 10
1.5
 20
4.062
 30
0.0
  0
VERTEX
  8
2
 10
1.5
 20
4.599
 30
0.0
  0
SEQEND
  0
POLYLINE
  8
2
  6
LINETYPE_11
 40
0.009
 41
0.009
 66
     1
 10
0.0
 20
0.0
 30
0.0
  0
VERTEX
  8
2
 10
3.0
 20
4.062
 30
0.0
  0
VERTEX
  8
2
 10
3.0
 20
4.599
 30
0.0
  0
SEQEND
  0
POLYLINE
  8
2
  6
LINETYPE_11
 40
0.009
 41
0.009
 66
     1
 10
0.0
 20
0.0
 30
0.0
  0
VERTEX
  8
2
 10
1.9578
 20
4.474
 30
0.0
  0
VERTEX
  8
2
 10
1.5
 20
4.474
 30
0.0
  0
SEQEND
  0
POLYLINE
  8
2
  6
LINETYPE_11
 40
0.009
 41
0.009
 66
     1
 10
0.0
 20
0.0
 30
0.0
  0
VERTEX
  8
2
 10
1.5
 20
4.474
 30
0.0
  0
VERTEX
  8
2
 10
1.625
 20
4.449
 30
0.0
  0
SEQEND
  0
POLYLINE
  8
2
  6
LINETYPE_11
 40
0.009
 41
0.009
 66
     1
 10
0.0
 20
0.0
 30
0.0
  0
VERTEX
  8
2
 10
1.625
 20
4.449
 30
0.0
  0
VERTEX
  8
2
 10
1.625
 20
4.499
 30
0.0
  0
SEQEND
  0
POLYLINE
  8
2
  6
LINETYPE_11
 40
0.009
 41
0.009
 66
     1
 10
0.0
 20
0.0
 30
0.0
  0
VERTEX
  8
2
 10
1.625
 20
4.499
 30
0.0
  0
VERTEX
  8
2
 10
1.5
 20
4.474
 30
0.0
  0
SEQEND
  0
POLYLINE
  8
2
  6
LINETYPE_11
 40
0.009
 41
0.009
 66
     1
 10
0.0
 20
0.0
 30
0.0
  0
VERTEX
  8
2
 10
1.5
 20
4.474
 30
0.0
  0
VERTEX
  8
2
 10
1.52
 20
4.474
 30
0.0
  0
SEQEND
  0
POLYLINE
  8
2
  6
LINETYPE_11
 40
0.009
 41
0.009
 66
     1
 10
0.0
 20
0.0
 30
0.0
  0
VERTEX
  8
2
 10
1.52
 20
4.474
 30
0.0
  0
VERTEX
  8
2
 10
1.62
 20
4.454
 30
0.0
  0
SEQEND
  0
POLYLINE
  8
2
  6
LINETYPE_11
 40
0.009
 41
0.009
 66
     1
 10
0.0
 20
0.0
 30
0.0
  0
VERTEX
  8
2
 10
1.62
 20
4.454
 30
0.0
  0
VERTEX
  8
2
 10
1.62
 20
4.494
 30
0.0
  0
SEQEND
  0
POLYLINE
  8
2
  6
LINETYPE_11
 40
0.009
 41
0.009
 66
     1
 10
0.0
 20
0.0
 30
0.0
  0
VERTEX
  8
2
 10
1.62
 20
4.494
 30
0.0
  0
VERTEX
  8
2
 10
1.52
 20
4.474
 30
0.0
  0
SEQEND
  0
POLYLINE
  8
2
  6
LINETYPE_11
 40
0.009
 41
0.009
 66
     1
 10
0.0
 20
0.0
 30
0.0
  0
VERTEX
  8
2
 10
1.52
 20
4.474
 30
0.0
  0
VERTEX
  8
2
 10
1.54
 20
4.474
 30
0.0
  0
SEQEND
  0
POLYLINE
  8
2
  6
LINETYPE_11
 40
0.009
 41
0.009
 66
     1
 10
0.0
 20
0.0
 30
0.0
  0
VERTEX
  8
2
 10
1.54
 20
4.474
 30
0.0
  0
VERTEX
  8
2
 10
1.615
 20
4.459
 30
0.0
  0
SEQEND
  0
POLYLINE
  8
2
  6
LINETYPE_11
 40
0.009
 41
0.009
 66
     1
 10
0.0
 20
0.0
 30
0.0
  0
VERTEX
  8
2
 10
1.615
 20
4.459
 30
0.0
  0
VERTEX
  8
2
 10
1.615
 20
4.489
 30
0.0
  0
SEQEND
  0
POLYLINE
  8
2
  6
LINETYPE_11
 40
0.009
 41
0.009
 66
     1
 10
0.0
 20
0.0
 30
0.0
  0
VERTEX
  8
2
 10
1.615
 20
4.489
 30
0.0
  0
VERTEX
  8
2
 10
1.545
 20
4.474
 30
0.0
  0
SEQEND
  0
POLYLINE
  8
2
  6
LINETYPE_11
 40
0.009
 41
0.009
 66
     1
 10
0.0
 20
0.0
 30
0.0
  0
VERTEX
  8
2
 10
1.545
 20
4.474
 30
0.0
  0
VERTEX
  8
2
 10
1.56
 20
4.474
 30
0.0
  0
SEQEND
  0
POLYLINE
  8
2
  6
LINETYPE_11
 40
0.009
 41
0.009
 66
     1
 10
0.0
 20
0.0
 30
0.0
  0
VERTEX
  8
2
 10
1.56
 20
4.474
 30
0.0
  0
VERTEX
  8
2
 10
1.61
 20
4.464
 30
0.0
  0
SEQEND
  0
POLYLINE
  8
2
  6
LINETYPE_11
 40
0.009
 41
0.009
 66
     1
 10
0.0
 20
0.0
 30
0.0
  0
VERTEX
  8
2
 10
1.61
 20
4.464
 30
0.0
  0
VERTEX
  8
2
 10
1.61
 20
4.484
 30
0.0
  0
SEQEND
  0
POLYLINE
  8
2
  6
LINETYPE_11
 40
0.009
 41
0.009
 66
     1
 10
0.0
 20
0.0
 30
0.0
  0
VERTEX
  8
2
 10
1.61
 20
4.484
 30
0.0
  0
VERTEX
  8
2
 10
1.565
 20
4.474
 30
0.0
  0
SEQEND
  0
POLYLINE
  8
2
  6
LINETYPE_11
 40
0.009
 41
0.009
 66
     1
 10
0.0
 20
0.0
 30
0.0
  0
VERTEX
  8
2
 10
1.565
 20
4.474
 30
0.0
  0
VERTEX
  8
2
 10
1.585
 20
4.474
 30
0.0
  0
SEQEND
  0
POLYLINE
  8
2
  6
LINETYPE_11
 40
0.009
 41
0.009
 66
     1
 10
0.0
 20
0.0
 30
0.0
  0
VERTEX
  8
2
 10
1.585
 20
4.474
 30
0.0
  0
VERTEX
  8
2
 10
1.605
 20
4.469
 30
0.0
  0
SEQEND
  0
POLYLINE
  8
2
  6
LINETYPE_11
 40
0.009
 41
0.009
 66
     1
 10
0.0
 20
0.0
 30
0.0
  0
VERTEX
  8
2
 10
1.605
 20
4.469
 30
0.0
  0
VERTEX
  8
2
 10
1.605
 20
4.479
 30
0.0
  0
SEQEND
  0
POLYLINE
  8
2
  6
LINETYPE_11
 40
0.009
 41
0.009
 66
     1
 10
0.0
 20
0.0
 30
0.0
  0
VERTEX
  8
2
 10
1.605
 20
4.479
 30
0.0
  0
VERTEX
  8
2
 10
1.585
 20
4.474
 30
0.0
  0
SEQEND
  0
POLYLINE
  8
2
  6
LINETYPE_11
 40
0.009
 41
0.009
 66
     1
 10
0.0
 20
0.0
 30
0.0
  0
VERTEX
  8
2
 10
2.5016
 20
4.474
 30
0.0
  0
VERTEX
  8
2
 10
3.0
 20
4.474
 30
0.0
  0
SEQEND
  0
POLYLINE
  8
2
  6
LINETYPE_11
 40
0.009
 41
0.009
 66
     1
 10
0.0
 20
0.0
 30
0.0
  0
VERTEX
  8
2
 10
3.0
 20
4.474
 30
0.0
  0
VERTEX
  8
2
 10
2.875
 20
4.499
 30
0.0
  0
SEQEND
  0
POLYLINE
  8
2
  6
LINETYPE_11
 40
0.009
 41
0.009
 66
     1
 10
0.0
 20
0.0
 30
0.0
  0
VERTEX
  8
2
 10
2.875
 20
4.499
 30
0.0
  0
VERTEX
  8
2
 10
2.875
 20
4.449
 30
0.0
  0
SEQEND
  0
POLYLINE
  8
2
  6
LINETYPE_11
 40
0.009
 41
0.009
 66
     1
 10
0.0
 20
0.0
 30
0.0
  0
VERTEX
  8
2
 10
2.875
 20
4.449
 30
0.0
  0
VERTEX
  8
2
 10
3.0
 20
4.474
 30
0.0
  0
SEQEND
  0
POLYLINE
  8
2
  6
LINETYPE_11
 40
0.009
 41
0.009
 66
     1
 10
0.0
 20
0.0
 30
0.0
  0
VERTEX
  8
2
 10
3.0
 20
4.474
 30
0.0
  0
VERTEX
  8
2
 10
2.98
 20
4.474
 30
0.0
  0
SEQEND
  0
POLYLINE
  8
2
  6
LINETYPE_11
 40
0.009
 41
0.009
 66
     1
 10
0.0
 20
0.0
 30
0.0
  0
VERTEX
  8
2
 10
2.98
 20
4.474
 30
0.0
  0
VERTEX
  8
2
 10
2.88
 20
4.494
 30
0.0
  0
SEQEND
  0
POLYLINE
  8
2
  6
LINETYPE_11
 40
0.009
 41
0.009
 66
     1
 10
0.0
 20
0.0
 30
0.0
  0
VERTEX
  8
2
 10
2.88
 20
4.494
 30
0.0
  0
VERTEX
  8
2
 10
2.88
 20
4.454
 30
0.0
  0
SEQEND
  0
POLYLINE
  8
2
  6
LINETYPE_11
 40
0.009
 41
0.009
 66
     1
 10
0.0
 20
0.0
 30
0.0
  0
VERTEX
  8
2
 10
2.88
 20
4.454
 30
0.0
  0
VERTEX
  8
2
 10
2.98
 20
4.474
 30
0.0
  0
SEQEND
  0
POLYLINE
  8
2
  6
LINETYPE_11
 40
0.009
 41
0.009
 66
     1
 10
0.0
 20
0.0
 30
0.0
  0
VERTEX
  8
2
 10
2.98
 20
4.474
 30
0.0
  0
VERTEX
  8
2
 10
2.96
 20
4.474
 30
0.0
  0
SEQEND
  0
POLYLINE
  8
2
  6
LINETYPE_11
 40
0.009
 41
0.009
 66
     1
 10
0.0
 20
0.0
 30
0.0
  0
VERTEX
  8
2
 10
2.96
 20
4.474
 30
0.0
  0
VERTEX
  8
2
 10
2.885
 20
4.489
 30
0.0
  0
SEQEND
  0
POLYLINE
  8
2
  6
LINETYPE_11
 40
0.009
 41
0.009
 66
     1
 10
0.0
 20
0.0
 30
0.0
  0
VERTEX
  8
2
 10
2.885
 20
4.489
 30
0.0
  0
VERTEX
  8
2
 10
2.885
 20
4.459
 30
0.0
  0
SEQEND
  0
POLYLINE
  8
2
  6
LINETYPE_11
 40
0.009
 41
0.009
 66
     1
 10
0.0
 20
0.0
 30
0.0
  0
VERTEX
  8
2
 10
2.885
 20
4.459
 30
0.0
  0
VERTEX
  8
2
 10
2.955
 20
4.474
 30
0.0
  0
SEQEND
  0
POLYLINE
  8
2
  6
LINETYPE_11
 40
0.009
 41
0.009
 66
     1
 10
0.0
 20
0.0
 30
0.0
  0
VERTEX
  8
2
 10
2.955
 20
4.474
 30
0.0
  0
VERTEX
  8
2
 10
2.94
 20
4.474
 30
0.0
  0
SEQEND
  0
POLYLINE
  8
2
  6
LINETYPE_11
 40
0.009
 41
0.009
 66
     1
 10
0.0
 20
0.0
 30
0.0
  0
VERTEX
  8
2
 10
2.94
 20
4.474
 30
0.0
  0
VERTEX
  8
2
 10
2.89
 20
4.484
 30
0.0
  0
SEQEND
  0
POLYLINE
  8
2
  6
LINETYPE_11
 40
0.009
 41
0.009
 66
     1
 10
0.0
 20
0.0
 30
0.0
  0
VERTEX
  8
2
 10
2.89
 20
4.484
 30
0.0
  0
VERTEX
  8
2
 10
2.89
 20
4.464
 30
0.0
  0
SEQEND
  0
POLYLINE
  8
2
  6
LINETYPE_11
 40
0.009
 41
0.009
 66
     1
 10
0.0
 20
0.0
 30
0.0
  0
VERTEX
  8
2
 10
2.89
 20
4.464
 30
0.0
  0
VERTEX
  8
2
 10
2.935
 20
4.474
 30
0.0
  0
SEQEND
  0
POLYLINE
  8
2
  6
LINETYPE_11
 40
0.009
 41
0.009
 66
     1
 10
0.0
 20
0.0
 30
0.0
  0
VERTEX
  8
2
 10
2.935
 20
4.474
 30
0.0
  0
VERTEX
  8
2
 10
2.915
 20
4.474
 30
0.0
  0
SEQEND
  0
POLYLINE
  8
2
  6
LINETYPE_11
 40
0.009
 41
0.009
 66
     1
 10
0.0
 20
0.0
 30
0.0
  0
VERTEX
  8
2
 10
2.915
 20
4.474
 30
0.0
  0
VERTEX
  8
2
 10
2.895
 20
4.479
 30
0.0
  0
SEQEND
  0
POLYLINE
  8
2
  6
LINETYPE_11
 40
0.009
 41
0.009
 66
     1
 10
0.0
 20
0.0
 30
0.0
  0
VERTEX
  8
2
 10
2.895
 20
4.479
 30
0.0
  0
VERTEX
  8
2
 10
2.895
 20
4.469
 30
0.0
  0
SEQEND
  0
POLYLINE
  8
2
  6
LINETYPE_11
 40
0.009
 41
0.009
 66
     1
 10
0.0
 20
0.0
 30
0.0
  0
VERTEX
  8
2
 10
2.895
 20
4.469
 30
0.0
  0
VERTEX
  8
2
 10
2.915
 20
4.474
 30
0.0
  0
SEQEND
  0
TEXT
  8
2
 10
2.0198
 20
4.4115
 30
0.0
 40
0.125
  1
1.50
 50
0.000000
  0
POLYLINE
  8
2
  6
LINETYPE_11
 40
0.009
 41
0.009
 66
     1
 10
0.0
 20
0.0
 30
0.0
  0
VERTEX
  8
2
 10
1.5
 20
4.062
 30
0.0
  0
VERTEX
  8
2
 10
1.5
 20
5.0134
 30
0.0
  0
SEQEND
  0
POLYLINE
  8
2
  6
LINETYPE_11
 40
0.009
 41
0.009
 66
     1
 10
0.0
 20
0.0
 30
0.0
  0
VERTEX
  8
2
 10
3.5
 20
4.562
 30
0.0
  0
VERTEX
  8
2
 10
3.5
 20
5.0134
 30
0.0
  0
SEQEND
  0
POLYLINE
  8
2
  6
LINETYPE_11
 40
0.009
 41
0.009
 66
     1
 10
0.0
 20
0.0
 30
0.0
  0
VERTEX
  8
2
 10
2.2937
 20
4.8884
 30
0.0
  0
VERTEX
  8
2
 10
1.5
 20
4.8884
 30
0.0
  0
SEQEND
  0
POLYLINE
  8
2
  6
LINETYPE_11
 40
0.009
 41
0.009
 66
     1
 10
0.0
 20
0.0
 30
0.0
  0
VERTEX
  8
2
 10
1.5
 20
4.8884
 30
0.0
  0
VERTEX
  8
2
 10
1.625
 20
4.8634
 30
0.0
  0
SEQEND
  0
POLYLINE
  8
2
  6
LINETYPE_11
 40
0.009
 41
0.009
 66
     1
 10
0.0
 20
0.0
 30
0.0
  0
VERTEX
  8
2
 10
1.625
 20
4.8634
 30
0.0
  0
VERTEX
  8
2
 10
1.625
 20
4.9134
 30
0.0
  0
SEQEND
  0
POLYLINE
  8
2
  6
LINETYPE_11
 40
0.009
 41
0.009
 66
     1
 10
0.0
 20
0.0
 30
0.0
  0
VERTEX
  8
2
 10
1.625
 20
4.9134
 30
0.0
  0
VERTEX
  8
2
 10
1.5
 20
4.8884
 30
0.0
  0
SEQEND
  0
POLYLINE
  8
2
  6
LINETYPE_11
 40
0.009
 41
0.009
 66
     1
 10
0.0
 20
0.0
 30
0.0
  0
VERTEX
  8
2
 10
1.5
 20
4.8884
 30
0.0
  0
VERTEX
  8
2
 10
1.52
 20
4.8884
 30
0.0
  0
SEQEND
  0
POLYLINE
  8
2
  6
LINETYPE_11
 40
0.009
 41
0.009
 66
     1
 10
0.0
 20
0.0
 30
0.0
  0
VERTEX
  8
2
 10
1.52
 20
4.8884
 30
0.0
  0
VERTEX
  8
2
 10
1.62
 20
4.8684
 30
0.0
  0
SEQEND
  0
POLYLINE
  8
2
  6
LINETYPE_11
 40
0.009
 41
0.009
 66
     1
 10
0.0
 20
0.0
 30
0.0
  0
VERTEX
  8
2
 10
1.62
 20
4.8684
 30
0.0
  0
VERTEX
  8
2
 10
1.62
 20
4.9084
 30
0.0
  0
SEQEND
  0
POLYLINE
  8
2
  6
LINETYPE_11
 40
0.009
 41
0.009
 66
     1
 10
0.0
 20
0.0
 30
0.0
  0
VERTEX
  8
2
 10
1.62
 20
4.9084
 30
0.0
  0
VERTEX
  8
2
 10
1.52
 20
4.8884
 30
0.0
  0
SEQEND
  0
POLYLINE
  8
2
  6
LINETYPE_11
 40
0.009
 41
0.009
 66
     1
 10
0.0
 20
0.0
 30
0.0
  0
VERTEX
  8
2
 10
1.52
 20
4.8884
 30
0.0
  0
VERTEX
  8
2
 10
1.54
 20
4.8884
 30
0.0
  0
SEQEND
  0
POLYLINE
  8
2
  6
LINETYPE_11
 40
0.009
 41
0.009
 66
     1
 10
0.0
 20
0.0
 30
0.0
  0
VERTEX
  8
2
 10
1.54
 20
4.8884
 30
0.0
  0
VERTEX
  8
2
 10
1.615
 20
4.8734
 30
0.0
  0
SEQEND
  0
POLYLINE
  8
2
  6
LINETYPE_11
 40
0.009
 41
0.009
 66
     1
 10
0.0
 20
0.0
 30
0.0
  0
VERTEX
  8
2
 10
1.615
 20
4.8734
 30
0.0
  0
VERTEX
  8
2
 10
1.615
 20
4.9034
 30
0.0
  0
SEQEND
  0
POLYLINE
  8
2
  6
LINETYPE_11
 40
0.009
 41
0.009
 66
     1
 10
0.0
 20
0.0
 30
0.0
  0
VERTEX
  8
2
 10
1.615
 20
4.9034
 30
0.0
  0
VERTEX
  8
2
 10
1.545
 20
4.8884
 30
0.0
  0
SEQEND
  0
POLYLINE
  8
2
  6
LINETYPE_11
 40
0.009
 41
0.009
 66
     1
 10
0.0
 20
0.0
 30
0.0
  0
VERTEX
  8
2
 10
1.545
 20
4.8884
 30
0.0
  0
VERTEX
  8
2
 10
1.56
 20
4.8884
 30
0.0
  0
SEQEND
  0
POLYLINE
  8
2
  6
LINETYPE_11
 40
0.009
 41
0.009
 66
     1
 10
0.0
 20
0.0
 30
0.0
  0
VERTEX
  8
2
 10
1.56
 20
4.8884
 30
0.0
  0
VERTEX
  8
2
 10
1.61
 20
4.8784
 30
0.0
  0
SEQEND
  0
POLYLINE
  8
2
  6
LINETYPE_11
 40
0.009
 41
0.009
 66
     1
 10
0.0
 20
0.0
 30
0.0
  0
VERTEX
  8
2
 10
1.61
 20
4.8784
 30
0.0
  0
VERTEX
  8
2
 10
1.61
 20
4.8984
 30
0.0
  0
SEQEND
  0
POLYLINE
  8
2
  6
LINETYPE_11
 40
0.009
 41
0.009
 66
     1
 10
0.0
 20
0.0
 30
0.0
  0
VERTEX
  8
2
 10
1.61
 20
4.8984
 30
0.0
  0
VERTEX
  8
2
 10
1.565
 20
4.8884
 30
0.0
  0
SEQEND
  0
POLYLINE
  8
2
  6
LINETYPE_11
 40
0.009
 41
0.009
 66
     1
 10
0.0
 20
0.0
 30
0.0
  0
VERTEX
  8
2
 10
1.565
 20
4.8884
 30
0.0
  0
VERTEX
  8
2
 10
1.585
 20
4.8884
 30
0.0
  0
SEQEND
  0
POLYLINE
  8
2
  6
LINETYPE_11
 40
0.009
 41
0.009
 66
     1
 10
0.0
 20
0.0
 30
0.0
  0
VERTEX
  8
2
 10
1.585
 20
4.8884
 30
0.0
  0
VERTEX
  8
2
 10
1.605
 20
4.8834
 30
0.0
  0
SEQEND
  0
POLYLINE
  8
2
  6
LINETYPE_11
 40
0.009
 41
0.009
 66
     1
 10
0.0
 20
0.0
 30
0.0
  0
VERTEX
  8
2
 10
1.605
 20
4.8834
 30
0.0
  0
VERTEX
  8
2
 10
1.605
 20
4.8934
 30
0.0
  0
SEQEND
  0
POLYLINE
  8
2
  6
LINETYPE_11
 40
0.009
 41
0.009
 66
     1
 10
0.0
 20
0.0
 30
0.0
  0
VERTEX
  8
2
 10
1.605
 20
4.8934
 30
0.0
  0
VERTEX
  8
2
 10
1.585
 20
4.8884
 30
0.0
  0
SEQEND
  0
POLYLINE
  8
2
  6
LINETYPE_11
 40
0.009
 41
0.009
 66
     1
 10
0.0
 20
0.0
 30
0.0
  0
VERTEX
  8
2
 10
2.8375
 20
4.8884
 30
0.0
  0
VERTEX
  8
2
 10
3.5
 20
4.8884
 30
0.0
  0
SEQEND
  0
POLYLINE
  8
2
  6
LINETYPE_11
 40
0.009
 41
0.009
 66
     1
 10
0.0
 20
0.0
 30
0.0
  0
VERTEX
  8
2
 10
3.5
 20
4.8884
 30
0.0
  0
VERTEX
  8
2
 10
3.375
 20
4.9134
 30
0.0
  0
SEQEND
  0
POLYLINE
  8
2
  6
LINETYPE_11
 40
0.009
 41
0.009
 66
     1
 10
0.0
 20
0.0
 30
0.0
  0
VERTEX
  8
2
 10
3.375
 20
4.9134
 30
0.0
  0
VERTEX
  8
2
 10
3.375
 20
4.8634
 30
0.0
  0
SEQEND
  0
POLYLINE
  8
2
  6
LINETYPE_11
 40
0.009
 41
0.009
 66
     1
 10
0.0
 20
0.0
 30
0.0
  0
VERTEX
  8
2
 10
3.375
 20
4.8634
 30
0.0
  0
VERTEX
  8
2
 10
3.5
 20
4.8884
 30
0.0
  0
SEQEND
  0
POLYLINE
  8
2
  6
LINETYPE_11
 40
0.009
 41
0.009
 66
     1
 10
0.0
 20
0.0
 30
0.0
  0
VERTEX
  8
2
 10
3.5
 20
4.8884
 30
0.0
  0
VERTEX
  8
2
 10
3.48
 20
4.8884
 30
0.0
  0
SEQEND
  0
POLYLINE
  8
2
  6
LINETYPE_11
 40
0.009
 41
0.009
 66
     1
 10
0.0
 20
0.0
 30
0.0
  0
VERTEX
  8
2
 10
3.48
 20
4.8884
 30
0.0
  0
VERTEX
  8
2
 10
3.38
 20
4.9084
 30
0.0
  0
SEQEND
  0
POLYLINE
  8
2
  6
LINETYPE_11
 40
0.009
 41
0.009
 66
     1
 10
0.0
 20
0.0
 30
0.0
  0
VERTEX
  8
2
 10
3.38
 20
4.9084
 30
0.0
  0
VERTEX
  8
2
 10
3.38
 20
4.8684
 30
0.0
  0
SEQEND
  0
POLYLINE
  8
2
  6
LINETYPE_11
 40
0.009
 41
0.009
 66
     1
 10
0.0
 20
0.0
 30
0.0
  0
VERTEX
  8
2
 10
3.38
 20
4.8684
 30
0.0
  0
VERTEX
  8
2
 10
3.48
 20
4.8884
 30
0.0
  0
SEQEND
  0
POLYLINE
  8
2
  6
LINETYPE_11
 40
0.009
 41
0.009
 66
     1
 10
0.0
 20
0.0
 30
0.0
  0
VERTEX
  8
2
 10
3.48
 20
4.8884
 30
0.0
  0
VERTEX
  8
2
 10
3.46
 20
4.8884
 30
0.0
  0
SEQEND
  0
POLYLINE
  8
2
  6
LINETYPE_11
 40
0.009
 41
0.009
 66
     1
 10
0.0
 20
0.0
 30
0.0
  0
VERTEX
  8
2
 10
3.46
 20
4.8884
 30
0.0
  0
VERTEX
  8
2
 10
3.385
 20
4.9034
 30
0.0
  0
SEQEND
  0
POLYLINE
  8
2
  6
LINETYPE_11
 40
0.009
 41
0.009
 66
     1
 10
0.0
 20
0.0
 30
0.0
  0
VERTEX
  8
2
 10
3.385
 20
4.9034
 30
0.0
  0
VERTEX
  8
2
 10
3.385
 20
4.8734
 30
0.0
  0
SEQEND
  0
POLYLINE
  8
2
  6
LINETYPE_11
 40
0.009
 41
0.009
 66
     1
 10
0.0
 20
0.0
 30
0.0
  0
VERTEX
  8
2
 10
3.385
 20
4.8734
 30
0.0
  0
VERTEX
  8
2
 10
3.455
 20
4.8884
 30
0.0
  0
SEQEND
  0
POLYLINE
  8
2
  6
LINETYPE_11
 40
0.009
 41
0.009
 66
     1
 10
0.0
 20
0.0
 30
0.0
  0
VERTEX
  8
2
 10
3.455
 20
4.8884
 30
0.0
  0
VERTEX
  8
2
 10
3.44
 20
4.8884
 30
0.0
  0
SEQEND
  0
POLYLINE
  8
2
  6
LINETYPE_11
 40
0.009
 41
0.009
 66
     1
 10
0.0
 20
0.0
 30
0.0
  0
VERTEX
  8
2
 10
3.44
 20
4.8884
 30
0.0
  0
VERTEX
  8
2
 10
3.39
 20
4.8984
 30
0.0
  0
SEQEND
  0
POLYLINE
  8
2
  6
LINETYPE_11
 40
0.009
 41
0.009
 66
     1
 10
0.0
 20
0.0
 30
0.0
  0
VERTEX
  8
2
 10
3.39
 20
4.8984
 30
0.0
  0
VERTEX
  8
2
 10
3.39
 20
4.8784
 30
0.0
  0
SEQEND
  0
POLYLINE
  8
2
  6
LINETYPE_11
 40
0.009
 41
0.009
 66
     1
 10
0.0
 20
0.0
 30
0.0
  0
VERTEX
  8
2
 10
3.39
 20
4.8784
 30
0.0
  0
VERTEX
  8
2
 10
3.435
 20
4.8884
 30
0.0
  0
SEQEND
  0
POLYLINE
  8
2
  6
LINETYPE_11
 40
0.009
 41
0.009
 66
     1
 10
0.0
 20
0.0
 30
0.0
  0
VERTEX
  8
2
 10
3.435
 20
4.8884
 30
0.0
  0
VERTEX
  8
2
 10
3.415
 20
4.8884
 30
0.0
  0
SEQEND
  0
POLYLINE
  8
2
  6
LINETYPE_11
 40
0.009
 41
0.009
 66
     1
 10
0.0
 20
0.0
 30
0.0
  0
VERTEX
  8
2
 10
3.415
 20
4.8884
 30
0.0
  0
VERTEX
  8
2
 10
3.395
 20
4.8934
 30
0.0
  0
SEQEND
  0
POLYLINE
  8
2
  6
LINETYPE_11
 40
0.009
 41
0.009
 66
     1
 10
0.0
 20
0.0
 30
0.0
  0
VERTEX
  8
2
 10
3.395
 20
4.8934
 30
0.0
  0
VERTEX
  8
2
 10
3.395
 20
4.8834
 30
0.0
  0
SEQEND
  0
POLYLINE
  8
2
  6
LINETYPE_11
 40
0.009
 41
0.009
 66
     1
 10
0.0
 20
0.0
 30
0.0
  0
VERTEX
  8
2
 10
3.395
 20
4.8834
 30
0.0
  0
VERTEX
  8
2
 10
3.415
 20
4.8884
 30
0.0
  0
SEQEND
  0
TEXT
  8
2
 10
2.3557
 20
4.8259
 30
0.0
 40
0.125
  1
2.00
 50
0.000000
  0
POLYLINE
  8
2
  6
LINETYPE_11
 40
0.009
 41
0.009
 66
     1
 10
0.0
 20
0.0
 30
0.0
  0
VERTEX
  8
2
 10
1.5
 20
2.938
 30
0.0
  0
VERTEX
  8
2
 10
1.5
 20
2.5906
 30
0.0
  0
SEQEND
  0
POLYLINE
  8
2
  6
LINETYPE_11
 40
0.009
 41
0.009
 66
     1
 10
0.0
 20
0.0
 30
0.0
  0
VERTEX
  8
2
 10
2.5
 20
3.438
 30
0.0
  0
VERTEX
  8
2
 10
2.5
 20
2.5906
 30
0.0
  0
SEQEND
  0
POLYLINE
  8
2
  6
LINETYPE_11
 40
0.009
 41
0.009
 66
     1
 10
0.0
 20
0.0
 30
0.0
  0
VERTEX
  8
2
 10
1.25
 20
2.7156
 30
0.0
  0
VERTEX
  8
2
 10
1.5
 20
2.7156
 30
0.0
  0
SEQEND
  0
POLYLINE
  8
2
  6
LINETYPE_11
 40
0.009
 41
0.009
 66
     1
 10
0.0
 20
0.0
 30
0.0
  0
VERTEX
  8
2
 10
1.5
 20
2.7156
 30
0.0
  0
VERTEX
  8
2
 10
1.375
 20
2.7406
 30
0.0
  0
SEQEND
  0
POLYLINE
  8
2
  6
LINETYPE_11
 40
0.009
 41
0.009
 66
     1
 10
0.0
 20
0.0
 30
0.0
  0
VERTEX
  8
2
 10
1.375
 20
2.7406
 30
0.0
  0
VERTEX
  8
2
 10
1.375
 20
2.6906
 30
0.0
  0
SEQEND
  0
POLYLINE
  8
2
  6
LINETYPE_11
 40
0.009
 41
0.009
 66
     1
 10
0.0
 20
0.0
 30
0.0
  0
VERTEX
  8
2
 10
1.375
 20
2.6906
 30
0.0
  0
VERTEX
  8
2
 10
1.5
 20
2.7156
 30
0.0
  0
SEQEND
  0
POLYLINE
  8
2
  6
LINETYPE_11
 40
0.009
 41
0.009
 66
     1
 10
0.0
 20
0.0
 30
0.0
  0
VERTEX
  8
2
 10
1.5
 20
2.7156
 30
0.0
  0
VERTEX
  8
2
 10
1.48
 20
2.7156
 30
0.0
  0
SEQEND
  0
POLYLINE
  8
2
  6
LINETYPE_11
 40
0.009
 41
0.009
 66
     1
 10
0.0
 20
0.0
 30
0.0
  0
VERTEX
  8
2
 10
1.48
 20
2.7156
 30
0.0
  0
VERTEX
  8
2
 10
1.38
 20
2.7356
 30
0.0
  0
SEQEND
  0
POLYLINE
  8
2
  6
LINETYPE_11
 40
0.009
 41
0.009
 66
     1
 10
0.0
 20
0.0
 30
0.0
  0
VERTEX
  8
2
 10
1.38
 20
2.7356
 30
0.0
  0
VERTEX
  8
2
 10
1.38
 20
2.6956
 30
0.0
  0
SEQEND
  0
POLYLINE
  8
2
  6
LINETYPE_11
 40
0.009
 41
0.009
 66
     1
 10
0.0
 20
0.0
 30
0.0
  0
VERTEX
  8
2
 10
1.38
 20
2.6956
 30
0.0
  0
VERTEX
  8
2
 10
1.48
 20
2.7156
 30
0.0
  0
SEQEND
  0
POLYLINE
  8
2
  6
LINETYPE_11
 40
0.009
 41
0.009
 66
     1
 10
0.0
 20
0.0
 30
0.0
  0
VERTEX
  8
2
 10
1.48
 20
2.7156
 30
0.0
  0
VERTEX
  8
2
 10
1.46
 20
2.7156
 30
0.0
  0
SEQEND
  0
POLYLINE
  8
2
  6
LINETYPE_11
 40
0.009
 41
0.009
 66
     1
 10
0.0
 20
0.0
 30
0.0
  0
VERTEX
  8
2
 10
1.46
 20
2.7156
 30
0.0
  0
VERTEX
  8
2
 10
1.385
 20
2.7306
 30
0.0
  0
SEQEND
  0
POLYLINE
  8
2
  6
LINETYPE_11
 40
0.009
 41
0.009
 66
     1
 10
0.0
 20
0.0
 30
0.0
  0
VERTEX
  8
2
 10
1.385
 20
2.7306
 30
0.0
  0
VERTEX
  8
2
 10
1.385
 20
2.7006
 30
0.0
  0
SEQEND
  0
POLYLINE
  8
2
  6
LINETYPE_11
 40
0.009
 41
0.009
 66
     1
 10
0.0
 20
0.0
 30
0.0
  0
VERTEX
  8
2
 10
1.385
 20
2.7006
 30
0.0
  0
VERTEX
  8
2
 10
1.455
 20
2.7156
 30
0.0
  0
SEQEND
  0
POLYLINE
  8
2
  6
LINETYPE_11
 40
0.009
 41
0.009
 66
     1
 10
0.0
 20
0.0
 30
0.0
  0
VERTEX
  8
2
 10
1.455
 20
2.7156
 30
0.0
  0
VERTEX
  8
2
 10
1.44
 20
2.7156
 30
0.0
  0
SEQEND
  0
POLYLINE
  8
2
  6
LINETYPE_11
 40
0.009
 41
0.009
 66
     1
 10
0.0
 20
0.0
 30
0.0
  0
VERTEX
  8
2
 10
1.44
 20
2.7156
 30
0.0
  0
VERTEX
  8
2
 10
1.39
 20
2.7256
 30
0.0
  0
SEQEND
  0
POLYLINE
  8
2
  6
LINETYPE_11
 40
0.009
 41
0.009
 66
     1
 10
0.0
 20
0.0
 30
0.0
  0
VERTEX
  8
2
 10
1.39
 20
2.7256
 30
0.0
  0
VERTEX
  8
2
 10
1.39
 20
2.7056
 30
0.0
  0
SEQEND
  0
POLYLINE
  8
2
  6
LINETYPE_11
 40
0.009
 41
0.009
 66
     1
 10
0.0
 20
0.0
 30
0.0
  0
VERTEX
  8
2
 10
1.39
 20
2.7056
 30
0.0
  0
VERTEX
  8
2
 10
1.435
 20
2.7156
 30
0.0
  0
SEQEND
  0
POLYLINE
  8
2
  6
LINETYPE_11
 40
0.009
 41
0.009
 66
     1
 10
0.0
 20
0.0
 30
0.0
  0
VERTEX
  8
2
 10
1.435
 20
2.7156
 30
0.0
  0
VERTEX
  8
2
 10
1.415
 20
2.7156
 30
0.0
  0
SEQEND
  0
POLYLINE
  8
2
  6
LINETYPE_11
 40
0.009
 41
0.009
 66
     1
 10
0.0
 20
0.0
 30
0.0
  0
VERTEX
  8
2
 10
1.415
 20
2.7156
 30
0.0
  0
VERTEX
  8
2
 10
1.395
 20
2.7206
 30
0.0
  0
SEQEND
  0
POLYLINE
  8
2
  6
LINETYPE_11
 40
0.009
 41
0.009
 66
     1
 10
0.0
 20
0.0
 30
0.0
  0
VERTEX
  8
2
 10
1.395
 20
2.7206
 30
0.0
  0
VERTEX
  8
2
 10
1.395
 20
2.7106
 30
0.0
  0
SEQEND
  0
POLYLINE
  8
2
  6
LINETYPE_11
 40
0.009
 41
0.009
 66
     1
 10
0.0
 20
0.0
 30
0.0
  0
VERTEX
  8
2
 10
1.395
 20
2.7106
 30
0.0
  0
VERTEX
  8
2
 10
1.415
 20
2.7156
 30
0.0
  0
SEQEND
  0
POLYLINE
  8
2
  6
LINETYPE_11
 40
0.009
 41
0.009
 66
     1
 10
0.0
 20
0.0
 30
0.0
  0
VERTEX
  8
2
 10
2.75
 20
2.7156
 30
0.0
  0
VERTEX
  8
2
 10
2.5
 20
2.7156
 30
0.0
  0
SEQEND
  0
POLYLINE
  8
2
  6
LINETYPE_11
 40
0.009
 41
0.009
 66
     1
 10
0.0
 20
0.0
 30
0.0
  0
VERTEX
  8
2
 10
2.5
 20
2.7156
 30
0.0
  0
VERTEX
  8
2
 10
2.625
 20
2.6906
 30
0.0
  0
SEQEND
  0
POLYLINE
  8
2
  6
LINETYPE_11
 40
0.009
 41
0.009
 66
     1
 10
0.0
 20
0.0
 30
0.0
  0
VERTEX
  8
2
 10
2.625
 20
2.6906
 30
0.0
  0
VERTEX
  8
2
 10
2.625
 20
2.7406
 30
0.0
  0
SEQEND
  0
POLYLINE
  8
2
  6
LINETYPE_11
 40
0.009
 41
0.009
 66
     1
 10
0.0
 20
0.0
 30
0.0
  0
VERTEX
  8
2
 10
2.625
 20
2.7406
 30
0.0
  0
VERTEX
  8
2
 10
2.5
 20
2.7156
 30
0.0
  0
SEQEND
  0
POLYLINE
  8
2
  6
LINETYPE_11
 40
0.009
 41
0.009
 66
     1
 10
0.0
 20
0.0
 30
0.0
  0
VERTEX
  8
2
 10
2.5
 20
2.7156
 30
0.0
  0
VERTEX
  8
2
 10
2.52
 20
2.7156
 30
0.0
  0
SEQEND
  0
POLYLINE
  8
2
  6
LINETYPE_11
 40
0.009
 41
0.009
 66
     1
 10
0.0
 20
0.0
 30
0.0
  0
VERTEX
  8
2
 10
2.52
 20
2.7156
 30
0.0
  0
VERTEX
  8
2
 10
2.62
 20
2.6956
 30
0.0
  0
SEQEND
  0
POLYLINE
  8
2
  6
LINETYPE_11
 40
0.009
 41
0.009
 66
     1
 10
0.0
 20
0.0
 30
0.0
  0
VERTEX
  8
2
 10
2.62
 20
2.6956
 30
0.0
  0
VERTEX
  8
2
 10
2.62
 20
2.7356
 30
0.0
  0
SEQEND
  0
POLYLINE
  8
2
  6
LINETYPE_11
 40
0.009
 41
0.009
 66
     1
 10
0.0
 20
0.0
 30
0.0
  0
VERTEX
  8
2
 10
2.62
 20
2.7356
 30
0.0
  0
VERTEX
  8
2
 10
2.52
 20
2.7156
 30
0.0
  0
SEQEND
  0
POLYLINE
  8
2
  6
LINETYPE_11
 40
0.009
 41
0.009
 66
     1
 10
0.0
 20
0.0
 30
0.0
  0
VERTEX
  8
2
 10
2.52
 20
2.7156
 30
0.0
  0
VERTEX
  8
2
 10
2.54
 20
2.7156
 30
0.0
  0
SEQEND
  0
POLYLINE
  8
2
  6
LINETYPE_11
 40
0.009
 41
0.009
 66
     1
 10
0.0
 20
0.0
 30
0.0
  0
VERTEX
  8
2
 10
2.54
 20
2.7156
 30
0.0
  0
VERTEX
  8
2
 10
2.615
 20
2.7006
 30
0.0
  0
SEQEND
  0
POLYLINE
  8
2
  6
LINETYPE_11
 40
0.009
 41
0.009
 66
     1
 10
0.0
 20
0.0
 30
0.0
  0
VERTEX
  8
2
 10
2.615
 20
2.7006
 30
0.0
  0
VERTEX
  8
2
 10
2.615
 20
2.7306
 30
0.0
  0
SEQEND
  0
POLYLINE
  8
2
  6
LINETYPE_11
 40
0.009
 41
0.009
 66
     1
 10
0.0
 20
0.0
 30
0.0
  0
VERTEX
  8
2
 10
2.615
 20
2.7306
 30
0.0
  0
VERTEX
  8
2
 10
2.545
 20
2.7156
 30
0.0
  0
SEQEND
  0
POLYLINE
  8
2
  6
LINETYPE_11
 40
0.009
 41
0.009
 66
     1
 10
0.0
 20
0.0
 30
0.0
  0
VERTEX
  8
2
 10
2.545
 20
2.7156
 30
0.0
  0
VERTEX
  8
2
 10
2.56
 20
2.7156
 30
0.0
  0
SEQEND
  0
POLYLINE
  8
2
  6
LINETYPE_11
 40
0.009
 41
0.009
 66
     1
 10
0.0
 20
0.0
 30
0.0
  0
VERTEX
  8
2
 10
2.56
 20
2.7156
 30
0.0
  0
VERTEX
  8
2
 10
2.61
 20
2.7056
 30
0.0
  0
SEQEND
  0
POLYLINE
  8
2
  6
LINETYPE_11
 40
0.009
 41
0.009
 66
     1
 10
0.0
 20
0.0
 30
0.0
  0
VERTEX
  8
2
 10
2.61
 20
2.7056
 30
0.0
  0
VERTEX
  8
2
 10
2.61
 20
2.7256
 30
0.0
  0
SEQEND
  0
POLYLINE
  8
2
  6
LINETYPE_11
 40
0.009
 41
0.009
 66
     1
 10
0.0
 20
0.0
 30
0.0
  0
VERTEX
  8
2
 10
2.61
 20
2.7256
 30
0.0
  0
VERTEX
  8
2
 10
2.565
 20
2.7156
 30
0.0
  0
SEQEND
  0
POLYLINE
  8
2
  6
LINETYPE_11
 40
0.009
 41
0.009
 66
     1
 10
0.0
 20
0.0
 30
0.0
  0
VERTEX
  8
2
 10
2.565
 20
2.7156
 30
0.0
  0
VERTEX
  8
2
 10
2.585
 20
2.7156
 30
0.0
  0
SEQEND
  0
POLYLINE
  8
2
  6
LINETYPE_11
 40
0.009
 41
0.009
 66
     1
 10
0.0
 20
0.0
 30
0.0
  0
VERTEX
  8
2
 10
2.585
 20
2.7156
 30
0.0
  0
VERTEX
  8
2
 10
2.605
 20
2.7106
 30
0.0
  0
SEQEND
  0
POLYLINE
  8
2
  6
LINETYPE_11
 40
0.009
 41
0.009
 66
     1
 10
0.0
 20
0.0
 30
0.0
  0
VERTEX
  8
2
 10
2.605
 20
2.7106
 30
0.0
  0
VERTEX
  8
2
 10
2.605
 20
2.7206
 30
0.0
  0
SEQEND
  0
POLYLINE
  8
2
  6
LINETYPE_11
 40
0.009
 41
0.009
 66
     1
 10
0.0
 20
0.0
 30
0.0
  0
VERTEX
  8
2
 10
2.605
 20
2.7206
 30
0.0
  0
VERTEX
  8
2
 10
2.585
 20
2.7156
 30
0.0
  0
SEQEND
  0
TEXT
  8
2
 10
1.807
 20
2.6531
 30
0.0
 40
0.125
  1
1.00
 50
0.000000
  0
POLYLINE
  8
2
  6
LINETYPE_11
 40
0.009
 41
0.009
 66
     1
 10
0.0
 20
0.0
 30
0.0
  0
VERTEX
  8
2
 10
1.5
 20
2.938
 30
0.0
  0
VERTEX
  8
2
 10
1.5
 20
2.2546
 30
0.0
  0
SEQEND
  0
POLYLINE
  8
2
  6
LINETYPE_11
 40
0.009
 41
0.009
 66
     1
 10
0.0
 20
0.0
 30
0.0
  0
VERTEX
  8
2
 10
5.0
 20
3.438
 30
0.0
  0
VERTEX
  8
2
 10
5.0
 20
2.2546
 30
0.0
  0
SEQEND
  0
POLYLINE
  8
2
  6
LINETYPE_11
 40
0.009
 41
0.009
 66
     1
 10
0.0
 20
0.0
 30
0.0
  0
VERTEX
  8
2
 10
3.2681
 20
2.3796
 30
0.0
  0
VERTEX
  8
2
 10
1.5
 20
2.3796
 30
0.0
  0
SEQEND
  0
POLYLINE
  8
2
  6
LINETYPE_11
 40
0.009
 41
0.009
 66
     1
 10
0.0
 20
0.0
 30
0.0
  0
VERTEX
  8
2
 10
1.5
 20
2.3796
 30
0.0
  0
VERTEX
  8
2
 10
1.625
 20
2.3546
 30
0.0
  0
SEQEND
  0
POLYLINE
  8
2
  6
LINETYPE_11
 40
0.009
 41
0.009
 66
     1
 10
0.0
 20
0.0
 30
0.0
  0
VERTEX
  8
2
 10
1.625
 20
2.3546
 30
0.0
  0
VERTEX
  8
2
 10
1.625
 20
2.4046
 30
0.0
  0
SEQEND
  0
POLYLINE
  8
2
  6
LINETYPE_11
 40
0.009
 41
0.009
 66
     1
 10
0.0
 20
0.0
 30
0.0
  0
VERTEX
  8
2
 10
1.625
 20
2.4046
 30
0.0
  0
VERTEX
  8
2
 10
1.5
 20
2.3796
 30
0.0
  0
SEQEND
  0
POLYLINE
  8
2
  6
LINETYPE_11
 40
0.009
 41
0.009
 66
     1
 10
0.0
 20
0.0
 30
0.0
  0
VERTEX
  8
2
 10
1.5
 20
2.3796
 30
0.0
  0
VERTEX
  8
2
 10
1.52
 20
2.3796
 30
0.0
  0
SEQEND
  0
POLYLINE
  8
2
  6
LINETYPE_11
 40
0.009
 41
0.009
 66
     1
 10
0.0
 20
0.0
 30
0.0
  0
VERTEX
  8
2
 10
1.52
 20
2.3796
 30
0.0
  0
VERTEX
  8
2
 10
1.62
 20
2.3596
 30
0.0
  0
SEQEND
  0
POLYLINE
  8
2
  6
LINETYPE_11
 40
0.009
 41
0.009
 66
     1
 10
0.0
 20
0.0
 30
0.0
  0
VERTEX
  8
2
 10
1.62
 20
2.3596
 30
0.0
  0
VERTEX
  8
2
 10
1.62
 20
2.3996
 30
0.0
  0
SEQEND
  0
POLYLINE
  8
2
  6
LINETYPE_11
 40
0.009
 41
0.009
 66
     1
 10
0.0
 20
0.0
 30
0.0
  0
VERTEX
  8
2
 10
1.62
 20
2.3996
 30
0.0
  0
VERTEX
  8
2
 10
1.52
 20
2.3796
 30
0.0
  0
SEQEND
  0
POLYLINE
  8
2
  6
LINETYPE_11
 40
0.009
 41
0.009
 66
     1
 10
0.0
 20
0.0
 30
0.0
  0
VERTEX
  8
2
 10
1.52
 20
2.3796
 30
0.0
  0
VERTEX
  8
2
 10
1.54
 20
2.3796
 30
0.0
  0
SEQEND
  0
POLYLINE
  8
2
  6
LINETYPE_11
 40
0.009
 41
0.009
 66
     1
 10
0.0
 20
0.0
 30
0.0
  0
VERTEX
  8
2
 10
1.54
 20
2.3796
 30
0.0
  0
VERTEX
  8
2
 10
1.615
 20
2.3646
 30
0.0
  0
SEQEND
  0
POLYLINE
  8
2
  6
LINETYPE_11
 40
0.009
 41
0.009
 66
     1
 10
0.0
 20
0.0
 30
0.0
  0
VERTEX
  8
2
 10
1.615
 20
2.3646
 30
0.0
  0
VERTEX
  8
2
 10
1.615
 20
2.3946
 30
0.0
  0
SEQEND
  0
POLYLINE
  8
2
  6
LINETYPE_11
 40
0.009
 41
0.009
 66
     1
 10
0.0
 20
0.0
 30
0.0
  0
VERTEX
  8
2
 10
1.615
 20
2.3946
 30
0.0
  0
VERTEX
  8
2
 10
1.545
 20
2.3796
 30
0.0
  0
SEQEND
  0
POLYLINE
  8
2
  6
LINETYPE_11
 40
0.009
 41
0.009
 66
     1
 10
0.0
 20
0.0
 30
0.0
  0
VERTEX
  8
2
 10
1.545
 20
2.3796
 30
0.0
  0
VERTEX
  8
2
 10
1.56
 20
2.3796
 30
0.0
  0
SEQEND
  0
POLYLINE
  8
2
  6
LINETYPE_11
 40
0.009
 41
0.009
 66
     1
 10
0.0
 20
0.0
 30
0.0
  0
VERTEX
  8
2
 10
1.56
 20
2.3796
 30
0.0
  0
VERTEX
  8
2
 10
1.61
 20
2.3696
 30
0.0
  0
SEQEND
  0
POLYLINE
  8
2
  6
LINETYPE_11
 40
0.009
 41
0.009
 66
     1
 10
0.0
 20
0.0
 30
0.0
  0
VERTEX
  8
2
 10
1.61
 20
2.3696
 30
0.0
  0
VERTEX
  8
2
 10
1.61
 20
2.3896
 30
0.0
  0
SEQEND
  0
POLYLINE
  8
2
  6
LINETYPE_11
 40
0.009
 41
0.009
 66
     1
 10
0.0
 20
0.0
 30
0.0
  0
VERTEX
  8
2
 10
1.61
 20
2.3896
 30
0.0
  0
VERTEX
  8
2
 10
1.565
 20
2.3796
 30
0.0
  0
SEQEND
  0
POLYLINE
  8
2
  6
LINETYPE_11
 40
0.009
 41
0.009
 66
     1
 10
0.0
 20
0.0
 30
0.0
  0
VERTEX
  8
2
 10
1.565
 20
2.3796
 30
0.0
  0
VERTEX
  8
2
 10
1.585
 20
2.3796
 30
0.0
  0
SEQEND
  0
POLYLINE
  8
2
  6
LINETYPE_11
 40
0.009
 41
0.009
 66
     1
 10
0.0
 20
0.0
 30
0.0
  0
VERTEX
  8
2
 10
1.585
 20
2.3796
 30
0.0
  0
VERTEX
  8
2
 10
1.605
 20
2.3746
 30
0.0
  0
SEQEND
  0
POLYLINE
  8
2
  6
LINETYPE_11
 40
0.009
 41
0.009
 66
     1
 10
0.0
 20
0.0
 30
0.0
  0
VERTEX
  8
2
 10
1.605
 20
2.3746
 30
0.0
  0
VERTEX
  8
2
 10
1.605
 20
2.3846
 30
0.0
  0
SEQEND
  0
POLYLINE
  8
2
  6
LINETYPE_11
 40
0.009
 41
0.009
 66
     1
 10
0.0
 20
0.0
 30
0.0
  0
VERTEX
  8
2
 10
1.605
 20
2.3846
 30
0.0
  0
VERTEX
  8
2
 10
1.585
 20
2.3796
 30
0.0
  0
SEQEND
  0
POLYLINE
  8
2
  6
LINETYPE_11
 40
0.009
 41
0.009
 66
     1
 10
0.0
 20
0.0
 30
0.0
  0
VERTEX
  8
2
 10
3.8119
 20
2.3796
 30
0.0
  0
VERTEX
  8
2
 10
5.0
 20
2.3796
 30
0.0
  0
SEQEND
  0
POLYLINE
  8
2
  6
LINETYPE_11
 40
0.009
 41
0.009
 66
     1
 10
0.0
 20
0.0
 30
0.0
  0
VERTEX
  8
2
 10
5.0
 20
2.3796
 30
0.0
  0
VERTEX
  8
2
 10
4.875
 20
2.4046
 30
0.0
  0
SEQEND
  0
POLYLINE
  8
2
  6
LINETYPE_11
 40
0.009
 41
0.009
 66
     1
 10
0.0
 20
0.0
 30
0.0
  0
VERTEX
  8
2
 10
4.875
 20
2.4046
 30
0.0
  0
VERTEX
  8
2
 10
4.875
 20
2.3546
 30
0.0
  0
SEQEND
  0
POLYLINE
  8
2
  6
LINETYPE_11
 40
0.009
 41
0.009
 66
     1
 10
0.0
 20
0.0
 30
0.0
  0
VERTEX
  8
2
 10
4.875
 20
2.3546
 30
0.0
  0
VERTEX
  8
2
 10
5.0
 20
2.3796
 30
0.0
  0
SEQEND
  0
POLYLINE
  8
2
  6
LINETYPE_11
 40
0.009
 41
0.009
 66
     1
 10
0.0
 20
0.0
 30
0.0
  0
VERTEX
  8
2
 10
5.0
 20
2.3796
 30
0.0
  0
VERTEX
  8
2
 10
4.98
 20
2.3796
 30
0.0
  0
SEQEND
  0
POLYLINE
  8
2
  6
LINETYPE_11
 40
0.009
 41
0.009
 66
     1
 10
0.0
 20
0.0
 30
0.0
  0
VERTEX
  8
2
 10
4.98
 20
2.3796
 30
0.0
  0
VERTEX
  8
2
 10
4.88
 20
2.3996
 30
0.0
  0
SEQEND
  0
POLYLINE
  8
2
  6
LINETYPE_11
 40
0.009
 41
0.009
 66
     1
 10
0.0
 20
0.0
 30
0.0
  0
VERTEX
  8
2
 10
4.88
 20
2.3996
 30
0.0
  0
VERTEX
  8
2
 10
4.88
 20
2.3596
 30
0.0
  0
SEQEND
  0
POLYLINE
  8
2
  6
LINETYPE_11
 40
0.009
 41
0.009
 66
     1
 10
0.0
 20
0.0
 30
0.0
  0
VERTEX
  8
2
 10
4.88
 20
2.3596
 30
0.0
  0
VERTEX
  8
2
 10
4.98
 20
2.3796
 30
0.0
  0
SEQEND
  0
POLYLINE
  8
2
  6
LINETYPE_11
 40
0.009
 41
0.009
 66
     1
 10
0.0
 20
0.0
 30
0.0
  0
VERTEX
  8
2
 10
4.98
 20
2.3796
 30
0.0
  0
VERTEX
  8
2
 10
4.96
 20
2.3796
 30
0.0
  0
SEQEND
  0
POLYLINE
  8
2
  6
LINETYPE_11
 40
0.009
 41
0.009
 66
     1
 10
0.0
 20
0.0
 30
0.0
  0
VERTEX
  8
2
 10
4.96
 20
2.3796
 30
0.0
  0
VERTEX
  8
2
 10
4.885
 20
2.3946
 30
0.0
  0
SEQEND
  0
POLYLINE
  8
2
  6
LINETYPE_11
 40
0.009
 41
0.009
 66
     1
 10
0.0
 20
0.0
 30
0.0
  0
VERTEX
  8
2
 10
4.885
 20
2.3946
 30
0.0
  0
VERTEX
  8
2
 10
4.885
 20
2.3646
 30
0.0
  0
SEQEND
  0
POLYLINE
  8
2
  6
LINETYPE_11
 40
0.009
 41
0.009
 66
     1
 10
0.0
 20
0.0
 30
0.0
  0
VERTEX
  8
2
 10
4.885
 20
2.3646
 30
0.0
  0
VERTEX
  8
2
 10
4.955
 20
2.3796
 30
0.0
  0
SEQEND
  0
POLYLINE
  8
2
  6
LINETYPE_11
 40
0.009
 41
0.009
 66
     1
 10
0.0
 20
0.0
 30
0.0
  0
VERTEX
  8
2
 10
4.955
 20
2.3796
 30
0.0
  0
VERTEX
  8
2
 10
4.94
 20
2.3796
 30
0.0
  0
SEQEND
  0
POLYLINE
  8
2
  6
LINETYPE_11
 40
0.009
 41
0.009
 66
     1
 10
0.0
 20
0.0
 30
0.0
  0
VERTEX
  8
2
 10
4.94
 20
2.3796
 30
0.0
  0
VERTEX
  8
2
 10
4.89
 20
2.3896
 30
0.0
  0
SEQEND
  0
POLYLINE
  8
2
  6
LINETYPE_11
 40
0.009
 41
0.009
 66
     1
 10
0.0
 20
0.0
 30
0.0
  0
VERTEX
  8
2
 10
4.89
 20
2.3896
 30
0.0
  0
VERTEX
  8
2
 10
4.89
 20
2.3696
 30
0.0
  0
SEQEND
  0
POLYLINE
  8
2
  6
LINETYPE_11
 40
0.009
 41
0.009
 66
     1
 10
0.0
 20
0.0
 30
0.0
  0
VERTEX
  8
2
 10
4.89
 20
2.3696
 30
0.0
  0
VERTEX
  8
2
 10
4.935
 20
2.3796
 30
0.0
  0
SEQEND
  0
POLYLINE
  8
2
  6
LINETYPE_11
 40
0.009
 41
0.009
 66
     1
 10
0.0
 20
0.0
 30
0.0
  0
VERTEX
  8
2
 10
4.935
 20
2.3796
 30
0.0
  0
VERTEX
  8
2
 10
4.915
 20
2.3796
 30
0.0
  0
SEQEND
  0
POLYLINE
  8
2
  6
LINETYPE_11
 40
0.009
 41
0.009
 66
     1
 10
0.0
 20
0.0
 30
0.0
  0
VERTEX
  8
2
 10
4.915
 20
2.3796
 30
0.0
  0
VERTEX
  8
2
 10
4.895
 20
2.3846
 30
0.0
  0
SEQEND
  0
POLYLINE
  8
2
  6
LINETYPE_11
 40
0.009
 41
0.009
 66
     1
 10
0.0
 20
0.0
 30
0.0
  0
VERTEX
  8
2
 10
4.895
 20
2.3846
 30
0.0
  0
VERTEX
  8
2
 10
4.895
 20
2.3746
 30
0.0
  0
SEQEND
  0
POLYLINE
  8
2
  6
LINETYPE_11
 40
0.009
 41
0.009
 66
     1
 10
0.0
 20
0.0
 30
0.0
  0
VERTEX
  8
2
 10
4.895
 20
2.3746
 30
0.0
  0
VERTEX
  8
2
 10
4.915
 20
2.3796
 30
0.0
  0
SEQEND
  0
TEXT
  8
2
 10
3.3301
 20
2.3171
 30
0.0
 40
0.125
  1
3.50
 50
0.000000
  0
TEXT
  8
0
 10
6.0137
 20
1.6789
 30
0.0
 40
0.125
  1
SHEET: 3 OF 3
 50
0.000000
  0
TEXT
  8
0
 10
8.0646
 20
1.6928
 30
0.0
 40
0.125
  1
SCALE: 1" = 1"
 50
0.000000
  0
TEXT
  8
0
 10
6.0274
 20
1.2247
 30
0.0
 40
0.125
  1
MATERIALS: BALSA WOOD
 50
0.000000
  0
TEXT
  8
0
 10
6.0549
 20
0.6328
 30
0.0
 40
0.125
  1
NAME: JASPER ROGERS
 50
0.000000
  0
TEXT
  8
0
 10
1.1215
 20
1.5315
 30
0.0
 40
0.25
  1
DETAIL, BODY
 50
0.000000
  0
TEXT
  8
0
 10
0.9887
 20
0.6328
 30
0.0
 40
0.125
  1
PROJECT: BALSA WOOD PLANE
 50
0.000000
  0
ENDSEC
  0
EOF
